<svg xmlns="http://www.w3.org/2000/svg" enable-background="new 0 0 1600 1080" viewBox="307.18 210.2 985.47 659.6"><path fill="#352627" d="M649.7,398.5l7.3,20.6c0,0-48.6-0.8-50.8-1.5s-46.3,10.7-46.3,10.7l8-20.5L649.7,398.5z"/><path fill="#ffc3cb" d="M374.7,461.5c0,0-11.8-13.6-14.8-17.2c-3-3.6-7-4.3-9.7-2.2c-2.6,2.1-1.9,5.4,0.6,9.5    c2.6,4.1,3.2,5,3.2,5s-17.3-5.7-20.7-7.1c-3.5-1.4-9.5-2.6-11.4,1c-1.7,3.4,2.3,6.1,7.7,9s13.6,6.2,13.6,6.2s-21.5-8.2-25.6-9.9    c-4-1.7-8.2-2.1-9.9,1.2c-1.7,3.3,0.9,6.7,5.5,9.1c4.5,2.4,24.5,12.3,24.5,12.3s-13.5-5.4-16.6-6.7c-3.7-1.6-9-2.9-8.8,2.7    c0.1,4.5,10.7,11.7,19.3,16c21,10.8,38.6,9,38.6,9L374.7,461.5z"/><path fill="#eb5a67" d="M621.8,438.4c0,0-146.8,58.8-243.8,15.8l-26,52.5c0,0,94.8,52.2,248.9-1.6L621.8,438.4z"/><path fill="#eb5a67" d="M812,498.3c0,0-69-99.7-190.2-59.9l39.9,36.5c0,0,44-10,79.3,23.9L812,498.3z"/><path fill="#f5929b" d="M650,387.3c0.5,3.8,0.4,7.6-0.2,11.3c-2.8,18.6-17.7,33.7-37.3,36s-37.5-9.1-44.5-26.6    c-1.4-3.4-2.3-7-2.7-11c-0.5-3.8-0.4-7.6,0.2-11.3l0-0.1c2.9-18.5,17.8-33.6,37.3-35.9c19.5-2.2,37.5,9.1,44.5,26.6l0,0    C648.6,379.8,649.5,383.3,650,387.3z"/><circle cx="565.8" cy="396.8" r="11.2" fill="#f5929b" transform="rotate(-6.512 565.99 396.924)"/><circle cx="649.6" cy="387.2" r="11.2" fill="#f5929b" transform="rotate(-6.512 649.894 387.372)"/><path fill="#0c0e88" d="M647.3,376.3L647.3,376.3C647.2,376.3,647.2,376.3,647.3,376.3c-1.3,0.6-2.5,1.1-3.7,1.6    c-32.5,12.8-54.4-13-54.4-13c-10.4,16.7-22.5,20.3-23.6,20.6c2.9-18.5,17.8-33.6,37.3-35.9C622.3,347.5,640.3,358.8,647.3,376.3z"/><path fill="#231f20" d="M561.6,392.2l-0.4,2.7c-0.1,0.8-0.1,1.4-0.2,2c0,0.6,0,1.2,0,2c0,0.2,0,0.4,0.1,0.6l0.1,0.6    c0,0.5,0.1,0.9,0.1,1.5l0,0.1l-0.1,0.1c0,0,0,0-0.1,0c-0.3-0.3-0.6-0.7-0.9-1c-0.2-0.4-0.5-0.8-0.6-1.2c-0.4-0.8-0.6-1.8-0.6-2.6    c0-1.9,1-3.6,2.4-4.8L561.6,392.2C561.7,392,561.7,392.1,561.6,392.2L561.6,392.2z"/><path fill="#231f20" d="M652.2,381.6c1.2-0.1,2.3,0.3,3.1,0.9c0.9,0.7,1.5,1.7,1.9,2.9c0.2,1.2,0.2,2.4-0.4,3.4    c-0.2,0.5-0.6,0.9-0.9,1.3c-0.4,0.3-0.9,0.7-1.4,0.9l-0.1,0c-0.1,0-0.1,0-0.1-0.1l0-0.1c0.2-0.4,0.4-0.8,0.5-1.2    c0.1-0.4,0.3-0.8,0.4-1.2c0.2-0.9,0.1-1.7,0-2.6c-0.1-0.9-0.6-1.6-1.2-2.3c-0.5-0.7-1.2-1.3-1.9-1.7l0-0.1    C652.1,381.7,652.1,381.7,652.2,381.6L652.2,381.6z"/><path fill="#231f20" d="M604.1,416.8c2.3-0.4,4.4-0.9,6.4-1.5c1-0.4,2-0.6,2.9-1c0.5-0.1,0.9-0.4,1.4-0.6    c0.5-0.2,0.9-0.5,1.4-0.7c1.7-0.9,3.3-2.2,4.7-3.6c0.7-0.7,1.3-1.5,2-2.4c0.4-0.4,0.6-0.9,1-1.3c0.3-0.5,0.7-0.9,0.9-1.4l0,0    l0.1,0l0,0.1l-0.6,1.6c-0.2,0.6-0.3,1-0.6,1.5l-0.7,1.5c-0.3,0.5-0.7,0.9-0.9,1.4c-0.6,1-1.5,1.8-2.2,2.5l-1.4,1    c-0.4,0.3-1,0.6-1.4,0.9c-2,1.1-4.2,1.8-6.4,2.1c-2.2,0.3-4.5,0.4-6.7,0.1l-0.1-0.1C603.9,416.9,604,416.8,604.1,416.8    L604.1,416.8z"/><path fill="#ffc3cb" d="M650,387.3c0.5,3.8,0.4,7.6-0.2,11.3c-2.8,18.6-17.7,33.7-37.3,36s-37.5-9.1-44.5-26.6    c-1.4-3.4-2.3-7-2.7-11c-0.5-3.8-0.4-7.6,0.2-11.3l0-0.1c2.9-18.5,17.8-33.6,37.3-35.9c19.5-2.2,37.5,9.1,44.5,26.6l0,0    C648.6,379.8,649.5,383.3,650,387.3z"/><circle cx="565.8" cy="396.8" r="11.2" fill="#ffc3cb" transform="rotate(-6.512 565.99 396.924)"/><circle cx="649.6" cy="387.2" r="11.2" fill="#ffc3cb" transform="rotate(-6.512 649.894 387.372)"/><path fill="#352627" d="M647.3,376.3L647.3,376.3C647.2,376.3,647.2,376.3,647.3,376.3c-1.3,0.6-2.5,1.1-3.7,1.6    c-32.5,12.8-54.4-13-54.4-13c-10.4,16.7-22.5,20.3-23.6,20.6c2.9-18.5,17.8-33.6,37.3-35.9C622.3,347.5,640.3,358.8,647.3,376.3z"/><path fill="#231f20" d="M561.6,392.2l-0.4,2.7c-0.1,0.8-0.1,1.4-0.2,2c0,0.6,0,1.2,0,2c0,0.2,0,0.4,0.1,0.6l0.1,0.6    c0,0.5,0.1,0.9,0.1,1.5l0,0.1l-0.1,0.1c0,0,0,0-0.1,0c-0.3-0.3-0.6-0.7-0.9-1c-0.2-0.4-0.5-0.8-0.6-1.2c-0.4-0.8-0.6-1.8-0.6-2.6    c0-1.9,1-3.6,2.4-4.8L561.6,392.2C561.7,392,561.7,392.1,561.6,392.2L561.6,392.2z"/><path fill="#231f20" d="M652.2,381.6c1.2-0.1,2.3,0.3,3.1,0.9c0.9,0.7,1.5,1.7,1.9,2.9c0.2,1.2,0.2,2.4-0.4,3.4    c-0.2,0.5-0.6,0.9-0.9,1.3c-0.4,0.3-0.9,0.7-1.4,0.9l-0.1,0c-0.1,0-0.1,0-0.1-0.1l0-0.1c0.2-0.4,0.4-0.8,0.5-1.2    c0.1-0.4,0.3-0.8,0.4-1.2c0.2-0.9,0.1-1.7,0-2.6c-0.1-0.9-0.6-1.6-1.2-2.3c-0.5-0.7-1.2-1.3-1.9-1.7l0-0.1    C652.1,381.7,652.1,381.7,652.2,381.6L652.2,381.6z"/><path fill="#231f20" d="M604.1,416.8c2.3-0.4,4.4-0.9,6.4-1.5c1-0.4,2-0.6,2.9-1c0.5-0.1,0.9-0.4,1.4-0.6    c0.5-0.2,0.9-0.5,1.4-0.7c1.7-0.9,3.3-2.2,4.7-3.6c0.7-0.7,1.3-1.5,2-2.4c0.4-0.4,0.6-0.9,1-1.3c0.3-0.5,0.7-0.9,0.9-1.4l0,0    l0.1,0l0,0.1l-0.6,1.6c-0.2,0.6-0.3,1-0.6,1.5l-0.7,1.5c-0.3,0.5-0.7,0.9-0.9,1.4c-0.6,1-1.5,1.8-2.2,2.5l-1.4,1    c-0.4,0.3-1,0.6-1.4,0.9c-2,1.1-4.2,1.8-6.4,2.1c-2.2,0.3-4.5,0.4-6.7,0.1l-0.1-0.1C603.9,416.9,604,416.8,604.1,416.8    L604.1,416.8z"/><path fill="#eb5a67" d="M713.9,536.6L610.5,591l-24.6-81.1c-9.8-29.7,6.2-61.7,36-71.5l0,0c29.7-9.8,61.7,6.2,71.5,36    l17.4,52.7L713.9,536.6z"/><path fill="none" stroke="#fff" stroke-miterlimit="10" stroke-width="2" d="M663.9,438.2c0,0-7.6,22.4-34.5,11.1c0,0-12.5,25.2-35,9.4"/><g><path fill="#edeee7" d="M968.1,485.8H551.8c-11,0-20,9-20,20v363.9h456.3V505.8C988.1,494.7,979.2,485.8,968.1,485.8z"/><path fill="#2e1d32" d="M974.1,485.8H545.8c-7.7,0-14,6.3-14,14v342.8h456.3V499.8C988.1,492.1,981.9,485.8,974.1,485.8z"/><rect width="326" height="425.4" x="597" y="451.5" fill="#fff" transform="rotate(90 759.987 664.202)"/><path fill="#d2d4c5" d="M1007,842.6H512.9c-2.2,0-4,1.8-4,4v19.1c0,2.2,1.8,4,4,4H1007c2.2,0,4-1.8,4-4v-19.1     C1011,844.4,1009.2,842.6,1007,842.6z"/><path fill="#2e1d32" d="M803.1,838.8h-86.3v1.3c0,9,7.3,16.4,16.4,16.4h53.6c9,0,16.4-7.3,16.4-16.4V838.8z"/><path fill="#0ba87c" d="M669.4,568.8c-1-4.4-2.7-8.5-5-12.3l3.9-3.9L656,540.5l-3.8,3.8c-3.7-2.4-7.9-4.1-12.3-5.1v-5.4h-17.3v5.4     c-4.4,1-8.6,2.8-12.3,5.1l-3.8-3.8l-12.2,12.2l3.9,3.9c-2.3,3.7-4.1,7.8-5,12.3h-5.5v17.3h5.6c1,4.4,2.7,8.5,5.1,12.1l-4,4     l12.2,12.2l4-4c3.7,2.3,7.8,4,12.1,5v5.7h17.3v-5.7c4.4-1,8.4-2.7,12.1-5l4,4l12.2-12.2l-4-4c2.3-3.7,4.1-7.8,5.1-12.1h5.6v-17.3     H669.4z M631.2,596c-10.3,0-18.7-8.4-18.7-18.7c0-10.3,8.4-18.7,18.7-18.7c10.3,0,18.7,8.4,18.7,18.7     C649.9,587.7,641.5,596,631.2,596z"/><circle cx="631.2" cy="577.5" r="28.1" fill="none" stroke="#fff" stroke-miterlimit="10"/><line x1="708.3" x2="781.9" y1="554.8" y2="554.8" fill="none" stroke="#d2d4c5" stroke-miterlimit="10" stroke-width="4"/><line x1="708.3" x2="935.4" y1="575.9" y2="575.9" fill="none" stroke="#d2d4c5" stroke-miterlimit="10" stroke-width="4"/><line x1="708.3" x2="874.7" y1="597.1" y2="597.1" fill="none" stroke="#d2d4c5" stroke-miterlimit="10" stroke-width="4"/><rect width="296" height="133" x="639" y="653" fill="#edeee7"/><path fill="#fff" d="M660.2,750.6c0,0,38.7-6.3,59.9-20c21.2-13.7,33.4-19.4,54.7,2.7c21.2,22,59.8,9.7,80.2-8.9    s25.3,11.1,36.1,18.3c10.7,7.3,23.5,7.9,23.5,7.9H660.2z"/><path fill="#d2d4c5" d="M660.2,750.6c0,0,27.9-53.3,58.1-26.7s33.8,13.7,64.1-13.7c30.4-27.5,49.7-22.6,69.1,17.4    c19.4,40,40-24.2,63,23H660.2z"/></g><g><path fill="#f5929b" d="M1013.4,324.2c0,0-2.7-20.4-3.2-25c-0.5-4.6-3.5-7.5-6.8-7.2s-4.6,3.4-4.7,8.2    c-0.1,4.8-0.1,5.9-0.1,5.9s-11.2-14.4-13.3-17.4c-2.2-3.1-6.5-7.4-10-5.4c-3.3,1.9-1.5,6.3,1.4,11.7s7.9,12.7,7.9,12.7    s-13.3-18.8-15.8-22.4c-2.4-3.7-5.7-6.3-8.9-4.5c-3.2,1.8-3,6.1-0.4,10.6c2.4,4.5,13.6,23.9,13.6,23.9s-8.3-12-10.1-14.8    c-2.2-3.4-5.9-7.3-8.8-2.6c-2.4,3.7,2.5,15.7,7.2,24c11.5,20.6,27.1,28.9,27.1,28.9L1013.4,324.2z"/><path fill="#f5929b" d="M1013.4,324.2c0,0-2.7-20.4-3.2-25c-0.5-4.6-3.5-7.5-6.8-7.2s-4.6,3.4-4.7,8.2    c-0.1,4.8-0.1,5.9-0.1,5.9L1013.4,324.2z"/><path fill="#2e1d32" d="M1196,464.5c0,0-47.3-5.4-108.1-59.5c-36.5-32.5-64.3-86.7-64.3-86.7L968.9,347c0,0,80,150,183,171    L1196,464.5z"/><polygon fill="#2e1d32" points="1182 841 1150.4 869.8 1249.6 869.8 1246.6 839"/><path fill="#b9bee0" d="M1182,841c0,0-23.9-128.7-22.6-264.3c0,0,67.1,1.2,65.6,18.2c-5.1,55.8,21.6,244.2,21.6,244.2L1182,841z"/><polygon fill="#2e1d32" points="1071.9 836.4 1035.4 869.8 1131.4 869.8 1135.6 839"/><path fill="#b9bee0" d="M1071.9,836.4c0,0,14.2-153.4,40.2-252.8c3.9-14.7,63.6-22.9,60.3-8c-19.7,88.7-36.8,263.3-36.8,263.3    L1071.9,836.4z"/><path fill="#2e1d32" d="M1225,594.8l-112.9-11.2l10.5-70.2c4.6-31,33.3-52.3,64.3-47.7l0,0c31,4.6,52.3,33.3,47.7,64.3    l-8.1,54.9L1225,594.8z"/><path fill="#f5929b" d="M1244.1,434.9c-1.7,3.5-3.7,6.6-6.2,9.4c-12.3,14.2-33.1,19-50.8,10.4s-26.8-27.8-23.3-46.2    c0.7-3.7,1.8-7.2,3.6-10.7c1.7-3.5,3.7-6.6,6.2-9.4l0-0.1c12.3-14.1,33-18.9,50.7-10.3s26.8,27.8,23.3,46.2l0,0    C1247,427.9,1245.8,431.4,1244.1,434.9z"/><circle cx="1168" cy="397.9" r="11.2" fill="#f5929b" transform="rotate(-64.094 1168.003 397.861)"/><circle cx="1243.9" cy="434.8" r="11.2" fill="#f5929b" transform="rotate(-64.094 1243.928 434.767)"/><path fill="#0c0e88" d="M1247.7,424.2L1247.7,424.2C1247.6,424.2,1247.6,424.2,1247.7,424.2c-1.4-0.2-2.7-0.4-4-0.7    c-34.3-6.7-39-40.2-39-40.2c-17.8,8.5-29.9,5.1-30.9,4.8c12.3-14.1,33-18.9,50.7-10.3C1242.1,386.6,1251.2,405.8,1247.7,424.2z"/><path fill="#231f20" d="M1166.9,391.8l-1.8,2.1c-0.5,0.6-0.8,1.1-1.2,1.6c-0.4,0.5-0.6,1.1-1,1.7    c-0.2,0.2-0.2,0.4-0.3,0.5l-0.3,0.5c-0.2,0.5-0.4,0.8-0.7,1.4l0,0.1l-0.1,0.1c0,0,0,0-0.1,0c-0.1-0.4-0.2-0.9-0.2-1.3    c0-0.4,0-0.9,0.1-1.3c0.1-0.9,0.4-1.8,0.9-2.6c1-1.6,2.7-2.5,4.6-2.8L1166.9,391.8C1167.1,391.6,1167.1,391.7,1166.9,391.8    L1166.9,391.8z"/><path fill="#231f20" d="M1249,431.4c1.1,0.5,1.8,1.5,2.1,2.4c0.4,1.1,0.4,2.3,0,3.4c-0.4,1.1-1.2,2.2-2.2,2.7    c-0.4,0.3-1,0.4-1.4,0.6c-0.5,0-1.1,0.1-1.7,0l-0.1,0c-0.1,0-0.1,0-0.1-0.1l0-0.1c0.4-0.2,0.8-0.5,1.1-0.7c0.3-0.3,0.7-0.5,1-0.9    c0.6-0.7,1-1.4,1.4-2.2s0.4-1.7,0.2-2.5c-0.1-0.9-0.3-1.8-0.7-2.5l0-0.1C1248.9,431.4,1248.9,431.4,1249,431.4L1249,431.4z"/><path fill="#231f20" d="M1189.6,435.3c2.1,0.8,4.2,1.6,6.2,2.2c1.1,0.2,2,0.6,3,0.7c0.5,0.1,1,0.2,1.5,0.2    c0.5,0,1,0.1,1.5,0.1c1.9,0.2,4-0.1,5.9-0.5c1-0.2,1.9-0.6,3-1c0.6-0.1,1-0.4,1.5-0.6c0.5-0.3,1.1-0.4,1.6-0.7l0,0l0.1,0l0,0.1    l-1.4,1.1c-0.4,0.4-0.8,0.7-1.3,1l-1.4,0.8c-0.5,0.3-1.1,0.4-1.6,0.7c-1,0.5-2.2,0.7-3.2,0.9l-1.7,0.1c-0.5,0-1.1,0-1.7,0    c-2.3-0.1-4.5-0.7-6.5-1.6c-2-0.9-4-2-5.7-3.5l-0.1-0.1C1189.4,435.3,1189.5,435.3,1189.6,435.3L1189.6,435.3z"/><path fill="#f5929b" d="M1244.1,434.9c-1.7,3.5-3.7,6.6-6.2,9.4c-12.3,14.2-33.1,19-50.8,10.4s-26.8-27.8-23.3-46.2    c0.7-3.7,1.8-7.2,3.6-10.7c1.7-3.5,3.7-6.6,6.2-9.4l0-0.1c12.3-14.1,33-18.9,50.7-10.3s26.8,27.8,23.3,46.2l0,0    C1247,427.9,1245.8,431.4,1244.1,434.9z"/><circle cx="1168" cy="397.9" r="11.2" fill="#f5929b" transform="rotate(-64.094 1168.003 397.861)"/><circle cx="1243.9" cy="434.8" r="11.2" fill="#f5929b" transform="rotate(-64.094 1243.928 434.767)"/><path fill="#2e1d32" d="M1247.7,424.2L1247.7,424.2C1247.6,424.2,1247.6,424.2,1247.7,424.2c-1.4-0.2-2.7-0.4-4-0.7    c-34.3-6.7-39-40.2-39-40.2c-17.8,8.5-29.9,5.1-30.9,4.8c12.3-14.1,33-18.9,50.7-10.3C1242.1,386.6,1251.2,405.8,1247.7,424.2z"/><path fill="#231f20" d="M1166.9,391.8l-1.8,2.1c-0.5,0.6-0.8,1.1-1.2,1.6c-0.4,0.5-0.6,1.1-1,1.7    c-0.2,0.2-0.2,0.4-0.3,0.5l-0.3,0.5c-0.2,0.5-0.4,0.8-0.7,1.4l0,0.1l-0.1,0.1c0,0,0,0-0.1,0c-0.1-0.4-0.2-0.9-0.2-1.3    c0-0.4,0-0.9,0.1-1.3c0.1-0.9,0.4-1.8,0.9-2.6c1-1.6,2.7-2.5,4.6-2.8L1166.9,391.8C1167.1,391.6,1167.1,391.7,1166.9,391.8    L1166.9,391.8z"/><path fill="#231f20" d="M1249,431.4c1.1,0.5,1.8,1.5,2.1,2.4c0.4,1.1,0.4,2.3,0,3.4c-0.4,1.1-1.2,2.2-2.2,2.7    c-0.4,0.3-1,0.4-1.4,0.6c-0.5,0-1.1,0.1-1.7,0l-0.1,0c-0.1,0-0.1,0-0.1-0.1l0-0.1c0.4-0.2,0.8-0.5,1.1-0.7c0.3-0.3,0.7-0.5,1-0.9    c0.6-0.7,1-1.4,1.4-2.2s0.4-1.7,0.2-2.5c-0.1-0.9-0.3-1.8-0.7-2.5l0-0.1C1248.9,431.4,1248.9,431.4,1249,431.4L1249,431.4z"/><path fill="#f5929b" d="M1158.6,631.9c0,0-14.4-10.9-18.1-13.8c-3.7-2.9-7.8-2.8-9.9-0.1c-2.1,2.6-0.8,5.7,2.6,9.1    c3.4,3.4,4.2,4.2,4.2,4.2s-18.1-2-21.7-2.7c-3.7-0.6-9.8-0.5-10.9,3.4c-1,3.7,3.5,5.5,9.4,7.2c5.9,1.7,14.6,3.2,14.6,3.2    s-22.8-3.6-27.1-4.4c-4.3-0.8-8.5-0.3-9.4,3.3c-0.9,3.6,2.3,6.4,7.3,7.7c4.9,1.4,26.6,7,26.6,7s-14.4-2.5-17.6-3.2    c-3.9-0.8-9.4-0.9-8,4.5c1,4.4,12.9,9.2,22.2,11.6c22.7,6.2,39.6,0.8,39.6,0.8L1158.6,631.9z"/><path fill="#231f20" d="M1213.1,436.2l-23.9-4.4c0,0-0.6,8.4,10.2,10.5C1209.8,444.4,1213.1,436.2,1213.1,436.2z"/><path fill="#2e1d32" d="M1154.2,470.6c3.2-1.6,6.4-2.9,9.6-3.9c33.3-10.8,64.2,7.1,80.9,26.2c11.2,12.9,22.5,30.7,29.5,42.5    c22.6,35.5,32.9,80.5-19.8,115.5c0,0-44.4,29.3-95.4,31.3l-5.8-62.6c0,0,41.6,0.4,79.8-21.3c36.1-20.5-53-79.9-53-79.9l6-6.3    C1160.4,499.7,1131.7,481.6,1154.2,470.6z"/><path fill="none" stroke="#fff" stroke-width="2" d="M1160.9,462c0,0-0.3,17.8,18.8,22.3c18.9,4.5,27.2-2.5,32-9.3"/><rect width="208.3" height="192.2" x="789.7" y="210.2" fill="#edeee7"/><path fill="#d2d4c5" d="M187.3,280.5c0.1,14.6-11.7,26.6-26.3,26.7l-25,0.2l-19.3,0.1l-27.1,0.2     c-11.5,0.1-20.9-9.2-20.9-20.6c-0.1-10.6,7.9-19.4,18.1-20.7c3-16.1,17.1-28.3,34-28.4c13.2-0.1,24.8,7.2,30.8,18.1     c2.8-1.1,5.9-1.7,9.2-1.7C175.2,254.1,187.2,265.8,187.3,280.5z" transform="translate(766 14)"/><line x1="834.4" x2="899.5" y1="342.1" y2="342.1" fill="none" stroke="#d2d4c5" stroke-miterlimit="10" stroke-width="4"/><line x1="834.4" x2="950.4" y1="360.1" y2="360.1" fill="none" stroke="#d2d4c5" stroke-miterlimit="10" stroke-width="4"/></g><path fill="#ffc3cb" d="M788.9,482.6c0,0-1.1,14.2-1.4,19c-0.3,4.8,0.1,9.1,5.1,10c4.7,0.9,6.8-5.1,7.3-8.8c0.6-3.7,1.8-12.2,1.4-17.8   c-0.4-5-1.9-9.2-5.9-9.3C789.8,475.6,788.9,482.6,788.9,482.6z"/><path fill="#ffc3cb" d="M776.3,485.1c0,0-0.6,14.2-0.8,19c-0.1,4.8,0.4,9.1,5.4,9.9c4.7,0.8,6.6-5.3,7-9c0.4-3.7,1.4-12.2,0.8-17.8   c-0.5-5-2.2-9.2-6.2-9.1C776.9,478.2,776.3,485.1,776.3,485.1z"/><path fill="#ffc3cb" d="M801.3,482.9c0,0-0.7,12.3-0.8,16.4c-0.2,4.1,0.3,7.8,4.7,8.4c4.2,0.5,5.9-4.8,6.3-8s1.3-10.6,0.9-15.4   c-0.4-4.3-1.9-7.8-5.4-7.7C801.9,476.9,801.3,482.9,801.3,482.9z"/><line x1="787.7" x2="789.1" y1="506.5" y2="484.7" fill="none" stroke="#231f20" stroke-miterlimit="10" stroke-width="2"/><line x1="800.7" x2="801.1" y1="500.8" y2="484.3" fill="none" stroke="#231f20" stroke-miterlimit="10" stroke-width="2"/><g><path fill="#f5e8af" d="M626.5,238.9h92.7c1.7,0,3.1,1.4,3.1,3.1v64.3c0,1.7-1.4,3.1-3.1,3.1h-92.7    c-1.7,0-3.1-1.4-3.1-3.1v-64.3C623.3,240.3,624.7,238.9,626.5,238.9z"/><polyline fill="none" stroke="#fff" stroke-width="2" points="719.6 241.5 672.8 285.2 626 241.5"/><line x1="679.4" x2="719.6" y1="279.1" y2="307" fill="none" stroke="#fff" stroke-width="2"/><line x1="626" x2="666.2" y1="307" y2="279.1" fill="none" stroke="#fff" stroke-width="2"/></g><rect width="10" height="35.8" x="566.5" y="246" fill="#c1c4e2" transform="rotate(90 571.434 263.957)"/><rect width="10" height="35.8" x="529.6" y="270.4" fill="#c1c4e2" transform="rotate(90 534.584 288.338)"/><g><polygon fill="#1f29a7" points="572.8 675.8 572.8 644.3 604.4 675.8"/><polygon fill="#b9bee0" points="604.4 869.7 432.6 869.7 432.6 644.3 572.8 644.3 572.8 675.8 604.4 675.8"/><line x1="461.4" x2="499.6" y1="792.5" y2="792.5" fill="none" stroke="#fff" stroke-miterlimit="10" stroke-width="3"/><line x1="461.4" x2="556.4" y1="829.6" y2="829.6" fill="none" stroke="#fff" stroke-miterlimit="10" stroke-width="3"/><line x1="461.4" x2="580.8" y1="811.2" y2="811.2" fill="none" stroke="#fff" stroke-miterlimit="10" stroke-width="3"/><path fill="#fff" d="M565.5,762.7l-29.7-51.4c-0.6-1-2.1-1-2.7,0l-22.2,38.5l-13-22.5c-0.6-1-2.1-1-2.7,0l-20.5,35.5     c-0.6,1,0.2,2.4,1.4,2.4h28.7H517h47.1C565.4,765,566.1,763.7,565.5,762.7z"/><circle cx="506.1" cy="707.3" r="6.2" fill="#fff"/></g></svg>