<svg width="15" height="15" viewBox="0 0 15 15" fill="none" xmlns="http://www.w3.org/2000/svg">
<path d="M11.25 1.25V2.5M3.75 1.25V2.5" stroke="#2B3F6C" stroke-opacity="0.4" stroke-width="0.9375" stroke-linecap="round" stroke-linejoin="round"/>
<path d="M1.5625 7.65203C1.5625 4.92871 1.5625 3.56705 2.34507 2.72103C3.12765 1.875 4.38718 1.875 6.90625 1.875H8.09375C10.6128 1.875 11.8724 1.875 12.6549 2.72103C13.4375 3.56705 13.4375 4.92871 13.4375 7.65203V7.97297C13.4375 10.6963 13.4375 12.0579 12.6549 12.904C11.8724 13.75 10.6128 13.75 8.09375 13.75H6.90625C4.38718 13.75 3.12765 13.75 2.34507 12.904C1.5625 12.0579 1.5625 10.6963 1.5625 7.97297V7.65203Z" stroke="#2B3F6C" stroke-opacity="0.4" stroke-width="0.9375" stroke-linecap="round" stroke-linejoin="round"/>
<path d="M1.875 5H13.125" stroke="#2B3F6C" stroke-opacity="0.4" stroke-width="0.9375" stroke-linecap="round" stroke-linejoin="round"/>
</svg>
