<svg xmlns="http://www.w3.org/2000/svg" fill-rule="evenodd" clip-rule="evenodd" image-rendering="optimizeQuality" shape-rendering="geometricPrecision" text-rendering="geometricPrecision" viewBox="687 118 3109 4124"><path fill="#b3b3b3" d="M1412 177l1085 0 1298 1298 0 0 0 2043c0,398 -326,724 -724,724l-1660 0c-398,0 -724,-326 -724,-724l0 -2618c0,-398 326,-724 724,-724z"/><path fill="#dedede" d="M1412 119l1085 0 1298 1298 0 0 0 2043c0,398 -326,724 -724,724l-1660 0c-398,0 -724,-326 -724,-724l0 -2618c0,-398 326,-724 724,-724z"/><path fill="#b3b3b3" d="M3795 1460l-593 0c-411,0 -747,-336 -747,-747l0 -593 0 0 1341 1341z"/><path fill="#c9c9c9" d="M3795 1417l-575 0c-398,0 -724,-326 -724,-724l0 -575 0 0 1298 1298z"/><path fill="red" d="M2176 1882l55 0 10 0 3 0 10 0 55 0 3 0 44 0 0 606 369 0 -10 12 10 0 -471 593 0 2 -22 0 0 -2 -471 -593 10 0 -10 -12 369 0 0 -606 44 0 3 0zm612 936l167 0 0 468 0 167 -167 0 -10 0 -1074 0 -10 0 -167 0 0 -167 0 -468 167 0 0 468 10 0 1074 0 10 0 0 -468z"/></svg>