<svg xmlns="http://www.w3.org/2000/svg" baseProfile="basic" viewBox="3 5 42 41.2"><linearGradient id="QT5oMGUzXGYtsiOFCfhB3a" x1="21.591" x2="5.801" y1="18.226" y2="44.858" gradientTransform="matrix(-1 0 0 1 46 0)" gradientUnits="userSpaceOnUse"><stop offset="0" stop-color="#0176d0"/><stop offset="1" stop-color="#16538c"/></linearGradient><path fill="url(#QT5oMGUzXGYtsiOFCfhB3a)" d="M17.5,18h26c0.828,0,1.5,0.672,1.5,1.5v18c0,0.828-0.672,1.5-1.5,1.5H39v6.398 c0,0.713-0.862,1.07-1.366,0.566L30.67,39H17.5c-0.828,0-1.5-0.672-1.5-1.5v-18C16,18.672,16.672,18,17.5,18z"/><path d="M33,18v6.5c0,1.38-1.12,2.5-2.5,2.5H17.74L16,28.74V19.5c0-0.83,0.67-1.5,1.5-1.5H33z" opacity=".05"/><path d="M32.5,18v6.5c0,1.1-0.9,2-2,2H17.54L16,28.04V19.5c0-0.83,0.67-1.5,1.5-1.5H32.5z" opacity=".07"/><linearGradient id="QT5oMGUzXGYtsiOFCfhB3b" x1="15.565" x2="26.724" y1="12.352" y2="30.507" gradientUnits="userSpaceOnUse"><stop offset="0" stop-color="#33bef0"/><stop offset="1" stop-color="#22a5e2"/></linearGradient><path fill="url(#QT5oMGUzXGYtsiOFCfhB3b)" d="M30.5,5h-26C3.672,5,3,5.672,3,6.5v18C3,25.328,3.672,26,4.5,26H9v6.398 c0,0.713,0.862,1.07,1.366,0.566L17.33,26H30.5c0.828,0,1.5-0.672,1.5-1.5v-18C32,5.672,31.328,5,30.5,5z"/></svg>