<svg xmlns="http://www.w3.org/2000/svg"  viewBox="0 0 512 512" width="512px" height="512px"><path fill="#57a4ff" d="M496,76v28H16V76A19.994,19.994,0,0,1,36,56H476A19.994,19.994,0,0,1,496,76Z"/><polygon fill="#57a4ff" points="268.95 399.91 424 400 88 400 88 399.91 268.95 399.91"/><path fill="#57a4ff" d="M88,160V366.06L200,208.09,303.24,353.7,352,288l72,101.92V160Zm248,88a24,24,0,1,1,24-24A24.006,24.006,0,0,1,336,248Z"/><path fill="#57a4ff" d="M88,160V366.06L200,208.09,303.24,353.7,352,288l72,101.92V160Zm248,88a24,24,0,1,1,24-24A24.006,24.006,0,0,1,336,248Z"/><polygon fill="#57a4ff" points="424 400 268.88 400 268.95 399.91 424 400"/><polygon fill="#57a4ff" points="424 400 88 400 88 399.91 268.95 399.91 424 400"/><g><path fill="#004fac" d="M476,48H36A28.031,28.031,0,0,0,8,76V436a28.031,28.031,0,0,0,28,28H476a28.031,28.031,0,0,0,28-28V76A28.031,28.031,0,0,0,476,48Zm12,388a12.01,12.01,0,0,1-12,12H36a12.01,12.01,0,0,1-12-12V112H488Zm0-340H24V76A12.01,12.01,0,0,1,36,64H476a12.01,12.01,0,0,1,12,12Z"/><path fill="#004fac" d="M40,88h8a8,8,0,0,0,0-16H40a8,8,0,0,0,0,16Z"/><path fill="#004fac" d="M72,88h8a8,8,0,0,0,0-16H72a8,8,0,0,0,0,16Z"/><path fill="#004fac" d="M104,88h8a8,8,0,0,0,0-16h-8a8,8,0,0,0,0,16Z"/><path fill="#004fac" d="M424,152H88a8,8,0,0,0-8,8V400a8,8,0,0,0,8,8H424a8,8,0,0,0,8-8V160A8,8,0,0,0,424,152ZM96,391.91v-23.3L200,221.92,320.52,391.91Zm244.2.09-27.08-38.19,38.72-52.17L415.67,392ZM416,364.73l-57.47-81.35a8,8,0,0,0-6.44-3.38,7.912,7.912,0,0,0-6.51,3.23l-42.19,56.85L206.53,203.46a8.012,8.012,0,0,0-13.06,0L96,340.94V168H416Z"/><path fill="#004fac" d="M336,256a32,32,0,1,0-32-32A32.036,32.036,0,0,0,336,256Zm0-48a16,16,0,1,1-16,16A16.019,16.019,0,0,1,336,208Z"/></g></svg>