<svg xmlns="http://www.w3.org/2000/svg" enable-background="new 0 0 300 300" viewBox="35.12 47.97 229.84 204.08"><path fill="#f2f0fb" d="M261.9 206.7c-6.8 20.5-27.3 37.8-49.6 43.3s-45.3-.4-59.8-14c-9.1-8.5-15-19.4-20.5-30.4s-10.9-22.2-19.1-31.3c-8.2-9.2-19.8-16.3-33.4-16.9-4.4-.2-8.7.4-12.8 1.6-8.3 2.5-17.4.9-23.8-4.6l-.1-.1c-7-5.9-9.6-15.2-6.2-23.4 3.1-7.6 7.9-14.8 14.2-20.9 10.5-10.1 24.1-16.8 37.7-22.5 22.8-9.7 46.6-17.4 70.5-19.5 23.9-2.1 47.9 1.8 65.6 14 14 9.6 23.5 23.7 29.4 39.2 5.9 15.5 8.5 32.3 10.1 49.2 1.1 11.8 1.8 24.2-2.2 36.3z"/><path fill="#4c5c75" d="M235 177.6c-.1 0-.1 0-.2-.1s-.1-.2 0-.3c.8-.7 1.5-1.4 2.1-2.1.1-.1.2-.1.3 0 .1.1.1.2 0 .3-.7.7-1.4 1.5-2.1 2.1 0 .1-.1.1-.1.1zm-113.3-18.7c-.1 0-.1 0-.2-.1l-.2-.3c-.5-.7-.9-1.5-1.3-2.3 0-.1 0-.2.1-.3.1 0 .2 0 .3.1.4.8.8 1.6 1.2 2.3l.2.3c.1.1 0 .2-.1.3zm-2.9-6.3c-.1 0-.2-.1-.2-.1-.3-1-.5-1.9-.7-2.9 0-.1.1-.2.2-.2s.2.1.2.2c.2 1 .4 1.9.7 2.9 0-.1-.1 0-.2.1zm8.1-24.6c-.1 0-.1 0-.2-.1s0-.2.1-.3c.8-.5 1.7-.9 2.7-1.4.1 0 .2 0 .3.1 0 .1 0 .2-.1.3-.9.4-1.8.9-2.7 1.3l-.1.1zm6.4-2.7c-.1 0-.2-.1-.2-.1 0-.1 0-.2.1-.3.9-.3 1.8-.5 2.9-.8.1 0 .2 0 .2.1s0 .2-.1.2c-1 .3-2 .6-2.9.9zm68.8-9.4c-.1 0-.1 0-.2-.1s0-.2.1-.3c.9-.5 1.7-1.1 2.5-1.7.1-.1.2 0 .3 0 .1.1 0 .2 0 .3-.8.6-1.6 1.2-2.5 1.7l-.2.1zm5.4-4.4s-.1 0-.1-.1c-.1-.1-.1-.2 0-.3.7-.7 1.3-1.5 1.9-2.3.1-.1.2-.1.3-.1.1.1.1.2.1.3-.6.8-1.2 1.6-1.9 2.4-.2.1-.2.1-.3.1zm-2-4.7c-.1 0-.2-.1-.2-.2s.1-.2.2-.2c1 0 2-.1 3-.2.1 0 .2.1.2.2s-.1.2-.2.2c-1 .1-2 .2-3 .2zm-4-.5c-1.1-.2-2-.5-2.9-.9-.1 0-.1-.2-.1-.3 0-.1.2-.1.3-.1.9.4 1.8.7 2.8.9.1 0 .2.1.2.2-.1.2-.2.2-.3.2zm9.8-.6c-.1 0-.1 0 0 0-.2-.1-.2-.2-.2-.3.4-.9.6-1.9.8-2.8 0-.1.1-.2.2-.2s.2.1.2.2c-.2 1-.5 2-.9 2.9 0 .1-.1.2-.1.2zm1.1-.1c-.1 0-.2-.1-.2-.1 0-.1 0-.2.1-.3.9-.3 1.8-.7 2.7-1.2.1-.1.2 0 .3.1.1.1 0 .2-.1.3-.9.4-1.8.8-2.8 1.2zm-17.1-2.3h-.1c-.4-.3-.7-.7-1.1-1-.3-.4-.7-.8-1-1.2-.1-.1 0-.2.1-.3.1-.1.2 0 .3.1l.9 1.2c.3.4.7.7 1 1 .1.1.1.2 0 .3 0-.1 0-.1-.1-.1zm23.1-1.2c-.1 0-.1 0-.2-.1s-.1-.2 0-.3c.8-.6 1.5-1.3 2.2-2 .1-.1.2-.1.3 0 .1.1.1.2 0 .3-.7.7-1.5 1.4-2.2 2 0 .1 0 .1-.1.1zm-5.9-3.3c-.1 0-.2-.1-.2-.2 0-1-.1-2-.3-2.9 0-.1.1-.2.2-.2s.2.1.2.2c.2 1 .3 2 .3 3 0 0-.1.1-.2.1zm-20.8-1.3c-.1 0-.2-.1-.2-.2-.2-1-.4-2-.4-3 0-.1.1-.2.2-.2s.2.1.2.2c0 1 .1 2 .4 2.9 0 .1-.1.3-.2.3zm31.5-.4h-.1c-.1-.1-.1-.2 0-.3.6-.8 1.1-1.7 1.6-2.5.1-.1.2-.1.3-.1.1.1.1.2.1.3-.5.9-1 1.8-1.6 2.6-.2-.1-.2 0-.3 0zM211 92c-.1 0-.1 0-.2-.1-.4-.9-1-1.7-1.6-2.5-.1-.1-.1-.2 0-.3.1-.1.2-.1.3 0 .6.8 1.2 1.6 1.6 2.6.1.2.1.3-.1.3zm15.4-1.2s-.1 0 0 0c-.2 0-.2-.2-.2-.3.3-.9.6-1.9.8-2.9 0-.1.1-.2.2-.2s.2.1.2.2c-.2 1-.5 2-.8 2.9-.1.3-.1.3-.2.3zm-34.4-.2c-.2-.1-.2-.2-.2-.3.4-1 .9-1.9 1.6-2.6.1-.1.2-.1.3 0 .1.1.1.2 0 .3-.6.7-1.1 1.6-1.5 2.5 0 .1-.1.1-.2.1zm14.4-3.7h-.1c-.8-.5-1.7-.9-2.7-1.2-.1 0-.2-.1-.1-.3 0-.1.1-.2.3-.1 1 .3 1.9.7 2.8 1.2.1.1.1.2.1.3-.2 0-.2.1-.3.1zm-9.6-1.1c-.1 0-.2 0-.2-.1s0-.2.1-.3c.9-.4 1.9-.6 3-.6.1 0 .2.1.2.2s-.1.2-.2.2c-1 0-1.9.2-2.9.6zm30.8-1.8c-.1 0-.2-.1-.2-.2v-.3c0-.9-.1-1.8-.2-2.7 0-.1.1-.2.2-.2s.2.1.2.2c.1.9.2 1.8.2 2.8v.3s-.1.1-.2.1z"/><path fill="#f6a285" d="M187.2 174.2c-1.8.4-3.3.4-4.6.1-.6-.1-1.2-.4-1.6-.6-.1-.1-.2-.1-.3-.2-.1-.2-.1-.4 0-.6.2-.3.4-.5.6-.6.2-.1.3-.2.5-.2.5-.1 1-.2 1.5-.2.8 0 1.5-.1 2.3-.1.6 0 1.1-.1 1.6 0 .1 0 .2 0 .3.1l-.3 2.3z"/><path fill="#fde0bb" d="M182.8 173.8c0 .2-.1.3-.2.5-.6-.1-1.2-.4-1.6-.6-.1-.1-.2-.1-.3-.2-.1-.2-.1-.4 0-.6.2-.3.4-.5.6-.6 1 .3 1.6.9 1.5 1.5z"/><path fill="#f6a285" d="m189.5 168-2 3.8c-.1 0-.2 0-.3-.1-1.3-.3-2.6-.5-3.9-.9-.6-.2-1.1-.4-1.7-.6-.1-.1-.3-.1-.4-.3-.1-.2-.1-.5 0-.7.1-.2.3-.4.5-.6.3-.2.6-.4.9-.5.6-.2 1.2-.2 1.8-.2.9 0 1.8-.1 2.7-.1.8.1 1.6 0 2.4.2z"/><path fill="#fde0bb" d="M183.6 170.3c0 .2-.1.4-.3.5-.6-.2-1.1-.4-1.7-.6-.1-.1-.3-.1-.4-.3-.1-.2-.1-.5 0-.7.1-.2.3-.4.5-.6 1.2.4 2 1.1 1.9 1.7z"/><path fill="#f6a285" d="m191.2 163.8-1.9 4.1c-1.4-.3-2.7-.6-4-1.1-.7-.2-1.3-.5-2-.8-.1-.1-.3-.1-.4-.3-.1-.2-.1-.5 0-.7.1-.2.3-.4.5-.6.3-.2.6-.3.9-.4.6-.2 1.2-.2 1.8-.2.9 0 1.8-.1 2.7-.1.9 0 1.7 0 2.4.1z"/><path fill="#fde0bb" d="M185.7 166.2c0 .2-.2.5-.4.6-.7-.2-1.3-.5-2-.8-.1-.1-.3-.1-.4-.3-.1-.2-.1-.5 0-.7.1-.2.3-.4.5-.6 1.5.3 2.4 1.1 2.3 1.8z"/><path fill="#e17659" d="M187.2 174.2c-2.4.6-4.4.4-6.3-.4-.1-.1-.3-.1-.4-.3-.1-.2 0-.4 0-.5.6-1.3 2.3-1.2 3.3-1.3h1.8c.6 0 1.2-.1 1.8.1-.6-.1-1.2 0-1.8 0l-1.8.1c-1.1 0-2.6 0-3.1 1.1-.1.3 0 .5.3.6 1.8.8 3.8 1.1 6.2.6z"/><path fill="#e17659" d="M187.5 171.8c-1.3-.2-2.6-.4-3.9-.8-.6-.2-2-.6-2.4-.9-.2-.1-.2-.4-.2-.5.1-.4.3-.7.5-.9 1-.9 2.5-.8 3.9-.8 1.9 0 3-.1 4 .2-1.3-.2-2.6 0-4 0-1.5.1-2.9 0-3.8.7-.2.2-.4.5-.5.8-.1.3.2.5.5.6 2 .8 3.9 1.2 5.9 1.6zM189.3 168c-3.1-.6-5.9-1.7-6.3-2-.2-.1-.3-.3-.3-.5 0-.4.3-.7.5-.9 1-1 2.5-.8 3.9-.9h2c.7 0 1.4 0 2 .2-1.3-.2-2.7 0-4 0-1.5.1-2.9-.1-3.8.8-.2.2-.4.5-.4.8 0 .3.3.4.6.6 1.8.7 3.7 1.4 5.8 1.9z"/><path fill="#f6a285" d="M187.4 166.1c-3.4-.1-12.2-3.9-14-3.9H172l-7.3-.1c-3.5 1.2-8.4 9.2-8.4 9.2l-23.5 37.1-7.1-23.8-8.7.8-15.3 1.4s.1.2.2.5c2 5.2 20.4 52.3 32.7 49.8 13-2.6 28.8-53.7 28.8-53.7 4.1-.6 7.7-1.6 9.8-3.3 11.9 5.2 17.1-12.4 14.2-14z"/><linearGradient id="a" x1="-7409.74" x2="-7324.458" y1="1235.508" y2="1235.508" gradientTransform="rotate(8.583 3216.79 50701.836)" gradientUnits="userSpaceOnUse"><stop offset="0" stop-color="#f6a285"/><stop offset="1" stop-color="#fc6b58"/></linearGradient><path fill="url(#a)" d="M156.2 192.1c-2.1 10.3-8 19.5-12 29.3-1.9 4.7-4.6 10.1-9.6 11.1-4.3.9-8.6-2.1-10.6-6-1.9-3.9-1.8-8.5-1.1-12.8.7-4.3 1.9-8.5 2.2-12.9.3-4.4-.6-9-3.5-12.2-1.3-1.4-2.8-2.4-4.5-3.2l-15.3 1.4s.1.2.2.5c2 5.2 20.4 52.3 32.7 49.8 13-2.6 28.8-53.7 28.8-53.7s2.4-.2 4.7-1c.1-.1-9.8-1.1-12 9.7z"/><path fill="#c5adff" d="M114.2 250.6c-23.3-.3-44.3 3.2-53.7-6-3.2-3.1-3.6-9.1-2.6-16 .6-4.4 1.9-9.1 3.3-13.7 4.2-13.3 10.4-25.9 10.7-26.4-.7 0-25.6.4-30.9-4.7-1.3-1.3 7.8-24.3 14.2-29.4.1-.1.2-.2.3-.2 3.2-2.3 12.8-5 14.7-5.3.2 0 1 0 2.3.1 6.1.5 23 2.8 35 6.6 3.8 1.2 7.1 2.5 9.4 4h.1c12.8 7.5 6.8 37.8 3.9 45.1-3.9 9.9 10.8 46.1-6.7 45.9z"/><path fill="#976ff8" d="M77.1 198c-.5 2.4-1 4.9-1.4 7.3-.7 3.7-1.6 7.6-4.5 9.9-2 1.5-4.8 2-7.1 1.3-1-.3-2-.9-2.8-1.6 4.2-13.3 10.4-25.9 10.7-26.4-.7 0-25.6.4-30.9-4.7-1.3-1.3 7.8-24.3 14.2-29.4.1-.1.2-.1.3-.2 3.2-2.3 12.9-5 14.7-5.3.3.4.3.9 0 1.4-.6 1-3.3 2-4.3 2.7-1.4 1-2.7 2-4 3.1-5.1 4.4-9.5 9.5-13 15.3-1.9 3.3-3.6 6.7-4.9 10.3 9.2-2.7 19.4-1.4 27.6 3.6 2.5 1.6 5 3.7 5.8 6.5.4 2.1 0 4.2-.4 6.2z"/><path fill="#976ff8" d="M114.2 250.6c-23.3-.3-44.3 3.2-53.7-6-3.2-3.1-3.6-9.1-2.6-16 .3-.2.6-.4.9-.5 1.8-1.1 3.5-2.1 5.3-3.2.4-.3.9-.5 1.3-.8 15.2-9.2 28.3-19.1 43.5-28.2-2.8 10.5-3.7 22.1-10.4 30.7-8.7 11-23.4 17-37.3 15.1 12.9 8.4 31.2 7.5 43.2-2.2-1.5 1.6-3.1 3.7-2.4 5.8.8 2.5 4.1 2.9 6.8 2.9 2.5 0 5.2-.2 7.1-1.8 1.9-1.7 2.4-4.5 2-7.1-.4-2.5-1.6-4.8-2.5-7.2-4.2-11.1-2.7-23.6-.8-35.3.7-4.1 1.4-8.1 1.9-12.2.9-7 1.4-14.4-.1-21.3-.4-1.7-.2-2.8.5-3.7 0 0 .1 0 .1.1 12.8 7.5 6.8 37.8 3.9 45.1-3.9 9.8 10.8 46-6.7 45.8z"/><path fill="#ffb861" d="M236.1 159.6v59.3c0 6.3-5.1 11.4-11.4 11.4H131c-6.3 0-11.4-5.1-11.4-11.4v-59.3c0-2.3.7-4.5 2-6.4.5-.8 1.2-1.6 2-2.3l48.1-40.8c3.5-3 8.7-3 12.2 0L232 151c.8.7 1.5 1.5 2 2.3 1.4 1.8 2.1 4 2.1 6.3z"/><path fill="#fff" d="M221 119.6v44.1l-39.3 31.2c-1.5 1.2-3.7 1.2-5.3.1l-41.8-31.8v-43.5c0-1.9 1.6-3.4 3.4-3.4h79.6c1.9-.2 3.4 1.3 3.4 3.3z"/><path fill="#ffd375" d="M236.1 159.6v59.3c0 6.3-5.1 11.4-11.4 11.4H131c-6.3 0-11.4-5.1-11.4-11.4v-59.3c0-2.3.7-4.5 2-6.4l54.8 41.6c1.5 1.2 3.7 1.2 5.2-.1l52.4-41.5c1.4 1.9 2.1 4.1 2.1 6.4z"/><path fill="#f6a285" d="M131.7 184.9h-.2c-2.3-.7-1.9-.4-1.9-.4 3.1 4.2-3.6 3.7-3.6 3.7 1.9 2.7-2.3 3.8-2.7 3.9.3 0 2.1.2.6 2.5-1.5 2.5-12.5 2-14.2 1.8-.6-.1-1-.1-1-.1s-.2.3-.5.8c-3.7 6.2-28 45-40.2 44.5-12.5-.5-20.4-54.9-20.4-54.9 8.9 1.7 18.6 1.9 24.1 1.8l.1 2.2 1.1 22.6.6-.6.1-.1S96 188.5 104.8 182c2.3-1.7 7-3.9 10-6.1 1.4-1.1 4.6-1.9 4.6-1.9v3.9s9.8 2.1 12.4 3.4c1 .5 1.4 1.1 1.3 1.7.3 1-.9 2-1.4 1.9z"/><linearGradient id="b" x1="-7463.237" x2="-7401.832" y1="1252.903" y2="1252.903" gradientTransform="rotate(8.583 3216.79 50701.836)" gradientUnits="userSpaceOnUse"><stop offset="0" stop-color="#f6a285"/><stop offset="1" stop-color="#fc6b58"/></linearGradient><path fill="url(#b)" d="M108.3 197.1c-3.8 6.2-28 45-40.2 44.5-12.5-.5-20.4-54.9-20.4-54.9 8.9 1.7 18.5 1.9 24.1 1.8l.1 2.2c-3.5 1.3-7.4 1.5-11 .4-2.9-.9-6.4-2.4-8.6-.3-1.9 1.8-1.4 4.9-.6 7.4 3 10.2 6 20.5 8.9 30.7 1.1 3.8 2.7 8.2 6.4 9.6 4.2 1.6 8.7-1.3 11.7-4.6 6-6.5 9.8-14.7 14.7-22.1 3.8-6 8.7-11.6 14.9-14.7z"/><linearGradient id="c" x1="-7400.456" x2="-7379.115" y1="1220.08" y2="1220.08" gradientTransform="rotate(8.583 3216.79 50701.836)" gradientUnits="userSpaceOnUse"><stop offset="0" stop-color="#f6a285"/><stop offset="1" stop-color="#fc6b58"/></linearGradient><path fill="url(#c)" d="M131.7 184.9h-.2c-1.1-.3-1.9-.4-1.9-.4 3.1 4.2-3.6 3.7-3.6 3.7 1.9 2.7-2.3 3.8-2.7 3.9.3 0 2.1.2.6 2.5-1.5 2.5-12.5 2-14.2 1.8 1.2-.5 2.4-.9 3.6-1.2 2.6-.6 5.5-.8 7.6-2.6 1.9-1.6 2.6-4.2 4.1-6.1 2-2.4 5.2-3.5 8.3-3.5.1 1-1.1 2-1.6 1.9z"/><path fill="#4c5c75" d="M119.8 146.6c1.4-1.3 2.3-2.9 2.6-4.8-1.5-7.7 6.8-12.8 2-19.9-4.8-7-1-15.2-1.2-20.2-.5-12.8-24.2-10.2-27.6-9.7h-.4c-10.4-2.9-23.3 2.6-25.8 13.3-.2.7-.3 1.4-.4 2.1-1.1 12.1-3 13.9-3 13.9s-5.1 2.3-8.4 6.3c-1 1.2-1.9 2.6-2.3 4.1-4.8 15.3 51.4 27.2 64.5 14.9z"/><path fill="#111d33" d="M119.8 146.6c-1.9.7-4 1.2-6 1.3-1.5.1-3 0-4.3-.7-1.3-.7-2.2-2.2-1.9-3.7.3-1.3 1.6-2.2 2.9-2.7 1.3-.4 2.7-.6 4-1.1 2.6-1 4.3-3.4 5.2-6 .9-2.6 1-5.4 1-8.1.1-3.2.7-16-4.1-22-1.5-1.9-2.3 10.3-4.8 10.4-2.4.1-4.8.9-7.1 1.8-5.1 1.8-10.1 3.6-15.2 5.4-1.1.4-2.2.8-3.1 1.6-2.6 2.4 0 6.3-.4 9.3-.3 3.2-2 6.2-4.7 8-3.5 2.3-8.1 2.4-12.3 2.3-2.5 0-5.1-.1-7.2-1.5-2.4-1.6-3.5-5-2.4-7.7s4-2.8 7-4.1c2.5-1.1-5.2-1.5-7.9-1.5-.4 0-.7 0-1.1.1-1 1.2-1.9 2.6-2.3 4.1-4.6 15.2 51.6 27.1 64.7 14.8z"/><path fill="#976ff8" d="M107.4 155.5c-.8 8.1-3 15.9-9.7 15.9-5.4 0-12-5.7-23.5-20.2l-1.8-2.3c6.1.6 22.9 2.8 35 6.6z"/><path fill="#f6a285" d="m106.9 131.7-1.1 9.5-1.1 10c-1.4 26.1-10.7 20.4-28.2-1.8 0 0 10.6-2.9 13.1-10 1.1-3.3 1.4-6 1.3-8.2-.1-3.9-1.4-6-1.4-6l17.4 6.5z"/><path fill="#e17659" d="m106.9 131.7-1.1 9.5c-1.3-.2-2.6-.5-4.1-1-5.5-1.8-8-6.6-10-10.4-.1-3.9-2.2-4.6-2.2-4.6l17.4 6.5z"/><path fill="#f6a285" d="M101.8 137.3c-8.3-2.7-11.7-9-13-15.1 12.6-9.2 12.4-20.7 11.7-25.2 4.6.1 12.6 1.1 16 6.4 4.3 6.6 2.3 12.5 2.3 16.8.1 6.2 1.7 23.2-17 17.1z"/><path fill="#f6a285" d="M91.8 123.2c-.4 2.6-2.8 4.3-5.3 3.9-2.6-.4-4.3-2.7-3.9-5.3.4-2.5 2.7-4.3 5.3-3.9 2.6.4 4.3 2.8 3.9 5.3z"/><path fill="#e17659" d="M86.7 125.5c.2 0 .4 0 .5-.1.4-.2.7-.8.6-1.3-.1-.4-.4-.8-.9-1-.2-.1-.4-.2-.6-.2-.2-.1-.3-.1-.5-.2s-.6-.3-.7-.7c-.1-.3 0-.6.1-.8.4-.8 1.3-1.3 2.1-1.3.9 0 1.7.6 2 1.4 0 .1.2.2.3.1.1 0 .2-.2.1-.3-.4-1-1.4-1.7-2.4-1.8-1 0-2.1.6-2.6 1.5-.1.3-.3.7-.1 1.2.2.5.6.8.9.9.2.1.4.1.5.2.2.1.4.1.6.2.2.1.6.3.7.7.1.3-.1.6-.3.7-.2.1-.6.1-.8-.1-.1-.1-.2-.1-.3 0-.1.1-.1.2 0 .3.2.5.5.6.8.6z"/><path fill="#e17659" d="M89.8 124.4c.1 0 .2-.1.2-.2 0-.4-.3-.8-.6-1-.2-.1-.4-.2-.6-.2-.1 0-.2-.1-.3-.1-.7-.3-1.2-1.1-1.2-1.8 0-.1-.1-.3-.2-.2-.1 0-.2.1-.2.2 0 .9.6 1.8 1.5 2.2.1.1.2.1.4.1.2.1.3.1.5.2s.4.3.3.5c0 .2.1.3.2.3zM112.8 123c-.2 1.2-1.2 2-2.4 1.8-1.1-.2-1.9-1.3-1.7-2.5.2-1.2.9.5 2.1.6 1.1.3 2.2-1.1 2 .1zM113.1 129.2c.3-.1.6.2.5.5-.4 1.5-1.8 2.5-3.4 2.2-1.5-.2-2.8-1.5-3.2-3-.1-.4.3-.6.6-.4 1.8 1.2 3.6 1.5 5.5.7z"/><path fill="#894852" d="M108.9 112.1c-.5.4-1.7 0-4.1-.9-3-1.2-6.1 1.1-6.2 1.1h-.1s-.1 0-.1-.1c-.1-.1-.1-.2 0-.2 2.5-2.5 5.4-3.7 7.8-3.2 1.4.3 2.4 1.1 2.8 2.2.1.3.2.8-.1 1.1z"/><path fill="#111d33" d="M105.2 116.3c-.1.7-.8 1.2-1.5 1.1-.7-.1-1.2-.8-1.1-1.5.1-.7.8-1.2 1.5-1.1.7.1 1.2.8 1.1 1.5z"/><path fill="#fff" d="M104.7 116.3c0 .2-.3.4-.5.4s-.4-.3-.4-.5.3-.4.5-.4c.3 0 .4.3.4.5z"/><path fill="#111d33" d="M107.8 116.2c0 .1-.1.1 0 0-1 .2-1.6-.1-2.5-.3-.8-.2-1.3-.5-1.7-.7-.9.5-2.4.9-3.4 1.4h-.1v-.1c.8-.7 2.4-1.7 3.3-2.1.5-.1 1.3.2 2.1.4.9.2 1.5.8 2.3 1.4-.1 0-.1 0 0 0z"/><path fill="#894852" d="M112.7 111.4c.3.4 1.3.3 3.4-.1 2.5-.5 4.6 1.8 4.7 1.8h.2c.1 0 .1-.1 0-.2-1.6-2.4-3.6-3.7-5.6-3.7-1.1 0-2 .5-2.5 1.3-.2.3-.4.7-.2.9z"/><path fill="#111d33" d="M117 116.4c-.1.7-.8 1.2-1.5 1.1-.7-.1-1.2-.8-1.1-1.5.1-.7.8-1.2 1.5-1.1.7.1 1.2.8 1.1 1.5z"/><path fill="#fff" d="M116.5 116.4c0 .2-.3.4-.5.4s-.4-.3-.4-.5.3-.4.5-.4c.3 0 .4.3.4.5z"/><path fill="#111d33" d="M119.5 116.3c0 .1 0 .1 0 0-1 .2-1.6-.1-2.5-.3-.8-.2-1.3-.5-1.7-.7-.9.5-2.4.9-3.4 1.4h-.1v-.1c.8-.7 2.4-1.7 3.3-2.1.5-.1 1.3.2 2.1.4 1 .2 1.6.8 2.3 1.4z"/><path fill="#d95073" d="M118.5 123c-.1.9-1.2 1.5-2.4 1.3-1.2-.2-2.1-1.1-1.9-2 .1-.9 1.2-1.5 2.4-1.3 1.2.2 2.1 1.1 1.9 2zM106.2 121.7c-.2 1.2-1.8 1.9-3.6 1.6-1.8-.3-3.2-1.5-3-2.6.2-1.2 1.8-1.9 3.6-1.6 1.9.2 3.2 1.4 3 2.6z" opacity=".3"/><path fill="#111d33" d="M68.7 104.8c.3-.4.7-.9 1-1.3 1.7-2.2 3.5-4.4 5.6-6.2 4.8-4.1 11.6-5.8 17.8-4.5 1.3.3 2.6.7 3.5 1.7-.6-.8-1.2-1.5-1.6-2.4-.1-.2-.2-.4-.2-.6h-.4c-10.3-2.9-23.3 2.6-25.7 13.3z"/><path fill="#f2f0fb" d="M180.5 125.8v7c0 .6-.5 1-1 1h-34.9c-.6 0-1-.5-1-1v-7c0-.6.5-1 1-1h34.9c.6 0 1 .5 1 1zM212 142.5c0 .9-.7 1.7-1.7 1.7h-65.1c-.9 0-1.7-.7-1.7-1.7 0-.9.7-1.7 1.7-1.7h65.1c.9 0 1.7.8 1.7 1.7zM212 149.9c0 .9-.7 1.7-1.7 1.7h-65.1c-.9 0-1.7-.7-1.7-1.7 0-.9.7-1.7 1.7-1.7h65.1c.9 0 1.7.8 1.7 1.7zM212 157.3c0 .9-.7 1.7-1.7 1.7h-65.1c-.9 0-1.7-.7-1.7-1.7 0-.9.7-1.7 1.7-1.7h65.1c.9 0 1.7.8 1.7 1.7zM202.9 164.7c0 .9-.7 1.7-1.7 1.7h-56c-.9 0-1.7-.7-1.7-1.7 0-.9.7-1.7 1.7-1.7h56c1 0 1.7.7 1.7 1.7zM190.8 172.1c0 .9-.7 1.7-1.7 1.7h-22.7c-.9 0-1.7-.7-1.7-1.7 0-.9.7-1.7 1.7-1.7h22.7c1 0 1.7.7 1.7 1.7z"/><path fill="#f35170" d="M229.1 123.1c0 6.3-5.1 11.3-11.3 11.3-6.3 0-11.3-5.1-11.3-11.3 0-6.3 5.1-11.3 11.3-11.3 6.2 0 11.3 5.1 11.3 11.3z"/><path fill="#6eb854" d="M170.1 82.4c-1.2 7.2-6.3 13.3-13.1 15.8-5.5 2-11 1.5-15.5-.6l-6.7 3.1c-1 .5-2.1-.5-1.8-1.6l1.9-6.5c-3.9-4.3-6-10.3-5-16.8 1.3-8.8 8.4-15.9 17.2-17.2 13.6-1.8 25.3 10 23 23.8z"/><path fill="#4b9434" d="M164.9 79c0 8.3-6.7 15-15 15s-15-6.7-15-15 6.7-15 15-15 15 6.7 15 15z"/><path fill="#fff" d="m146.8 82.8-2.8-3.4c-.7-.8-.5-2 .3-2.6.8-.7 2-.5 2.6.3l1.6 2 4.9-4c.8-.6 2-.5 2.6.3.7.8.5 2-.3 2.6l-6.3 5.2c-.8.5-2 .3-2.6-.4z"/><path fill="#f2f0fb" d="m260.8 49.4-17.3 32.7c-.3.5-.9.7-1.4.3l-25.6-19c-.6-.5-.5-1.4.3-1.6L259.7 48c.8-.2 1.5.6 1.1 1.4z"/><path fill="#cfcdf1" d="m227.4 79.7-1-8.9 28.6-18-25.2 20.5z"/><path fill="#aaaada" d="m227.4 79.7 4.6-4.8-2.2-1.6z"/><path fill="#fff" d="M220.2 125.3h-1v-6.2c0-.9-1.1-1.3-1.7-.7l-2.1 2c-.4.4-.4 1 0 1.4.4.4 1 .4 1.4 0l.4-.4v3.9h-1.1c-.6 0-1 .4-1 1s.4 1 1 1h4c.6 0 1-.4 1-1 .1-.5-.4-1-.9-1z"/></svg>