<svg xmlns="http://www.w3.org/2000/svg" xmlns:xlink="http://www.w3.org/1999/xlink" viewBox="0 0 200 200"><defs><linearGradient id="c" x1="89.787" x2="70.332" y1="49.113" y2="117.54" gradientUnits="userSpaceOnUse"><stop offset="0" stop-color="#fff"/><stop offset=".375" stop-color="#9b9b9b"/><stop offset=".807" stop-color="#2c2c2c"/><stop offset="1"/></linearGradient><linearGradient id="d" x1="119.273" x2="134.368" y1="119.269" y2="168.243" gradientUnits="userSpaceOnUse"><stop offset="0" stop-color="#fff"/><stop offset=".014" stop-color="#f9f9f9"/><stop offset=".177" stop-color="#b8b8b8"/><stop offset=".338" stop-color="gray"/><stop offset=".493" stop-color="#525252"/><stop offset=".64" stop-color="#2e2e2e"/><stop offset=".777" stop-color="#151515"/><stop offset=".901" stop-color="#050505"/><stop offset="1"/></linearGradient><linearGradient id="a" x1="128.633" x2="145.75" y1="47.978" y2="70.757" gradientUnits="userSpaceOnUse"><stop offset="0" stop-color="#fff"/><stop offset=".199" stop-color="#c3c3c3"/><stop offset=".491" stop-color="#707070"/><stop offset=".732" stop-color="#343434"/><stop offset=".908" stop-color="#0e0e0e"/><stop offset="1"/></linearGradient><linearGradient id="e" x1="79.292" x2="155.042" y1="69.29" y2="152.844" xlink:href="#a"/><linearGradient id="b" x1="134.018" x2="140.787" y1="94.124" y2="94.124" gradientUnits="userSpaceOnUse"><stop offset="0" stop-color="#fff"/><stop offset=".256" stop-color="#c2c2c2"/><stop offset=".845" stop-color="#292929"/><stop offset="1"/></linearGradient><linearGradient id="f" x1="128.994" x2="157.499" y1="185.489" y2="185.489" gradientTransform="rotate(9.759 401.862 276.794)" xlink:href="#b"/><linearGradient id="g" x1="127.905" x2="157.628" y1="177.114" y2="177.114" gradientTransform="rotate(42.199 181.159 161.393)" xlink:href="#b"/><linearGradient id="h" x1="23.751" x2="47.875" y1="233.406" y2="233.406" gradientTransform="scale(-1 1) rotate(7.77 514.778 -1246.482)" xlink:href="#b"/><linearGradient id="i" x1="65.969" x2="80.863" y1="113.812" y2="113.812" gradientTransform="rotate(-34.418 85.096 60.654)" xlink:href="#b"/><linearGradient id="j" x1="74.092" x2="131.707" y1="90.724" y2="154.307" gradientUnits="userSpaceOnUse"><stop offset="0" stop-color="#fff"/><stop offset=".107" stop-color="#dfdfdf"/><stop offset=".439" stop-color="#818181"/><stop offset=".709" stop-color="#3b3b3b"/><stop offset=".902" stop-color="#101010"/><stop offset="1"/></linearGradient><linearGradient id="k" x1="45.744" x2="63.454" y1="69.18" y2="69.18" xlink:href="#a"/><linearGradient id="l" x1="75.852" x2="93.99" y1="52.584" y2="52.584" xlink:href="#a"/><linearGradient id="m" x1="37.547" x2="47.316" y1="106.564" y2="106.564" xlink:href="#a"/></defs><g data-name="Layer 1"><g data-name="Online Courses"><path fill="#b2ebf2" d="M112.982 171.588c-1.377 0-2.755-.042-4.049-.126a61.57 61.57 0 0 1-6.512-.626 18.848 18.848 0 0 1-2.212-.334 20.277 20.277 0 0 1-2.296-.417 31.812 31.812 0 0 1-1.92-.46c-.125-.041-.25-.041-.376-.083-.668-.167-1.336-.334-1.962-.542a54.27 54.27 0 0 1-3.924-1.378c-.626-.25-1.21-.5-1.794-.751q-1.691-.752-3.256-1.628a41.293 41.293 0 0 1-4.717-3.006q-.94-.689-1.754-1.377a38.871 38.871 0 0 1-2.337-2.171c-.501-.46-.919-.918-1.378-1.42-.542-.542-1.043-1.126-1.544-1.71 0-.042-.042-.042-.042-.084-.042-.042-.083-.125-.125-.167a35.832 35.832 0 0 1-2.463-3.173c-5.093-7.305-8.265-15.778-11.354-24.043-.543-1.461-1.044-2.88-1.586-4.3q-1.378-3.694-2.88-7.138a65.939 65.939 0 0 0-3.84-7.68 35.028 35.028 0 0 0-2.756-4.091 28.085 28.085 0 0 0-15.988-10.77C.444 86.182 42.645 30.706 87.144 50.783a10.04 10.04 0 0 1 .96.46 53.466 53.466 0 0 1 9.226 5.468 69.406 69.406 0 0 1 8.64 7.472c20.287 20.37 42.995 9.142 57.48 21.832 4.216 3.673 7.764 9.392 10.31 18.408 10.186 35.649-23.71 67.373-60.777 67.165Z"/><path d="M129.846 116.737c-.042 3.716-.793 7.556-2.964 10.52a13.045 13.045 0 0 1-1.795 1.92 22.168 22.168 0 0 1-9.684 4.592c-5.97 1.377-12.397 1.544-18.033-.835a27.143 27.143 0 0 1-3.923-2.087 42.654 42.654 0 0 1-4.175-3.048c-3.882-3.089-7.514-6.512-11.938-8.724a28.932 28.932 0 0 0-10.186-2.797 51.468 51.468 0 0 0-12.647.376 65.939 65.939 0 0 0-3.84-7.68 35.028 35.028 0 0 0-2.756-4.092 28.085 28.085 0 0 0-15.988-10.769C.444 86.182 42.645 30.706 87.144 50.783a52.704 52.704 0 0 0-.041 8.892c.584 6.679 2.963 13.483 7.764 18.158 5.677 5.594 13.942 7.514 20.62 11.897a32.711 32.711 0 0 1 14.36 27.007Z" style="mix-blend-mode:overlay" fill="url(#c)"/><path d="M112.982 171.588c-1.377 0-2.755-.042-4.049-.126a61.57 61.57 0 0 1-6.512-.626 18.848 18.848 0 0 1-2.212-.334 20.277 20.277 0 0 1-2.296-.417 31.812 31.812 0 0 1-1.92-.46c-.125-.041-.25-.041-.376-.083-.668-.167-1.336-.334-1.962-.542a54.27 54.27 0 0 1-3.924-1.378c-.626-.25-1.21-.5-1.794-.751q-1.691-.752-3.256-1.628a41.293 41.293 0 0 1-4.717-3.006q-.94-.689-1.754-1.377a38.871 38.871 0 0 1-2.337-2.171c-.501-.46-.919-.918-1.378-1.42-.542-.542-1.043-1.126-1.544-1.71 0-.042-.042-.042-.042-.084-.042-.042-.083-.125-.125-.167a35.832 35.832 0 0 1-2.463-3.173c.084-.208.125-.417.209-.626a31.204 31.204 0 0 1 7.305-12.898 21.267 21.267 0 0 1 2.087-1.837 31.91 31.91 0 0 1 13.525-5.927 76.922 76.922 0 0 1 15.486-1.42c5.385-.041 10.812.042 16.155-.25a70.98 70.98 0 0 0 13.942-1.92c9.81-2.505 19.285-8.432 23.292-17.7 2.38-5.551 2.505-11.73 1.795-17.656a37.43 37.43 0 0 1-.668-5.886c4.216 3.673 7.764 9.392 10.31 18.408 10.186 35.649-23.71 67.373-60.777 67.165Z" style="mix-blend-mode:overlay" fill="url(#d)"/><path fill="#b2ebf2" d="M150.493 55.74a16.025 16.025 0 1 1-16.025-16.025 15.783 15.783 0 0 1 8.135 2.236 15.985 15.985 0 0 1 7.89 13.789ZM115.237 44.164a7.042 7.042 0 1 1-7.042-7.042 7.042 7.042 0 0 1 7.042 7.042ZM161.539 69a3.174 3.174 0 1 1-3.174-3.173A3.174 3.174 0 0 1 161.539 69ZM141.09 30.476a2.064 2.064 0 1 1-2.064-2.065 2.064 2.064 0 0 1 2.064 2.065Z"/><path d="M150.493 55.74a16.027 16.027 0 0 1-31.903 2.188 4.713 4.713 0 0 1 .836-.885 8.83 8.83 0 0 1 3.023-1.549c4.817-1.573 10.274-1.081 14.722-3.564a10.163 10.163 0 0 0 5.432-9.978 15.985 15.985 0 0 1 7.89 13.788Z" style="mix-blend-mode:overlay" fill="url(#a)"/><path fill="#1f4b6f" d="M150.35 81.791v67.843c0 2.057-3.628 6.713-5.685 6.713l-1.942-.143-38.963-2.856a3.82 3.82 0 0 1-2.628-1.086 4.334 4.334 0 0 1-.8-1.228 3.32 3.32 0 0 1-.286-1.4l-.285-9.998v-.285l-1.629-56.702a.258.258 0 0 1 .03-.143c.285-.857 2.684-2.857 4.312-3.857a3.41 3.41 0 0 1 1.286-.57h42.876a3.706 3.706 0 0 1 3.714 3.713Z"/><path fill="#a5b7c5" d="M147.779 84.648v67.843a3.725 3.725 0 0 1-3.713 3.713h-42.877a3.648 3.648 0 0 1-2.628-1.085 3.718 3.718 0 0 1-1.086-2.628V84.648a3.819 3.819 0 0 1 .686-2.142 3.284 3.284 0 0 1 .4-.486 3.768 3.768 0 0 1 2.628-1.085h42.877a3.743 3.743 0 0 1 3.713 3.713Z"/><path fill="#fff" d="M99.761 86.132h45.724v64.894H99.76Z"/><path d="M150.35 128.267v21.367c0 2.057-3.628 6.713-5.685 6.713l-1.942-.143h-41.534a3.648 3.648 0 0 1-2.628-1.085 3.718 3.718 0 0 1-1.086-2.628v-10.627a37.34 37.34 0 0 1 2.286-2.485v-.028a55.448 55.448 0 0 1 9.712-7.999c3.685-2.37 7.713-4.313 10.883-7.312 3.2-3.028 5.513-7.456 4.57-11.712-.999-4.6-5.227-7.598-8.74-10.74a46.039 46.039 0 0 1-11.14-15.455 41.993 41.993 0 0 1-1.915-5.198c-.257-.743-.457-1.514-.657-2.286a3.41 3.41 0 0 1 1.286-.57h42.048c-.257.228-.486.456-.714.685a23.466 23.466 0 0 0-1.943 2.17 18.311 18.311 0 0 0-1.942 2.972 19.015 19.015 0 0 0-.885 2.227 31.734 31.734 0 0 0-.8 2.943 42.953 42.953 0 0 0 3.999 28.65c.6 1.172 1.285 2.314 1.97 3.429a144.824 144.824 0 0 0 2.286 3.456c.857 1.228 1.714 2.428 2.57 3.656Z" style="mix-blend-mode:overlay" fill="url(#e)"/><path d="M127.42 91.093H90.6a5.12 5.12 0 0 0-5.371 4.863v55.528a5.12 5.12 0 0 0 5.37 4.863h36.821a5.12 5.12 0 0 0 5.37-4.863V95.956a5.12 5.12 0 0 0-5.37-4.863Z" opacity=".1"/><path fill="#3fccdf" d="m137.576 97.504-.471 1.156-2.266 5.59-.427-1.84-1.591 1.022 2.249-5.546.488-1.199 2.018.817zM142.517 103.432l-1.591-1.022-.435 1.84-2.266-5.59-.471-1.156 2.026-.817.48 1.191 2.257 5.554z"/><path fill="#f77048" d="M142.236 94.137a4.536 4.536 0 0 1-1.974 3.747 2.381 2.381 0 0 1-.424.25 4.594 4.594 0 0 1-1.624.524 6.077 6.077 0 0 1-1.099 0 4.858 4.858 0 0 1-2.048-.774 4.53 4.53 0 0 1-1.05-1.024 4.264 4.264 0 0 1-.724-1.424 4.419 4.419 0 0 1-.2-1.3 4.562 4.562 0 0 1 1.3-3.172 4.447 4.447 0 0 1 3.272-1.398 4.571 4.571 0 0 1 4.571 4.57Z"/><path fill="#fff" d="M140.705 94.13a3.038 3.038 0 1 1-3.038-3.037 3.038 3.038 0 0 1 3.038 3.038Z"/><path fill="#f77048" d="m137.896 92.582.307.945a.147.147 0 0 0 .14.102h.994a.147.147 0 0 1 .086.266l-.804.584a.147.147 0 0 0-.053.164l.307.945a.147.147 0 0 1-.226.165l-.804-.584a.147.147 0 0 0-.173 0l-.804.584a.147.147 0 0 1-.226-.165l.307-.945a.147.147 0 0 0-.054-.164l-.804-.584a.147.147 0 0 1 .087-.266h.994a.147.147 0 0 0 .14-.102l.307-.945a.147.147 0 0 1 .28 0Z"/><path d="M139.064 93.537a2.504 2.504 0 0 0-.175.974c.05.75.7 1.35.974 2.074a2.352 2.352 0 0 1-.025 1.549 4.594 4.594 0 0 1-1.624.524 6.077 6.077 0 0 1-1.099 0 4.858 4.858 0 0 1-2.048-.774 4.53 4.53 0 0 1-1.05-1.024 5.79 5.79 0 0 0 1.95-.775 2.224 2.224 0 0 0 .948-2.598c-.4-.824-1.399-1.149-2.048-1.823a2.658 2.658 0 0 1-.475-.7 4.447 4.447 0 0 1 3.273-1.398 4.507 4.507 0 0 1 3.122 1.249l-.15.15a8.024 8.024 0 0 0-1.573 2.572Z" style="mix-blend-mode:overlay" fill="url(#b)" opacity=".5"/><path fill="#fff" d="M135.021 83.663a1.162 1.162 0 1 1-1.161-1.128 1.145 1.145 0 0 1 1.161 1.128Z"/><path d="m125.195 96.908-.154-.008-.12-.023-.087-.038-.051-.054-.018-.069.018-.084.051-.1.086-.114.12-.13Z"/><path fill="#20d8f7" d="M49.924 89.905c0 .05-.008.092-.018.092s-.019-.041-.019-.092.009-.092.019-.092.018.04.018.092Z"/><path fill="#f98d6d" d="M169.296 145.39c1.698.21 7.082-.68 6.991.561-.058.892-1.877 4.32-4.265 6.613a7.984 7.984 0 0 1-2.981 1.932c-5.213 1.643-8.102.818-9.924-1.052-1.651-1.677-1.664-3.03-2.925-4.354a4.829 4.829 0 0 0-.447-.418.893.893 0 0 0-.231-.163c-1.724-1.252-4.354-.967-6.411-4.885-1.367-2.611-.278-5.77.843-7.598.642-1.037 1.278-1.637 1.476-1.44a3.818 3.818 0 0 1 .126 1.811c-.03 1.443-.026 3.328 1.178 4.108 1.927 1.26 1.718 2.317 2.28.952.55-1.366-1.133-1.273-1.505-3.713a3.494 3.494 0 0 1 .005-.9 9.733 9.733 0 0 1 1.501-3.73 7.037 7.037 0 0 1 2.723-2.809c1.51-.437-.749 2.37.654 4.537a14.586 14.586 0 0 0 .962 1.313c.728.849 1.322 1.128 1.684.767a1.024 1.024 0 0 0 .263-.419c.41-1.186-3.113-6.83-.235-7.92 2.89-1.086 5.696-1.04 4.877.307-.821 1.36-2.37 3.539-1.276 4.082 1.11.532 1.897-.152 2.013-2.016.118-1.878-.59-3.393.582-3.86a12.5 12.5 0 0 1 1.71-.416 26.179 26.179 0 0 1 6.417-.549c1.294.1 2.246.441 2.38 1.174a40.826 40.826 0 0 1 .482 7.99 3.863 3.863 0 0 1-.453 1.998c-.863.89-3.31-1.553-4.53-.493-1.208 1.062-1.645 2.653 1.662 2.32 3.305-.318 5.42.086 3.098 2.95-2.336 2.863-5.308 2.201-7.088 1.827-1.79-.39-3.334 1.283-1.636 1.494Z"/><path fill="#fff" d="m174.59 131.048-.046.033c-2.506 1.863-5.172 3.944-7.788 6.294a65.67 65.67 0 0 0-10.564 11.715 46.35 46.35 0 0 0-5.579 10.84.195.195 0 0 1-.042.087.461.461 0 0 1-.406.217.372.372 0 0 1-.117-.033.443.443 0 0 1-.272-.566c.02-.038.027-.077.047-.115a46.985 46.985 0 0 1 5.69-11.01 64.765 64.765 0 0 1 9.4-10.66l.293-.278a75.387 75.387 0 0 1 2.43-2.135c2.164-1.868 4.355-3.566 6.422-5.109a.447.447 0 0 1 .626.094.317.317 0 0 1 .06.133.428.428 0 0 1-.154.493Z"/><path d="M167.73 138.62a7.3 7.3 0 0 0-1.104 6.339c.92 2.985 3.726 5.01 5.396 7.605a7.984 7.984 0 0 1-2.981 1.932c-5.213 1.643-8.102.818-9.924-1.052-1.651-1.677-1.664-3.03-2.925-4.354a46.35 46.35 0 0 0-5.579 10.84.195.195 0 0 1-.042.087c-.26-.154-.503-.332-.748-.497a46.985 46.985 0 0 1 5.69-11.01c-1.723-1.253-4.353-.968-6.41-4.886-1.367-2.611-.277-5.77.843-7.598.539.12 1.063.251 1.602.371-.03 1.443-.026 3.328 1.178 4.108 1.927 1.26 1.718 2.317 2.28.952.55-1.366-1.133-1.273-1.505-3.713a3.494 3.494 0 0 1 .005-.9c1.275.287 2.535.586 3.81.873 2.51.568 5.315 1.092 7.597.133a5.866 5.866 0 0 0 1.025-.562 5.702 5.702 0 0 0 1.698-1.851 12.118 12.118 0 0 0 1.468-5.442 12.258 12.258 0 0 0-.14-3.315 26.179 26.179 0 0 1 6.417-.549c1.294.1 2.246.441 2.38 1.174a40.826 40.826 0 0 1 .482 7.99 11.542 11.542 0 0 1-1.21.051 32.346 32.346 0 0 0-3.68.036 8.234 8.234 0 0 0-5.623 3.239Z" style="mix-blend-mode:overlay" fill="url(#f)"/><path fill="#fcc6b6" d="M148.955 161.174a7.503 7.503 0 0 0-1.498-3.371 55.366 55.366 0 0 0-5.868-7.095 27.462 27.462 0 0 0-3.547-3.23c-2.02-1.408-3.98-6.827-4.937-9.773-.363-1.177-.582-1.958-.582-1.958s8.18 1.274 13.477 6.62c4.392 4.445 3.527 14.466 3.104 17.737-.078.685-.149 1.07-.149 1.07Z"/><path fill="#fff" d="M149.088 161.626a.461.461 0 0 1-.578-.312v-.014l-.008-.007a65.721 65.721 0 0 0-1.045-3.49 67.183 67.183 0 0 0-2.479-6.525 40.39 40.39 0 0 0-2.433-4.722c-.263-.41-.519-.815-.789-1.218a17.086 17.086 0 0 0-2.47-2.928.152.152 0 0 1 .205-.225 15.964 15.964 0 0 1 2.044 2.184c.497.636.952 1.287 1.395 1.953a38.777 38.777 0 0 1 2.598 4.7 59.307 59.307 0 0 1 2.116 4.938 86.383 86.383 0 0 1 1.46 4.144l.296.944a.465.465 0 0 1-.312.578Z"/><path d="M149.088 161.626a.461.461 0 0 1-.578-.312v-.014l-.008-.007a65.721 65.721 0 0 0-1.045-3.49 55.366 55.366 0 0 0-5.868-7.096c0-.264.002-.527.016-.792a25.431 25.431 0 0 0 .151-4.577 5.973 5.973 0 0 0-.18-.839c-.015-.04-.025-.089-.04-.13a9.43 9.43 0 0 0-3.36-4.238 10.125 10.125 0 0 0-5.071-2.426c-.363-1.177-.582-1.958-.582-1.958s8.18 1.274 13.477 6.62c4.392 4.445 3.527 14.466 3.104 17.737l.296.944a.465.465 0 0 1-.312.578Z" style="mix-blend-mode:overlay" fill="url(#g)"/><path fill="#fcc6b6" d="M148.93 161.262a6.09 6.09 0 0 1 2.55-1.57 44.932 44.932 0 0 1 7.184-2.057 22.293 22.293 0 0 1 3.856-.534c1.999-.016 5.797-2.744 7.789-4.277.783-.622 1.288-1.044 1.288-1.044s-6.061-2.901-12.06-1.753c-4.979.96-8.999 8.066-10.217 10.45-.261.494-.39.785-.39.785Z"/><path fill="#fff" d="M148.633 161.503a.374.374 0 0 0 .53.056l.007-.009h.008c.74-.64 1.516-1.252 2.301-1.858.357-.273.713-.547 1.079-.814a54.486 54.486 0 0 1 3.575-2.416 32.778 32.778 0 0 1 3.795-2.045c.365-.154.721-.307 1.087-.453a13.863 13.863 0 0 1 2.997-.827.123.123 0 0 0-.033-.245 12.95 12.95 0 0 0-2.372.525c-.624.197-1.227.424-1.83.667a31.47 31.47 0 0 0-3.895 1.954 48.145 48.145 0 0 0-3.683 2.335 70.263 70.263 0 0 0-2.878 2.104l-.632.496a.378.378 0 0 0-.056.53Z"/><path d="M148.633 161.503a.374.374 0 0 0 .53.056l.007-.009h.008c.74-.64 1.516-1.252 2.301-1.858a44.932 44.932 0 0 1 7.184-2.057c.121-.177.241-.354.353-.538a20.642 20.642 0 0 1 1.999-3.133 4.853 4.853 0 0 1 .505-.48c.03-.02.058-.047.087-.067a7.652 7.652 0 0 1 4.195-1.296 8.216 8.216 0 0 1 4.507.703c.783-.621 1.288-1.044 1.288-1.044s-6.061-2.901-12.06-1.753c-4.979.96-8.999 8.066-10.217 10.45l-.63.496a.378.378 0 0 0-.057.53Z" style="mix-blend-mode:overlay" fill="url(#h)"/><path fill="#1f4b6f" d="M151.866 146.862a3.976 3.976 0 0 0-1.407 2.343 11.398 11.398 0 0 0-.983-2.99c1.999-1.372 4.043-.165 5.01-1.43.538-.705-1.617-3.155-3.677-1.664a4.33 4.33 0 0 0-1.531 2.684 48.654 48.654 0 0 0-1.239-2.296c1.454-1.544 3.427-.893 4.017-2.154.33-.704-1.969-2.397-3.453-.739a3.72 3.72 0 0 0-.811 2.453 93.472 93.472 0 0 1-.99-1.79c.276-2.005 2.058-2.909 1.633-4.273-.254-.817-3.381-.487-3.357 1.963a4.15 4.15 0 0 0 1.23 2.672c.328.607.654 1.191.97 1.749a3.177 3.177 0 0 0-1.432-.791c-2.17-.493-3.064 2.218-2.388 2.601 1.21.686 2.44-.983 4.515-.571a25.847 25.847 0 0 1 1.243 2.484 4.382 4.382 0 0 0-2.814-1.438c-2.541-.1-2.978 3.135-2.138 3.423 1.536.528 2.58-1.708 5.113-1.581a7.7 7.7 0 0 1 .557 3.517 4.27 4.27 0 0 0-2.318-2.167c-2.304-.71-3.491 2.148-2.792 2.616 1.281.86 2.785-.943 5.081-.202a7.532 7.532 0 0 1-.32 1.415 18.406 18.406 0 0 0-.623 2.459 3.36 3.36 0 0 0-1.683-1.622c-1.882-.7-3.006 1.619-2.447 2.042.991.75 2.275-.564 4.055.008a20.292 20.292 0 0 0-.255 3.419 2.287 2.287 0 0 0-1.02-.817c-1.452-.54-2.32 1.25-1.888 1.577.727.55 1.658-.337 2.928-.047.032.637.086 1.028.094 1.076a.302.302 0 0 0 .311.259l.032-.003a.302.302 0 0 0 .255-.343 15.551 15.551 0 0 1-.101-2.045c1.378-.653 2.49.335 3.221-.325.402-.363-.617-2.072-2.018-1.408a2.605 2.605 0 0 0-1.199 1.394 19.65 19.65 0 0 1 .486-3.907c1.804-.883 3.258.422 4.211-.439.52-.47-.8-2.684-2.614-1.824a3.152 3.152 0 0 0-1.385 1.44c.066-.233.136-.468.215-.705a7.587 7.587 0 0 0 .376-3.025c1.916-1.374 3.889-.207 4.816-1.42.511-.669-1.533-2.992-3.486-1.578Z"/><path fill="#fff" d="M129.754 93.16v60.988a5.34 5.34 0 0 1-5.37 5.341h-36.82a5.34 5.34 0 0 1-5.371-5.341V93.16a5.34 5.34 0 0 1 5.37-5.342h36.821a5.34 5.34 0 0 1 5.37 5.342Z"/><path fill="#3fccdf" d="M84.885 97.823v26.416h42.175V97.823h-18.897Z"/><path fill="#b2ebf2" d="M84.874 129.516h15.752v3.668H84.874ZM84.754 137.342l22.91.001v3.58l-22.91.001ZM84.61 142.891l37.495.001v3.58l-37.495.001ZM84.706 148.536h30.316v3.58l-30.316.002Z"/><path fill="#fff" d="M84.924 122.32h42.11v-1.414h-42.11Z"/><path fill="#f77048" d="M103.83 121.613a1.567 1.567 0 1 1-1.568-1.567 1.567 1.567 0 0 1 1.567 1.567Z"/><path fill="#1f4b6f" d="m112.855 107.332.019 1.934.098 4.636a4.033 4.033 0 0 1-1.314 3.044 4.074 4.074 0 0 1-2.596.99l-6.057.112a3.909 3.909 0 0 1-2.195-.615 3.97 3.97 0 0 1-1.845-3.268l-.033-1.701-.032-2.959-.039-1.746-.011-.017.003-.175 6.406-.104 3.342-.048Z"/><path fill="#f77048" d="M116.209 107.842a.346.346 0 0 1-.168.115l-.235.088-2.932 1.22-4.642 1.925-2.091.866a.606.606 0 0 1-.423-.006l-1.229-.463-3.731-1.384-1.858-.698-3.21-1.199a.558.558 0 0 1-.025-1.042l1.839-.767 5.668-2.332 2.393-1a.606.606 0 0 1 .423.006l4.18 1.57 5.849 2.174a.562.562 0 0 1 .192.927Z"/><path fill="#1f4b6f" d="M116.21 107.838a.249.249 0 0 1 .044.111c.082 1.21.088 2.31.088 3.273.011 2.416.058 3.748.923 4.205a1.308 1.308 0 0 0 .44.153.216.216 0 0 1 .177.258.224.224 0 0 1-.092.15.22.22 0 0 1-.166.026 1.925 1.925 0 0 1-.42-.123c-1.29-.523-1.3-2.215-1.312-4.663.003-.944-.004-2.011-.08-3.181-.003-.02-.004-.052-.006-.072a.228.228 0 0 1 .217-.236.233.233 0 0 1 .187.1Z"/><path fill="#f77048" d="M119.594 115.715a.655.655 0 0 1-.283.55.695.695 0 0 1-.362.119l-1.102.019a.64.64 0 0 1-.643-.512.379.379 0 0 1-.026-.133.681.681 0 0 1 .087-.33.653.653 0 0 1 .203-.226.673.673 0 0 1 .362-.119l1.09-.021a.672.672 0 0 1 .674.653Z"/><path d="M110.167 104.74a9.699 9.699 0 0 0-1.566 2.675 6.498 6.498 0 0 0-.37 3.775.72.72 0 0 0 .037.197c.557 2.106 2.324 3.678 3.39 5.559a4.074 4.074 0 0 1-2.596.99l-6.057.112a3.909 3.909 0 0 1-2.195-.615c.044-.08.083-.13.127-.21a6.904 6.904 0 0 0 .66-4.788 8.234 8.234 0 0 0-.84-2.232 9.515 9.515 0 0 0-1.474-2.044 2.58 2.58 0 0 0-.422-.4l-.011-.017a17.562 17.562 0 0 0-1.346-1.245l5.668-2.332 2.393-1a.606.606 0 0 1 .423.006Z" style="mix-blend-mode:overlay" fill="url(#i)" opacity=".5"/><path d="M129.754 131.667v22.48a5.34 5.34 0 0 1-5.37 5.342h-36.82a5.34 5.34 0 0 1-5.371-5.342v-29.793c.885-.571 1.8-1.114 2.685-1.657.2-.143.4-.257.572-.371.514-.314 1.028-.629 1.513-.943.229-.143.486-.314.715-.486a29.343 29.343 0 0 0 9.398-9.797 18.054 18.054 0 0 0 1.885-13.283 7.862 7.862 0 0 0-.229-.771c-.914-2.657-2.6-5.028-3.37-7.713a12.918 12.918 0 0 1-.315-1.514H122.7a7.871 7.871 0 0 0-.829.857 17.217 17.217 0 0 0-3.085 5.627 20.895 20.895 0 0 0-.8 3.514 28.503 28.503 0 0 0 1.086 12.197 57.477 57.477 0 0 0 4.713 10.883c.257.486.514.972.8 1.429.343.657.685 1.285 1.057 1.914.028.057.086.143.114.2 1.371 2.4 2.771 4.77 4 7.227Z" style="mix-blend-mode:overlay" fill="url(#j)"/><path d="M51.698 80.249H64.21a2.609 2.609 0 0 0 2.599-2.6v-7.97a2.609 2.609 0 0 0-2.6-2.6H51.699a2.609 2.609 0 0 0-2.6 2.6v7.97a2.609 2.609 0 0 0 2.6 2.6ZM97.329 56.711v3.047a3.091 3.091 0 0 1-3.09 3.131H82.301a3.118 3.118 0 0 1-3.089-3.13v-5.427a3.082 3.082 0 0 1 3.09-3.089h5.801a53.466 53.466 0 0 1 9.226 5.468ZM50.66 105.467v3.506a35.028 35.028 0 0 0-2.755-4.09h1.92a.908.908 0 0 1 .835.584ZM103.507 116.32a5.85 5.85 0 0 1-2.088 1.753 4.743 4.743 0 0 1-1.836.46l.042.041c-3.465 3.548-6.888 7.055-9.226 8.6a5.223 5.223 0 0 1-1.127.625 4.231 4.231 0 0 1-1.836.46 4.922 4.922 0 0 1-1.796-.418 17.947 17.947 0 0 1-5.885-3.298c.042 1.587.042 3.173.042 4.634.041 2.713.083 5.176.125 7.597 0 .918.041 1.879.041 2.797a1.216 1.216 0 0 0-.375.083l.083 5.051.292 17.532q-.939-.689-1.753-1.377a38.871 38.871 0 0 1-2.337-2.171c-.501-.46-.919-.918-1.378-1.42-.543-.542-1.043-1.126-1.544-1.71 0-.043-.042-.043-.042-.084-.042-.042-.083-.125-.125-.167l-.585-3.507-.292 2.088c-.459-.793-.96-1.587-1.377-2.38a100.871 100.871 0 0 1-5.177-10.936v-.167a1.807 1.807 0 0 0-.208-.042c-.25-3.882-.501-7.723-.418-11.646.042-1.086.126-2.171.21-3.256a26.727 26.727 0 0 1-4.634 2.337 3.652 3.652 0 0 1-1.336.292c-.543-1.46-1.044-2.88-1.586-4.299 3.13-3.047 6.261-6.053 8.306-6.97a.13.13 0 0 1 .084-.043.666.666 0 0 1 .334-.125 7.688 7.688 0 0 1 1.043-.376 14.629 14.629 0 0 1 2.296-.71 5.247 5.247 0 0 0 1.503-1.794 1.038 1.038 0 0 1 .042-.334 2.645 2.645 0 0 1-.543-.46 7.53 7.53 0 0 1-1.21-3.506 13.536 13.536 0 0 1-.752-3.965 2.479 2.479 0 0 1 .25-.585v-.167h.084a3.733 3.733 0 0 1 1.086-1.21c.375-.71.793-1.42 1.46-1.628a2.836 2.836 0 0 1 .627-.084 8.431 8.431 0 0 1 2.337.501c1.21.418 2.672.919 3.047 2.13a3.256 3.256 0 0 1 .126.917 14.422 14.422 0 0 1-1.002 4.133 8.777 8.777 0 0 1-1.336 3.214 3.65 3.65 0 0 1-.877.752c0 .083-.041.208 0 .292a3.74 3.74 0 0 0 1.336 1.878c1.294.25 2.63.626 3.966 1.002 2.045.5 5.552 3.882 9.1 7.305l9.6-6.888.042.042a1.305 1.305 0 0 1 1.127-.793h.084c.5 0 1.21.209 1.878.209a1.419 1.419 0 0 0 .585-.084c.751-.208 1.21-1.085 1.502-1.21h.084c.209 0 .292.5-.084 1.085Z" opacity=".1"/><rect width="17.71" height="13.169" x="45.744" y="62.596" fill="#f77048" rx="2.599"/><path fill="#fd5a38" d="M52.025 68.851h-.51v-.098h.51Z"/><path fill="#fff" d="M63.454 71.765v1.4a2.609 2.609 0 0 1-2.6 2.6h-12.51a2.609 2.609 0 0 1-2.6-2.6V70.05c1.628-1.257 3.256-2.485 4.656-2.485a1.916 1.916 0 0 1 .886.2c1.6.714 2.77 3.742 3.998 4.085a.834.834 0 0 0 .258.057c1.142 0 2.313-2.028 3.599-2.457a1.79 1.79 0 0 1 .543-.085c1.228 0 2.485 1.171 3.77 2.4ZM61.266 65.877a1.84 1.84 0 1 1-1.836-1.724 1.783 1.783 0 0 1 1.836 1.724Z"/><path d="M63.454 65.195v7.97a2.609 2.609 0 0 1-2.6 2.6h-12.51a2.609 2.609 0 0 1-2.6-2.6v-7.799A11.077 11.077 0 0 1 50.4 66.51c.628.286 1.228.657 1.885.886a6.802 6.802 0 0 0 2.143.285 6.18 6.18 0 0 0 3.399-1.028l.257-.171a3.653 3.653 0 0 0 1.342-2.314 2.217 2.217 0 0 0 .03-1.143c-.03-.143-.087-.286-.115-.428h1.514a2.609 2.609 0 0 1 2.6 2.6Z" style="mix-blend-mode:overlay" fill="url(#k)"/><path fill="#3fccdf" d="M93.99 49.855v5.428a3.097 3.097 0 0 1-3.084 3.114h-11.97a3.115 3.115 0 0 1-3.084-3.114v-5.428a3.09 3.09 0 0 1 3.085-3.084h11.969a3.072 3.072 0 0 1 3.084 3.084Z"/><path fill="#fff" d="M81.278 54.79v-4.436a.904.904 0 0 1 1.242-.838l5.486 2.218a.904.904 0 0 1 0 1.676l-5.486 2.218a.904.904 0 0 1-1.242-.838Z"/><path d="M93.99 49.855v5.428a3.097 3.097 0 0 1-3.084 3.114h-11.97a3.115 3.115 0 0 1-3.084-3.114v-4.17a4.626 4.626 0 0 1 4.227-.715c.4.115.8.229 1.2.372 1.143.428 2.257.971 3.428 1.314a5.713 5.713 0 0 0 3.656-.058 3.437 3.437 0 0 0 .971-.6 3.863 3.863 0 0 0 1.286-3.342 1.678 1.678 0 0 1 .171-1.313h.115a3.072 3.072 0 0 1 3.084 3.084Z" style="mix-blend-mode:overlay" fill="url(#l)"/><path fill="#c14a2f" d="m70.739 134.854-.251 1.753-1.628 10.728-.292 2.087a91.648 91.648 0 0 1-6.554-13.316v-.209l.042-1.502 7.514.417Z"/><path fill="#c14a2f" d="M76.666 159.482a45.787 45.787 0 0 1-6.345-7.347c-.292-.417-.585-.876-.877-1.294l-.584-3.506-1.795-10.52-.292-1.836 2.797-.167 6.678-.46v.836l.084 5.05Z"/><path fill="#1f4b6f" d="M76.612 135.069c-.05-3.29-.1-6.58-.15-10.394s-.1-8.15-.148-12.486a30.45 30.45 0 0 0-7.575-1.455h-.099a17.327 17.327 0 0 0-6.304 1.582c-.428 3.993-.856 7.987-.946 11.912s.158 7.783.406 11.641a24.147 24.147 0 0 0 6.046.982q.373 0 .756-.02a37.472 37.472 0 0 0 8.014-1.762Z"/><path fill="#fcc6b6" d="M94.906 112.687a1.417 1.417 0 0 1 1.216-.838h.045c.511 0 1.233.202 1.88.202a2.036 2.036 0 0 0 .59-.076c.769-.234 1.231-1.078 1.518-1.218a.192.192 0 0 1 .084-.02c.222 0 .275.514-.084 1.09a5.84 5.84 0 0 1-2.071 1.75 4.932 4.932 0 0 1-1.971.509Z"/><path fill="#1f4b6f" d="m85.333 119.493 9.616-6.894 1.313 1.498c-3.449 3.521-6.897 7.043-9.227 8.588a5.324 5.324 0 0 1-2.943 1.087 5.228 5.228 0 0 1-1.81-.401c-2.839-1.169-5.678-2.337-7.09-4.853s-1.398-6.381.53-6.443l.048-.001c1.944 0 5.753 3.71 9.563 7.419Z"/><path fill="#fcc6b6" d="M44.316 112.625a1.417 1.417 0 0 0-1.216-.838h-.046c-.51 0-1.232.203-1.878.203a2.039 2.039 0 0 1-.591-.077c-.769-.234-1.231-1.078-1.518-1.217a.19.19 0 0 0-.084-.021c-.222 0-.275.514.084 1.09a5.842 5.842 0 0 0 2.071 1.75 4.936 4.936 0 0 0 1.971.509Z"/><path fill="#1f4b6f" d="m53.889 119.431-9.616-6.894-1.313 1.498c3.449 3.522 6.897 7.043 9.227 8.589a5.325 5.325 0 0 0 2.943 1.086 5.226 5.226 0 0 0 1.81-.401c2.839-1.168 5.678-2.337 7.09-4.853s1.398-6.381-.53-6.443l-.048-.001c-1.944 0-5.753 3.71-9.563 7.419ZM47.316 101.208v9.655a.84.84 0 0 1-.514.771.304.304 0 0 1-.229.029v.028H39.09a.829.829 0 0 1-.828-.828v-9.655a1.432 1.432 0 0 1 .057-.343 1.603 1.603 0 0 1 .143-.228.1.1 0 0 1 .057-.029.85.85 0 0 1 .571-.228h7.399a.858.858 0 0 1 .8.6.556.556 0 0 1 .028.228Z"/><path fill="#fff" d="M47.059 101.38v9.683a.761.761 0 0 1-.257.571.652.652 0 0 1-.343.172.309.309 0 0 1-.228.057h-7.399a.823.823 0 0 1-.828-.8v-9.684a.963.963 0 0 1 .143-.485.395.395 0 0 1 .085-.115.623.623 0 0 1 .229-.142.1.1 0 0 1 .057-.029 1.027 1.027 0 0 1 .314-.057h7.399a.824.824 0 0 1 .742.457.792.792 0 0 1 .086.371Z"/><path fill="#1f4b6f" d="M46.63 101.694v9.655a1.024 1.024 0 0 1-.057.314v.028a.224.224 0 0 1-.114.115.723.723 0 0 1-.657.371h-7.427a.83.83 0 0 1-.828-.828v-9.655a.822.822 0 0 1 .257-.6.686.686 0 0 1 .343-.2c.057 0 .114-.029.171-.029h7.484a.657.657 0 0 1 .4.114.807.807 0 0 1 .429.715Z"/><path fill="#3fccdf" d="M41.917 104.807a3.146 3.146 0 0 1-1.885 2.885 2.943 2.943 0 0 1-1.314.286 1.257 1.257 0 0 1-.457-.057.795.795 0 0 1-.257-.029 2.813 2.813 0 0 1-.457-.143v-5.913a1.35 1.35 0 0 1 .457-.114.403.403 0 0 1 .257-.028 1.261 1.261 0 0 1 .457-.057 3.17 3.17 0 0 1 3.2 3.17Z"/><path fill="#213ef7" d="m39.148 106.837-.134.001Z"/><path fill="#3fccdf" d="M44.882 110.268a1.545 1.545 0 1 1-1.545-1.545 1.545 1.545 0 0 1 1.545 1.545ZM45.053 105.39a.873.873 0 1 1-.872-.833.853.853 0 0 1 .872.832Z"/><path d="M47.316 101.208v9.655a.84.84 0 0 1-.514.771.652.652 0 0 1-.343.172.723.723 0 0 1-.657.371h-7.427a.83.83 0 0 1-.828-.828v-5.256a2.953 2.953 0 0 1 .457.171c.085.029.171.086.257.114a7.233 7.233 0 0 1 .628.372c.029.028.086.057.114.085.343.257.686.572 1.029.857a3.7 3.7 0 0 0 1.485.772 3.306 3.306 0 0 0 1.486-.143 2.746 2.746 0 0 0 .8-.314 2.295 2.295 0 0 0 .885-1.943.363.363 0 0 1-.029-.171 4.297 4.297 0 0 0-.4-1.343 12.465 12.465 0 0 0-.457-.857 2.597 2.597 0 0 1-.4-.857 1.603 1.603 0 0 1 .858-1.57 3.288 3.288 0 0 1 1.942-.287c.257 0 .514.03.771.03h.2a.172.172 0 0 0 .114-.03.556.556 0 0 1 .03.229Z" style="mix-blend-mode:overlay" fill="url(#m)"/><path fill="#faa991" d="M66.086 111.086a4.661 4.661 0 0 0 1.487-1.787 8.342 8.342 0 0 0 .302-2.82l3.327-.054a6.955 6.955 0 0 0-.287 2.872 4.09 4.09 0 0 0 1.42 1.94c-1.065.878-2.13 1.756-3.159 1.756h-.043c-1.042-.026-2.045-.966-3.047-1.907Z"/><path fill="#fcc6b6" d="M65.382 100.293c.243 3.314.485 6.628 1.707 8.207a2.712 2.712 0 0 0 2.17 1.098 3.288 3.288 0 0 0 2.56-1.354c1.306-1.678 1.713-4.875 2.12-8.073Z"/><path fill="#0d283a" d="M65.885 105.078a12.973 12.973 0 0 1-.736-4.047 2.768 2.768 0 0 1 1.4-1.964c.388-.704.776-1.407 1.474-1.63a1.96 1.96 0 0 1 .599-.084 8.404 8.404 0 0 1 2.336.507c1.227.392 2.673.92 3.072 2.14s-.246 3.133-.892 5.046l-.395-2.679a7.889 7.889 0 0 0-1.392-.155 4.646 4.646 0 0 0-1.026.114 18.075 18.075 0 0 0-3.31 1.324c.7-.58 1.399-1.16 1.345-1.356-.014-.05-.078-.074-.174-.074a2.083 2.083 0 0 0-1.226.598 5.429 5.429 0 0 0-1.075 2.26Z"/></g></g></svg>