<svg xmlns="http://www.w3.org/2000/svg" baseProfile="basic" viewBox="5 2 23 28"><polygon fill="#e83815" points="6,3 21.41,3 27,8.572 27,29 6,29"/><polygon fill="#fff" points="27,10 20,10 20,3 21,3 21,9 27,9"/><path fill="#302529" d="M28,30H5V2h16.823L28,8.157V30z M7,28h19V8.987L20.997,4H7V28z"/><path fill="#fff" d="M11.284,16.255c0.612,0,1.124,0.198,1.534,0.593c0.41,0.396,0.615,0.893,0.615,1.49 c0,0.595-0.205,1.09-0.615,1.485s-0.921,0.593-1.534,0.593H9.992v2.141H8.955v-6.302H11.284z M11.235,19.437 c0.334,0,0.609-0.104,0.824-0.312c0.216-0.208,0.323-0.471,0.323-0.787s-0.107-0.578-0.323-0.787 c-0.215-0.207-0.49-0.312-0.824-0.312H9.992v2.197H11.235z"/><path fill="#fff" d="M16.711,16.255c0.457,0,0.884,0.079,1.281,0.237c0.396,0.158,0.735,0.376,1.015,0.652 c0.28,0.277,0.5,0.611,0.659,1.002c0.16,0.392,0.24,0.811,0.24,1.26c0,0.601-0.137,1.141-0.411,1.621 c-0.274,0.48-0.654,0.855-1.141,1.125s-1.034,0.404-1.644,0.404h-2.224v-6.302H16.711z M16.68,21.594 c0.636,0,1.156-0.205,1.56-0.617c0.404-0.411,0.606-0.935,0.606-1.57s-0.202-1.159-0.606-1.569s-0.924-0.615-1.56-0.615h-1.156 v4.372H16.68z"/><path fill="#fff" d="M24.744,17.227h-2.597v1.783h2.364v0.949h-2.364v2.598H21.11v-6.302h3.634V17.227z"/></svg>