<svg xmlns="http://www.w3.org/2000/svg" enable-background="new 0 0 2000 2000" viewBox="193.33 500.8 1613.33 998.4"><path fill="#e0e8f5" fill-rule="evenodd" d="M1646.65,555.61c-15.14,0-27.41-12.26-27.41-27.4c0-15.13,12.27-27.4,27.41-27.4c15.13,0,27.4,12.27,27.4,27.4   C1674.05,543.34,1661.78,555.61,1646.65,555.61L1646.65,555.61z M483.03,1212.65H336.61c-78.81,0-143.28,64.47-143.28,143.27l0,0   c0,78.8,64.47,143.28,143.28,143.28h1238.05c127.6,0,232-104.4,232-232v-0.01c0-127.6-104.4-232-232-232l0,0   c-53.95,0-98.1-44.14-98.1-98.1l0,0c0-53.95,44.14-98.1,98.1-98.1h118.06c56.09,0,101.98-45.9,101.98-101.99l0,0   c0-56.09-45.89-101.99-101.98-101.99h-149.29c-21.84,0-39.7-17.86-39.7-39.71l0,0c0-21.83,17.86-39.7,39.7-39.7h26.32   c15.07,0,27.4-12.33,27.4-27.4l0,0c0-15.07-12.34-27.4-27.4-27.4h-98.64c0,0-37.69,0-74.06,0c-36.36,0-40.41,42.96-132.28,42.96   c-142.02,0-71.01,0-213.02,0c-19.67,0-35.76,16.1-35.76,35.76l0,0c0,19.66,16.09,35.76,35.76,35.76h34.34   c28.49,0,51.81,23.32,51.81,51.81v0.01c0,28.49-23.32,51.8-51.81,51.8H982.75c-139.56,0-159.27,36.47-183.71,109.01   c-24.44,72.53-151.38,78.38-151.38,78.38H474.09c-42.94,0-78.07,35.13-78.07,78.07l0,0c0,42.94,35.13,78.08,78.07,78.08h8.94   c41.3,0,75.1,33.79,75.1,75.09l0,0C558.13,1178.86,524.33,1212.65,483.03,1212.65L483.03,1212.65z" clip-rule="evenodd"/><path fill="#b0c2e4" fill-rule="evenodd" d="M1332.44,1187.33c21.1,19.27,11.93,38.55-3.67,74.35c-15.6,35.79-18.35,167.97-18.35,167.97l12.85-1.83    c0,0-1.85-135.84,15.59-172.56c17.44-36.72,24.8-55.06,40.39-43.13C1394.85,1224.05,1332.44,1187.33,1332.44,1187.33z" clip-rule="evenodd"/><path fill="#c4d1eb" fill-rule="evenodd" d="M1320.85,1162.37c2.56-11.42,17.78-23.78,38.15-34.27c-3.04,16.85-12.72,44.4-2.7,50.05    c13.55,7.62,1.32-30.85,6.54-51.98c19.12-9.34,42.13-16.97,63.3-20.76c-0.04,0.08-0.06,0.15-0.08,0.24    c-11.93,30.29-27.53,42.22-21.11,46.8c4.82,3.45,20.56-31.53,41.37-49.46c15.6-0.83,28.8,1.27,36.6,7.47    c12.08,9.55,20.18,18.03,8.05,47.13c-6.93,4.96-15.93,8.51-26.36,9.55c-27.53,2.76-40.39,3.67-21.1,12.86    c9.43,4.49,25.24-0.25,38.08-3.15c-4.15,7.66-9.28,16.34-15.49,26.23c-3.95,6.27-8.28,11.71-12.91,16.41    c-8.87,1.7-16.61,1.72-20.7-0.04c-12.84-5.51-45.88-22.95-54.15-15.6c-8.08,7.19,61.2,11.74,56.4,30    c-33.59,19.34-72.01,10.14-78.8-7.62C1346.8,1202.38,1313.14,1196.76,1320.85,1162.37z" clip-rule="evenodd"/><path fill="#b0c2e4" fill-rule="evenodd" d="M1390.28,1292.89c-36.73-27.54-74.35-1.85-93.64,27.53c-19.26,29.37-5.51,95.45-5.51,95.45s7.35,0,7.35-2.75    c0-2.75-20.19-78.01,27.53-111.97c29.86-21.24,51.4-11.01,54.14-0.92c2.76,10.1-11.93,28.45-11.93,28.45L1390.28,1292.89z" clip-rule="evenodd"/><path fill="#b0c2e4" fill-rule="evenodd" d="M1305.82,1236.28c36.73,0,48.66,56.91,38.55,89.94c-10.09,33.05-23.86,94.54-23.86,94.54l-9.18-9.18    c0,0,34.89-86.27,26.62-124.82c-8.26-38.56-28.44-44.98-32.12-44.98C1302.16,1241.78,1305.82,1236.28,1305.82,1236.28z" clip-rule="evenodd"/><path fill="#b0c2e4" fill-rule="evenodd" d="M1336.61,1326.49c2.59-3.43,5.77-6.25,9.66-8.13c-0.5,2.74-1.13,5.37-1.91,7.86    c-4.6,15.07-9.94,36.02-14.44,54.38c-0.38-2.34-1.04-5.97-1.98-11.56c-0.25-1.32-0.41-2.76-0.55-4.27    C1331,1352.54,1334.4,1339.21,1336.61,1326.49z" clip-rule="evenodd"/><path fill="#c4d1eb" fill-rule="evenodd" d="M1346.66,1326.76c69.74-29.38,33-69.68,94.49-43.06c4.34,1.87,9.6,6.6,14.9,13.11    c-5.47,1.56-12.09,2.68-19.49,1.57c-18.36-2.76-11.93,11.93,18.37,15.6c5.7,0.69,10.34,1.65,14.18,2.99    c14.44,27.72,20.95,64.18-9.6,76.86c-6.02,2.5-13.45,3.93-21.73,4.46c-9.42-7.48,2.31-50.83-12.23-44.85    c-13.94,5.75,4.39,37.15,1.88,45.07c-13.78-0.25-29.03-2.5-43.57-6.11c-5.77-3.23-10.19-7.56-11.53-13.25    c-4.59-19.28,25.69-31.21,26.62-47.74c0.83-15.18-11.12,33.42-42.75,40.57C1327.58,1358.64,1314.05,1340.49,1346.66,1326.76z" clip-rule="evenodd"/><path fill="#c4d1eb" fill-rule="evenodd" d="M1296.95,1274.84c7.36-15.61-11.93-19.28-10.99-7.35c0.79,10.58,0.89,36.28-9.94,43.27    c-18.7-2.03-44.14-9.56-63.39-21.04c-0.24-1.56,0-3.15,0.81-4.79c8.27-16.53,61.51-30.28,44.97-35.79    c-13.15-4.39-36.22,21.5-54.79,34.54c-11.17-8.47-18.64-18.56-18.64-29.83c0-15.25,18.53-32.51,42.5-40.76    c10.77,1.1,20.8,6.99,36.44,15.86c23.11,13.09,17.76-8.09-4.09-20.65c18.87,0.98,37.67,9.04,51.55,28.29c0,0-1.32,8.23,7.4,20.97    c23.76,34.73-3.67,55-36.44,53.69C1284.19,1302.09,1291.88,1285.61,1296.95,1274.84z" clip-rule="evenodd"/><path fill="#b0c2e4" fill-rule="evenodd" d="M1388.07,1291.32c17.95,13.87,37.87,30.09,62.35,41.1c24.49,11.01,19.59,46.91,19.59,46.91    s3.67-31-16.73-41.61c-20.4-10.6-33.85-23.26-49.34-25.69c-15.52-2.45-24.08-4.9-24.08-4.9s4.9-9.8,2.04-13.46    C1379.03,1290,1388.07,1291.32,1388.07,1291.32z" clip-rule="evenodd"/><path fill="#b0c2e4" fill-rule="evenodd" d="M1476.52,1128.45c-65.67,17.54-113.8,59.56-122.79,69.76c-8.97,10.19-8.97,13.05-8.97,13.05l6.95,13.05    l3.26-1.64c0,0-5.31-11.01,8.56-25.28c23.93-24.63,53.04-44.07,73.03-52.63C1456.55,1136.21,1476.52,1128.45,1476.52,1128.45z" clip-rule="evenodd"/><path fill="#9db2d9" fill-rule="evenodd" d="M1295.23,1492h25.1c17.84,0,32.31-14.46,32.31-32.31v-57.65h-89.71v57.65    C1262.92,1477.54,1277.38,1492,1295.23,1492z" clip-rule="evenodd"/><rect width="89.71" height="6.32" x="1262.92" y="1412.34" fill="#fff" fill-rule="evenodd" clip-rule="evenodd"/><rect width="89.71" height="3.71" x="1262.92" y="1423.86" fill="#fff" fill-rule="evenodd" clip-rule="evenodd"/><path fill="#c4d1eb" fill-rule="evenodd" d="M1310.18,1498.75c67.65,0,122.83-4.64,122.83-10.33s-55.18-10.34-122.83-10.34s-122.84,4.65-122.84,10.34   S1242.53,1498.75,1310.18,1498.75z" clip-rule="evenodd"/><polygon fill="#9db2d9" fill-rule="evenodd" points="1229.13 1069.71 1523.3 769.81 1498.17 745.74 1610.9 713.09 1584.15 828.09 1559.02 804.02 1297.78 1069.54" clip-rule="evenodd"/><polygon fill="#c4d1eb" fill-rule="evenodd" points="1233.97 939.84 1363.2 808.09 1324.01 770.55 1499.78 719.65 1458.08 898.96 1418.89 861.42 1273.22 1008.35" clip-rule="evenodd"/><path fill="#c4d1eb" fill-rule="evenodd" d="M823.22,856.32l-7.69,4.47c-2.59,1.51-3.48,4.86-1.97,7.46l1.7,2.92c2,3.44,1.13,4.99,0.51,5.55   c-1.71,1.53-3.3,3.19-4.89,4.85c-0.47,0.49-1.96,2.15-5.86-0.13l-2.68-1.56c-2.59-1.5-5.94-0.62-7.45,1.97l-4.47,7.69   c-1.5,2.59-0.62,5.94,1.97,7.45l2.65,1.54c3.67,2.13,3.57,3.22,3.11,4.77c-0.64,2.14-1.33,4.27-1.79,6.48   c-0.42,1.97-0.22,3.37-5.21,3.37h-3.05c-3.01,0-5.45,2.45-5.45,5.45v8.89c0,3.01,2.44,5.46,5.45,5.46h3.05   c4.99,0,4.79,1.41,5.21,3.37c0.47,2.21,1.16,4.34,1.79,6.48c0.46,1.56,0.55,2.65-3.11,4.78l-2.65,1.54   c-2.59,1.5-3.47,4.86-1.97,7.46l4.47,7.68c1.51,2.59,4.86,3.48,7.45,1.97l2.68-1.56c3.9-2.27,5.39-0.61,5.86-0.12   c1.59,1.65,3.18,3.31,4.89,4.84c0.62,0.56,1.49,2.11-0.51,5.56l-1.7,2.92c-1.51,2.59-0.62,5.94,1.97,7.45l7.69,4.48   c2.59,1.51,5.94,0.61,7.46-1.97l1.69-2.91c2.03-3.5,4.03-3.36,4.88-3.09c2.45,0.79,4.72,1.29,7.25,1.95   c0.93,0.24,2.5,0.91,2.5,5.07v3.12c0,3,2.45,5.45,5.45,5.45h8.89c3,0,5.45-2.44,5.45-5.45v-3.12c0-4.16,1.58-4.84,2.5-5.07   c2.54-0.66,4.79-1.16,7.25-1.95c0.85-0.27,2.85-0.41,4.88,3.09l1.7,2.91c1.5,2.59,4.86,3.48,7.45,1.97l7.69-4.48   c2.59-1.5,3.48-4.86,1.97-7.45l-1.7-2.92c-2-3.45-1.13-5-0.51-5.56c1.71-1.53,3.3-3.19,4.89-4.84c0.47-0.49,1.96-2.15,5.86,0.12   l2.68,1.56c2.6,1.51,5.94,0.62,7.46-1.97l4.47-7.68c1.51-2.6,0.62-5.95-1.97-7.46l-2.65-1.54c-3.67-2.13-3.57-3.22-3.11-4.78   c0.63-2.13,1.32-4.27,1.79-6.48c0.42-1.97,0.23-3.37,5.21-3.37h3.06c3,0,5.45-2.45,5.45-5.46v-8.89c0-3-2.45-5.45-5.45-5.45h-3.06   c-4.98,0-4.79-1.4-5.21-3.37c-0.47-2.21-1.16-4.34-1.79-6.48c-0.47-1.55-0.56-2.65,3.11-4.77l2.65-1.54   c2.59-1.51,3.48-4.86,1.97-7.45l-4.47-7.69c-1.51-2.59-4.86-3.47-7.46-1.97l-2.68,1.56c-3.91,2.28-5.39,0.62-5.86,0.13   c-1.59-1.66-3.18-3.32-4.89-4.85c-0.61-0.56-1.49-2.11,0.51-5.55l1.7-2.92c1.51-2.59,0.62-5.94-1.97-7.46l-7.69-4.47   c-2.59-1.51-5.94-0.62-7.45,1.97l-1.7,2.91c-2.03,3.49-4.03,3.36-4.88,3.08c-2.45-0.78-4.71-1.28-7.25-1.94   c-0.93-0.25-2.5-0.91-2.5-5.08v-3.12c0-3-2.45-5.45-5.45-5.45h-8.89c-3,0-5.45,2.45-5.45,5.45v3.12c0,4.16-1.58,4.83-2.5,5.08   c-2.53,0.66-4.79,1.16-7.25,1.94c-0.84,0.27-2.84,0.41-4.88-3.08l-1.69-2.91C829.17,855.7,825.82,854.81,823.22,856.32   L823.22,856.32z M856.9,911.32c6.48,0,11.75,5.26,11.75,11.75c0,6.48-5.26,11.75-11.75,11.75s-11.75-5.26-11.75-11.75   C845.15,916.58,850.41,911.32,856.9,911.32L856.9,911.32z M820.08,923.06c0-1.39,1.13-2.51,2.51-2.51c1.39,0,2.51,1.13,2.51,2.51   c0,8.78,3.57,16.72,9.31,22.48c5.75,5.75,13.7,9.31,22.48,9.31c1.39,0,2.51,1.13,2.51,2.51s-1.13,2.51-2.51,2.51   c-10.17,0-19.37-4.12-26.03-10.78C824.2,942.43,820.08,933.23,820.08,923.06L820.08,923.06z M893.23,917.13   c0.21,1.36-0.72,2.65-2.08,2.87c-1.37,0.21-2.65-0.72-2.87-2.08c-1.08-6.66-4.24-12.63-8.78-17.22c-4.55-4.6-10.49-7.81-17.15-8.96   c-1.36-0.23-2.28-1.53-2.04-2.9c0.23-1.36,1.53-2.28,2.89-2.04c7.71,1.33,14.58,5.05,19.85,10.37   C888.32,902.48,891.97,909.4,893.23,917.13L893.23,917.13z M856.9,879.45c24.09,0,43.62,19.52,43.62,43.62   c0,24.09-19.53,43.62-43.62,43.62c-24.09,0-43.62-19.53-43.62-43.62C813.28,898.97,832.8,879.45,856.9,879.45z" clip-rule="evenodd"/><path fill="#859ac6" fill-rule="evenodd" d="M859.85,1498.75c41.59-117.18,171.2-263.96,100.81-332.59c-89.14-86.93-105.27-198.32-49.45-277.32   c69.94-98.97,244.19-146.05,339.63-6.83c6.32,21.48,19.39,67.61,28.94,73.13c12.64,7.3,10.32,15.02,10.32,15.02   c-3.09,3.49-9.97,10.92-11.88,15.19c-5.73,12.84-1.9,24.47,1.39,33.79c8.43,23.84,37.82,41.4,53.76,62.41   c0.99,10.32-11.97,17.53-38.86,21.64c0.01,12.15,1.87,20.43,5.61,24.84c-0.45,9.01-4.45,14.49-12.02,16.43   c8.37,2.59,11.17,7.93,8.41,16.03c-11.43,8.39-13.56,23.07-6.41,44.07c2.13,39.41-18.33,53.87-61.37,43.37   c-6.54-1.59-13.59-3.76-21.16-6.51c-16.35,3.36-28.5,11.94-37.14,23.72c-8.16,11.12-9,28.58-1.3,41.9   c12.23,21.2-16.87,36.06-13.78,54.57c3.79,22.66,90.96,68.24,105.82,137.15H859.85z" clip-rule="evenodd"/><rect width="69.28" height="23.93" x="1206.18" y="834.73" fill="#b0c2e4" fill-rule="evenodd" clip-rule="evenodd"/><path fill="#c4d1eb" fill-rule="evenodd" d="M1206.81,821.42c-4.17-1.95-6.93-5.54-6.93-10.97v-1.68c-0.82-46.88-42.01-60.02-45.34-111.88    c-0.25-3.89-0.22-7.69,0.08-11.39c6.45-39.34,43.83-65.75,85.84-65.75c47.86,0,89.73,34.29,86.67,82.93    c-3.17,50.31-42.42,63.06-43.2,108.54c0,4.92-5.26,10.6-9.75,10.2H1206.81z" clip-rule="evenodd"/><path fill="#9db2d9" fill-rule="evenodd" d="M1277.96,864.2c-0.52,5.27-5,9.41-10.38,9.41h-8l-3.11,5.08c-1.79,2.92-2.84,3.11-6.26,3.11h-18.79    c-3.42,0-4.47-0.19-6.26-3.11l-3.11-5.08h-7.99c-5.32,0-9.75-4.04-10.36-9.2v-3.65c0.28-1.19,1.36-2.08,2.63-2.08h68.97    c1.28,0,2.36,0.9,2.64,2.1c0.02,0.11-0.05,0.33,0.02,0.39V864.2L1277.96,864.2z M1207.31,840.21h67.02c2.02,0,3.68,1.65,3.68,3.68    v5.71c0,2.02-1.66,3.68-3.68,3.68h-67.02c-2.02,0-3.68-1.66-3.68-3.68v-5.71C1203.64,841.86,1205.29,840.21,1207.31,840.21    L1207.31,840.21z M1207.47,821.42h66.71c2.1,0,3.83,1.73,3.83,3.83v5.94c0,2.1-1.73,3.83-3.83,3.83h-66.71    c-2.1,0-3.83-1.73-3.83-3.83v-5.94C1203.64,823.14,1205.36,821.42,1207.47,821.42z" clip-rule="evenodd"/><path fill="#fff" fill-rule="evenodd" d="M1230.24,821.42l-7.1-85.82h-10.28c-4.44,0-8.47-1.82-11.4-4.74l0.01-0.01c-2.92-2.93-4.74-6.96-4.74-11.39    c0-4.44,1.81-8.47,4.73-11.39c2.93-2.92,6.96-4.73,11.4-4.73c4.38,0,8.19,1.75,11.02,4.59c2.88,2.87,4.72,6.87,5.1,11.23l0.8,9.2    h31.45l0.8-9.2c0.38-4.35,2.23-8.35,5.11-11.23c2.83-2.83,6.63-4.59,11.01-4.59c4.42,0,8.45,1.81,11.38,4.74l0.01-0.01    c2.92,2.92,4.73,6.95,4.73,11.39c0,4.45-1.81,8.48-4.73,11.4c-2.92,2.92-6.95,4.74-11.39,4.74h-10.29l-7.09,85.82h-7.24    l7.06-85.82h-30.18l7.06,85.82H1230.24L1230.24,821.42z M1222.51,728.35l-0.75-8.57c-0.23-2.65-1.32-5.05-3.01-6.73    c-1.52-1.53-3.56-2.47-5.89-2.47c-2.44,0-4.66,1-6.27,2.62c-1.61,1.61-2.61,3.83-2.61,6.27c0,2.45,0.99,4.67,2.6,6.28h0.01    c1.61,1.61,3.83,2.61,6.27,2.61H1222.51L1222.51,728.35z M1268.5,728.35h9.65c2.44,0,4.66-1,6.27-2.61    c1.61-1.62,2.61-3.83,2.61-6.28c0-2.44-1-4.66-2.61-6.27v-0.02c-1.6-1.6-3.82-2.6-6.27-2.6c-2.33,0-4.37,0.95-5.89,2.47    c-1.69,1.69-2.78,4.09-3.01,6.73L1268.5,728.35z" clip-rule="evenodd"/><path fill="#fff" fill-rule="evenodd" d="M1272.02,649.89c-2.3-0.96-3.38-3.62-2.41-5.91c0.97-2.3,3.62-3.38,5.92-2.42c1.88,0.8,3.66,1.65,5.33,2.55    c1.73,0.93,3.42,1.93,5.06,3.02c2.08,1.39,2.65,4.2,1.27,6.28c-1.38,2.08-4.19,2.65-6.28,1.28c-1.39-0.92-2.84-1.79-4.34-2.59    C1275.04,651.26,1273.52,650.52,1272.02,649.89L1272.02,649.89z M1291.93,664.34c-1.64-1.89-1.44-4.76,0.44-6.4    c1.89-1.64,4.75-1.45,6.4,0.44c4.79,5.51,8.62,11.85,11.23,18.79c2.52,6.69,3.9,13.9,3.9,21.4c0,2.5-2.03,4.54-4.54,4.54    c-2.51,0-4.54-2.04-4.54-4.54c0-6.42-1.16-12.55-3.29-18.21C1299.31,674.47,1296.04,669.06,1291.93,664.34z" clip-rule="evenodd"/><path fill="#fff" fill-rule="evenodd" d="M1241.99,567.09L1241.99,567.09c1.72,0,3.13,1.41,3.13,3.13v39.52c0,1.72-1.41,3.13-3.13,3.13l0,0   c-1.73,0-3.13-1.41-3.13-3.13v-39.52C1238.86,568.49,1240.27,567.09,1241.99,567.09L1241.99,567.09z M1125.57,772.45   L1125.57,772.45c0.81,1.52,2.71,2.11,4.23,1.3l34.95-18.42c1.53-0.81,2.11-2.71,1.31-4.23h-0.01c-0.8-1.53-2.71-2.11-4.22-1.31   l-34.95,18.43C1125.36,769.02,1124.77,770.93,1125.57,772.45L1125.57,772.45z M1104.19,706.67L1104.19,706.67   c0.11,1.72,1.61,3.03,3.33,2.92l39.43-2.59c1.72-0.11,3.03-1.61,2.92-3.33l0,0c-0.11-1.72-1.61-3.03-3.33-2.92l-39.43,2.6   C1105.39,703.45,1104.08,704.95,1104.19,706.67L1104.19,706.67z M1117.01,639.97L1117.01,639.97c-0.6,1.62,0.24,3.42,1.85,4.02   l37.07,13.69c1.62,0.59,3.42-0.24,4.02-1.85l0,0c0.6-1.62-0.23-3.43-1.85-4.03l-37.07-13.69   C1119.41,637.52,1117.6,638.36,1117.01,639.97L1117.01,639.97z M1165.47,586.84L1165.47,586.84c-1.38,1.03-1.67,3-0.64,4.38   l23.59,31.71c1.02,1.38,2.99,1.67,4.38,0.64l0,0c1.39-1.03,1.68-3,0.65-4.38l-23.59-31.7   C1168.82,586.1,1166.85,585.81,1165.47,586.84L1165.47,586.84z M1358.41,772.45L1358.41,772.45c-0.8,1.52-2.71,2.11-4.23,1.3   l-34.95-18.42c-1.52-0.81-2.11-2.71-1.3-4.23l0,0c0.8-1.53,2.71-2.11,4.22-1.31l34.95,18.43   C1358.62,769.02,1359.21,770.93,1358.41,772.45L1358.41,772.45z M1379.79,706.67L1379.79,706.67c-0.11,1.72-1.61,3.03-3.33,2.92   l-39.43-2.59c-1.72-0.11-3.03-1.61-2.92-3.33l0,0c0.12-1.72,1.62-3.03,3.34-2.92l39.43,2.6   C1378.59,703.45,1379.91,704.95,1379.79,706.67L1379.79,706.67z M1366.97,639.97L1366.97,639.97c0.6,1.62-0.24,3.42-1.85,4.02   l-37.07,13.69c-1.61,0.59-3.42-0.24-4.02-1.85l0,0c-0.6-1.62,0.24-3.43,1.85-4.03l37.07-13.69   C1364.56,637.52,1366.38,638.36,1366.97,639.97L1366.97,639.97z M1318.51,586.84L1318.51,586.84c1.38,1.03,1.67,3,0.65,4.38   l-23.6,31.71c-1.02,1.38-2.99,1.67-4.38,0.64l0,0c-1.38-1.03-1.67-3-0.65-4.38l23.6-31.7   C1315.15,586.1,1317.12,585.81,1318.51,586.84z" clip-rule="evenodd"/><path fill="#ecebe8" fill-rule="evenodd" d="M536.88,1380.62c0.04,2.41,0.18,4.43,0.36,5.83C537.06,1385.05,536.93,1383.03,536.88,1380.62z" clip-rule="evenodd"/><path fill="#9db2d9" fill-rule="evenodd" d="M463.44,1202.17c-1.78-2.29-4.2-4.01-6.63-5.53c-0.65-0.41-1.59-0.13-1.94,0.53    c-1.88,3.51-3.62,7.11-5.78,10.46c-0.71,1.1-1.73,2.57-2.63,3.22c-0.06,0.04-0.28,0.15-0.39,0.21c-0.01-0.02-0.03-0.04-0.04-0.07    c-0.18-0.26-0.28-0.54-0.38-0.84c-1.68-5.16,0.36-10.68-0.96-15.88c-0.7-2.76-2.44-5.62-4.43-7.63c-2.16-2.18-5.04-3.19-6.38-6.14    c-0.2-0.44-0.56-0.65-0.96-0.69h-0.27c-0.48,0.04-0.96,0.31-1.24,0.7c-3.11,4.47-7.45,9.08-8.28,14.67    c-0.73,4.96,1.94,9.09,4.8,12.86c1.39,1.82,2.75,3.68,3.82,5.7c0.59,1.11,1.61,3.13,0.53,4.22c-1.13,1.15-2.84-0.9-3.73-1.81    c-1.82-1.89-3.36-4.03-4.94-6.12c-2.61-3.45-6.75-8.68-11.67-7.74c-2.17,0.42-3.05,2.66-3.17,4.62c-0.18,3.1,1.34,6.44,2.86,9.04    c3.47,5.91,10.49,7.62,15,12.38c1.05,1.09,3.88,4.84,2.25,6.39c-0.57,0.53-1.9,0.36-2.57,0.25c-1.65-0.25-3.47-0.87-4.8-1.89    c-5.08-3.93-6.93-10.75-12.26-14.47c-2.33-1.63-5.94-2.63-8.75-1.96c-2.39,0.56-3.48,2.81-3.59,5.07    c-0.13,2.74,1.12,5.57,2.5,7.86c1.6,2.65,3.8,4.86,6.48,6.39c5.38,3.06,12.18,3.44,15.76,9.07c0.49,0.77,1.01,1.78,0.78,2.71    c-0.19,0.73-1.22,0.96-1.83,1.1c-2.76,0.61-6.37-0.42-8.8-1.7c-2.93-1.57-5.05-4.38-7.3-6.74c-2.37-2.49-5.01-4.52-8.34-5.54    c-2.42-0.72-5.38-0.61-6.94,1.65c-1.43,2.07-1.14,4.85-0.56,7.16c0.77,3.05,2.43,5.86,4.47,8.22c2.2,2.56,5.68,4,8.79,5.05    c3.24,1.08,6.6,1.74,9.8,2.95c0.84,0.32,1.5,0.55,2.43,0.61c0.99,0.07,1.99,0.02,2.96,0.27c0.82,0.21,0.27,1.07-0.01,1.66    c-0.66,1.43-2.78,1.36-4.12,1.47c-1.27,0.1-2.52,0.42-3.79,0.43c-1.46,0.01-2.91-0.27-4.35-0.48c-2.84-0.44-5.85-0.93-8.67-0.08    c-2.72,0.83-4.64,3.39-5.13,6.14c-1.02,5.77,5.42,9.29,10.21,10.03c3.07,0.47,5.85-0.2,8.55-1.73c3.32-1.87,5.94-4.59,9.77-5.06    c0.25,1.54-0.3,2.77-1.66,3.92c-1.87,1.58-4.48,2.44-6.74,3.28c-4.46,1.66-10.99,3.13-13.38,7.75c-0.3,0.56-0.24,1.26,0.24,1.72    c2.12,2.02,4.56,3.6,7.53,3.84c2.47,0.2,4.88-0.95,6.88-2.27c3.58-2.37,6.66-6.06,10.68-7.73c-0.55,1.01-1.48,1.7-2.61,2.59    c-2.01,1.56-3.04,3.72-3.59,6.15c-0.84,3.7,0.44,7.68,4.77,7.71c2.36,0.01,4.73-1.18,6.71-2.37c2.26-1.35,4.07-3.32,5.47-5.53    c1.74-2.73,2.71-5.89,3.25-9.12c3.62,7.06,11.49,14.43,18.91,8.33c6.34-5.22-4.1-9.21-8.23-13.32c0.82,0.33,1.6,0.75,2.36,1.13    c2.15,1.1,4.24,2.33,6.49,3.24c4.19,1.7,8.89,1.54,11.39-2.77c2.16-3.72-2.32-5.45-5.08-6.27c-2.24-0.67-6.45-1.4-8.08-3.66    c5.54,0.61,11.7,1.3,16.47-1.9c2.17-1.45,4.77-4.25,5.03-6.97c0.21-2.23-2.2-3.02-3.93-3.19c-4.73-0.47-9.32,1.62-14.06,1.47    c-1.14-0.04-2.27-0.16-3.38-0.41c-0.42-0.09-0.84-0.21-1.23-0.39c-0.15-0.07-0.3-0.19-0.41-0.27c0.03-0.07,0.07-0.15,0.13-0.23    c0.42-0.49,0.97-0.85,1.51-1.21c1.21-0.79,2.48-1.26,3.93-1.41c2.75-0.3,5.5,0.05,8.24-0.43c3.09-0.53,5.59-2.32,7.63-4.62    c1.81-2.04,3.56-4.63,3.84-7.41c0.3-2.88-1.45-4.83-4.02-5.81c-7.18-2.75-11.39,4.68-16.52,8.04c-1.35,0.9-2.97,1.48-4.51,1.96    c-0.63,0.2-2.49,0.84-3.1,0.34c-0.37-0.3,0.85-2.25,1.08-2.62c1.04-1.67,2.35-2.84,4.05-3.81c4.28-2.45,9.52-3.22,12.89-7.09    c2.22-2.55,3.97-6.85,1.79-9.96c-2.3-3.29-7.43-2.4-10.32-0.49c-3.64,2.41-5.47,7.28-9.86,8.45c-0.38-2.08,0.43-3.99,1.83-5.83    c2.04-2.7,4.68-4.91,7.11-7.25c2.32-2.25,4.71-4.68,5.92-7.74C466.25,1207.91,465.45,1204.76,463.44,1202.17z" clip-rule="evenodd"/><path fill="#9db2d9" fill-rule="evenodd" d="M571.72,1302.11c0.7-2.81,0.55-5.79,0.24-8.63c-0.08-0.76-0.88-1.33-1.62-1.19    c-3.93,0.69-7.83,1.55-11.8,1.93c-1.3,0.13-3.08,0.24-4.15-0.07c-0.07-0.02-0.3-0.13-0.41-0.18c0.01-0.02,0.02-0.04,0.02-0.07    c0.1-0.3,0.26-0.55,0.43-0.82c3.02-4.51,8.62-6.33,11.88-10.59c1.73-2.25,2.9-5.39,3.25-8.2c0.38-3.04-0.62-5.94,0.87-8.81    c0.54-1.05-0.58-1.99-1.54-1.93c-5.42,0.32-11.74-0.24-16.64,2.57c-4.34,2.49-5.94,7.16-7.12,11.73    c-0.58,2.21-1.19,4.43-2.11,6.53c-0.51,1.15-1.46,3.2-2.99,3.03c-1.59-0.17-1.05-2.79-0.88-4.05c0.36-2.59,1.09-5.14,1.75-7.67    c1.09-4.19,2.65-10.68-1.15-13.95c-1.67-1.45-3.97-0.75-5.58,0.37c-2.55,1.78-4.23,5.03-5.33,7.85c-2.5,6.37,0.5,12.95-0.44,19.44    c-0.21,1.5-1.41,6.06-3.62,5.73c-0.78-0.12-1.46-1.27-1.79-1.86c-0.82-1.46-1.47-3.26-1.48-4.95c-0.07-6.42,4.15-12.09,3.77-18.58    c-0.16-2.85-1.61-6.3-3.88-8.09c-1.92-1.51-4.36-0.99-6.2,0.33c-2.24,1.59-3.68,4.33-4.62,6.83c-1.1,2.9-1.47,5.99-1.01,9.04    c0.93,6.12,4.83,11.7,2.62,18c-0.3,0.86-0.76,1.89-1.64,2.29c-0.69,0.31-1.51-0.36-1.99-0.76c-2.18-1.79-3.62-5.26-4.1-7.96    c-0.59-3.26,0.3-6.68,0.77-9.9c0.49-3.41,0.44-6.74-0.82-9.97c-0.92-2.35-2.85-4.61-5.59-4.43c-2.5,0.16-4.51,2.11-5.97,3.99    c-1.91,2.5-3.1,5.54-3.7,8.61c-0.64,3.31,0.37,6.93,1.48,10.02c1.15,3.22,2.71,6.26,3.74,9.53c0.27,0.86,0.5,1.51,1.02,2.28    c0.55,0.82,1.21,1.57,1.62,2.49c0.34,0.77-0.67,0.87-1.31,1.03c-1.53,0.36-2.79-1.34-3.7-2.33c-0.86-0.94-1.89-1.73-2.68-2.71    c-0.91-1.14-1.6-2.45-2.31-3.71c-1.41-2.5-2.89-5.18-5.3-6.86c-2.33-1.63-5.53-1.55-7.99-0.23c-5.17,2.76-3.94,10-1.56,14.23    c1.53,2.7,3.78,4.47,6.64,5.65c3.54,1.44,7.29,1.82,10.03,4.55c-1.05,1.14-2.36,1.47-4.11,1.11c-2.41-0.49-4.68-2-6.74-3.26    c-4.07-2.48-9.27-6.7-14.38-5.72c-0.62,0.13-1.14,0.6-1.2,1.25c-0.27,2.91-0.01,5.81,1.65,8.29c1.37,2.06,3.76,3.24,6.04,3.99    c4.08,1.34,8.88,1.48,12.68,3.6c-1.14,0.19-2.26-0.1-3.64-0.44c-2.47-0.61-4.81-0.08-7.06,0.99c-3.42,1.62-5.77,5.1-3.11,8.51    c1.46,1.87,3.86,2.99,6.01,3.81c2.46,0.93,5.13,1.13,7.73,0.88c3.23-0.33,6.3-1.52,9.17-3.09c-3.3,7.2-4.22,17.95,5.16,20    c8.02,1.76,4.7-8.92,5.36-14.7c0.25,0.85,0.41,1.72,0.57,2.55c0.47,2.38,0.8,4.77,1.47,7.11c1.25,4.34,4.29,7.94,9.23,7.23    c4.25-0.6,2.84-5.19,1.78-7.87c-0.86-2.18-2.88-5.93-2.12-8.6c2.95,4.72,6.22,9.99,11.69,11.76c2.48,0.8,6.28,1.12,8.58-0.36    c1.88-1.22,1.01-3.59,0.07-5.07c-2.56-3.99-7.04-6.32-9.85-10.13c-0.68-0.92-1.28-1.88-1.78-2.9c-0.18-0.39-0.36-0.79-0.46-1.21    c-0.04-0.16-0.03-0.36-0.03-0.48c0.07-0.02,0.15-0.04,0.25-0.04c0.65,0.02,1.28,0.23,1.88,0.43c1.38,0.46,2.53,1.18,3.54,2.21    c1.93,1.99,3.36,4.35,5.43,6.22c2.33,2.08,5.28,2.95,8.35,3.13c2.73,0.15,5.84-0.08,8.2-1.57c2.45-1.55,2.9-4.13,2.08-6.75    c-2.29-7.35-10.72-6.05-16.54-8c-1.54-0.52-3.01-1.41-4.33-2.33c-0.55-0.38-2.19-1.44-2.19-2.23c0.01-0.47,2.3-0.72,2.73-0.76    c1.95-0.22,3.68,0.09,5.49,0.82c4.58,1.85,8.42,5.48,13.55,5.74c3.37,0.16,7.84-1.13,8.94-4.76c1.16-3.84-2.71-7.32-6.01-8.41    c-4.14-1.37-9.1,0.21-12.73-2.51c1.39-1.58,3.4-2.13,5.71-2.17c3.39-0.07,6.76,0.63,10.1,1.09c3.19,0.44,6.59,0.81,9.73-0.13    C568.94,1307.87,570.93,1305.29,571.72,1302.11z" clip-rule="evenodd"/><path fill="#9db2d9" fill-rule="evenodd" d="M379.28,1223.89c-2.7-1.05-5.67-1.28-8.54-1.33c-0.76-0.01-1.42,0.71-1.39,1.46    c0.19,3.98,0.55,7.96,0.42,11.94c-0.04,1.31-0.16,3.09-0.59,4.11c-0.03,0.06-0.17,0.27-0.23,0.38c-0.02-0.01-0.04-0.02-0.07-0.03    c-0.29-0.13-0.52-0.33-0.76-0.53c-4.1-3.56-5.19-9.35-9-13.13c-2.02-2-4.99-3.56-7.72-4.25c-2.96-0.76-5.96-0.15-8.63-1.98    c-0.97-0.67-2.04,0.32-2.1,1.28c-0.36,5.42-1.72,11.62,0.44,16.83c1.92,4.63,6.34,6.8,10.73,8.55c2.13,0.85,4.25,1.74,6.21,2.92    c1.07,0.65,2.99,1.86,2.63,3.35c-0.38,1.56-2.9,0.69-4.13,0.36c-2.53-0.67-4.96-1.73-7.39-2.7c-4.02-1.61-10.26-3.97-13.99-0.63    c-1.64,1.47-1.25,3.85-0.33,5.59c1.44,2.75,4.45,4.83,7.11,6.28c6,3.28,12.9,1.14,19.23,2.9c1.45,0.4,5.82,2.16,5.22,4.31    c-0.21,0.76-1.45,1.28-2.08,1.54c-1.55,0.64-3.42,1.04-5.09,0.84c-6.37-0.75-11.47-5.65-17.96-6.1c-2.85-0.19-6.45,0.81-8.51,2.83    c-1.75,1.71-1.53,4.2-0.47,6.2c1.3,2.42,3.82,4.19,6.19,5.45c2.73,1.45,5.75,2.22,8.84,2.15c6.19-0.14,12.22-3.31,18.18-0.32    c0.82,0.4,1.79,0.99,2.06,1.92c0.21,0.72-0.55,1.45-1.01,1.88c-2.04,1.94-5.68,2.93-8.41,3.07c-3.31,0.16-6.59-1.16-9.73-2.02    c-3.31-0.91-6.62-1.3-9.99-0.45c-2.44,0.61-4.93,2.25-5.11,4.98c-0.16,2.5,1.53,4.74,3.21,6.42c2.23,2.21,5.1,3.78,8.06,4.76    c3.2,1.05,6.92,0.51,10.13-0.19c3.34-0.73,6.56-1.9,9.92-2.51c0.89-0.15,1.57-0.3,2.4-0.73c0.88-0.45,1.71-1,2.68-1.28    c0.8-0.25,0.78,0.77,0.85,1.43c0.16,1.56-1.69,2.6-2.78,3.38c-1.04,0.74-1.95,1.65-3.03,2.31c-1.24,0.76-2.63,1.28-3.97,1.83    c-2.67,1.09-5.51,2.21-7.48,4.39c-1.91,2.11-2.24,5.3-1.24,7.91c2.09,5.47,9.43,5.17,13.91,3.33c2.88-1.17,4.92-3.18,6.45-5.87    c1.88-3.33,2.73-7,5.78-9.37c1,1.19,1.16,2.53,0.59,4.21c-0.8,2.33-2.59,4.39-4.1,6.28c-2.97,3.71-7.81,8.34-7.48,13.53    c0.04,0.63,0.44,1.2,1.09,1.35c2.85,0.65,5.76,0.75,8.43-0.58c2.22-1.1,3.69-3.33,4.72-5.49c1.85-3.88,2.59-8.63,5.18-12.12    c0.05,1.16-0.39,2.23-0.9,3.56c-0.93,2.37-0.69,4.76,0.09,7.13c1.18,3.6,4.33,6.37,8.06,4.15c2.03-1.2,3.45-3.45,4.53-5.47    c1.24-2.33,1.77-4.95,1.84-7.56c0.09-3.24-0.71-6.45-1.9-9.49c6.74,4.19,17.27,6.46,20.49-2.59c2.76-7.74-8.25-5.79-13.91-7.19    c0.87-0.13,1.76-0.18,2.61-0.24c2.41-0.16,4.83-0.19,7.22-0.56c4.48-0.69,8.42-3.25,8.35-8.23c-0.06-4.3-4.79-3.47-7.58-2.77    c-2.27,0.59-6.25,2.11-8.81,1.02c5.06-2.33,10.7-4.91,13.15-10.11c1.11-2.37,1.9-6.09,0.72-8.57c-0.96-2.02-3.44-1.45-5.02-0.71    c-4.29,2.04-7.16,6.19-11.29,8.5c-1,0.55-2.03,1.03-3.11,1.39c-0.4,0.13-0.82,0.26-1.25,0.3c-0.16,0.02-0.36-0.01-0.48-0.02    c-0.01-0.07-0.02-0.16,0-0.27c0.1-0.64,0.39-1.23,0.67-1.81c0.62-1.31,1.47-2.36,2.64-3.23c2.21-1.66,4.74-2.79,6.85-4.61    c2.37-2.04,3.6-4.87,4.16-7.88c0.5-2.68,0.67-5.8-0.52-8.34c-1.22-2.62-3.73-3.39-6.43-2.91c-7.57,1.34-7.36,9.87-10.03,15.4    c-0.71,1.46-1.79,2.8-2.87,4c-0.44,0.49-1.7,1.99-2.48,1.88c-0.46-0.07-0.42-2.36-0.42-2.81c0.02-1.96,0.56-3.64,1.51-5.34    c2.41-4.31,6.5-7.65,7.4-12.71c0.59-3.34-0.13-7.93-3.58-9.47c-3.67-1.63-7.6,1.76-9.1,4.9c-1.88,3.93-0.95,9.06-4.11,12.32    c-1.39-1.59-1.68-3.64-1.44-5.94c0.37-3.37,1.49-6.63,2.36-9.88c0.84-3.12,1.63-6.44,1.11-9.68    C384.65,1227.38,382.34,1225.08,379.28,1223.89z" clip-rule="evenodd"/><path fill="#b0c2e4" fill-rule="evenodd" d="M517.15,1263.01c-0.38-2.87-1.62-5.58-2.96-8.11c-0.36-0.67-1.3-0.9-1.94-0.51c-3.4,2.1-6.71,4.34-10.26,6.16    c-1.17,0.59-2.78,1.36-3.89,1.46c-0.07,0.02-0.32-0.01-0.44-0.01c0-0.02-0.01-0.04-0.01-0.08c-0.02-0.31,0.03-0.61,0.1-0.92    c1.13-5.31,5.68-9.06,7.14-14.23c0.77-2.73,0.7-6.08-0.01-8.81c-0.77-2.97-2.76-5.29-2.44-8.51c0.12-1.17-1.27-1.64-2.14-1.23    c-4.93,2.31-11,4.12-14.52,8.54c-3.12,3.92-2.88,8.84-2.29,13.53c0.28,2.27,0.53,4.55,0.45,6.84c-0.05,1.26-0.18,3.52-1.65,3.92    c-1.55,0.43-2.01-2.19-2.31-3.44c-0.64-2.54-0.89-5.17-1.22-7.77c-0.53-4.29-1.48-10.9-6.21-12.55c-2.09-0.72-3.97,0.77-5.06,2.41    c-1.71,2.59-2.07,6.24-2.06,9.26c0.04,6.85,5.25,11.85,6.77,18.24c0.35,1.47,0.93,6.14-1.26,6.65c-0.76,0.18-1.82-0.64-2.35-1.07    c-1.3-1.06-2.57-2.49-3.21-4.05c-2.42-5.94-0.6-12.78-3.34-18.66c-1.21-2.58-3.82-5.25-6.6-6.09c-2.34-0.7-4.42,0.69-5.65,2.59    c-1.49,2.31-1.82,5.38-1.78,8.05c0.05,3.1,0.84,6.11,2.39,8.78c3.12,5.34,8.81,9.09,9.08,15.76c0.03,0.91-0.02,2.04-0.69,2.74    c-0.53,0.53-1.53,0.21-2.13,0.02c-2.68-0.86-5.31-3.55-6.75-5.88c-1.75-2.82-2.18-6.32-2.94-9.49c-0.8-3.34-2.07-6.42-4.44-8.97    c-1.72-1.85-4.34-3.23-6.83-2.06c-2.27,1.07-3.41,3.63-4.07,5.91c-0.86,3.02-0.84,6.29-0.26,9.36c0.62,3.31,2.9,6.31,5.07,8.78    c2.25,2.56,4.84,4.82,7,7.47c0.57,0.7,1.02,1.22,1.79,1.75c0.82,0.56,1.71,1.01,2.42,1.71c0.6,0.59-0.3,1.07-0.84,1.44    c-1.29,0.9-3.1-0.22-4.3-0.8c-1.15-0.55-2.39-0.9-3.49-1.53c-1.27-0.72-2.39-1.69-3.52-2.6c-2.25-1.8-4.6-3.74-7.46-4.42    c-2.77-0.65-5.71,0.61-7.51,2.73c-3.79,4.48,0.03,10.76,3.8,13.8c2.42,1.95,5.17,2.76,8.26,2.8c3.82,0.04,7.44-1,11,0.53    c-0.56,1.45-1.65,2.24-3.4,2.55c-2.42,0.43-5.1-0.13-7.48-0.54c-4.7-0.81-11.08-2.81-15.47-0.01c-0.54,0.34-0.84,0.98-0.65,1.6    c0.82,2.82,2.13,5.41,4.59,7.1c2.04,1.41,4.69,1.63,7.09,1.49c4.28-0.26,8.8-1.91,13.11-1.33c-0.99,0.6-2.13,0.74-3.55,0.93    c-2.52,0.34-4.5,1.7-6.2,3.53c-2.58,2.77-3.47,6.87,0.26,9.06c2.04,1.2,4.68,1.36,6.99,1.33c2.63-0.04,5.18-0.85,7.51-2.05    c2.88-1.49,5.29-3.73,7.37-6.25c-0.4,7.91,2.7,18.24,12.18,16.69c8.1-1.33,1.07-10.03-0.44-15.64c0.54,0.7,1.01,1.45,1.47,2.16    c1.3,2.04,2.5,4.14,3.99,6.05c2.76,3.59,6.91,5.8,11.25,3.33c3.74-2.13,0.73-5.88-1.24-7.97c-1.61-1.71-4.88-4.45-5.15-7.22    c4.48,3.3,9.47,6.99,15.2,6.62c2.6-0.17,6.25-1.28,7.84-3.51c1.3-1.82-0.38-3.71-1.8-4.72c-3.86-2.77-8.88-3.28-12.9-5.79    c-0.96-0.6-1.88-1.27-2.72-2.04c-0.31-0.29-0.62-0.6-0.87-0.95c-0.09-0.13-0.16-0.32-0.21-0.44c0.05-0.04,0.13-0.09,0.22-0.12    c0.62-0.22,1.27-0.26,1.91-0.3c1.45-0.08,2.78,0.16,4.1,0.75c2.53,1.13,4.73,2.81,7.34,3.76c2.94,1.09,6,0.8,8.91-0.17    c2.59-0.86,5.4-2.22,7.05-4.48c1.7-2.34,1.17-4.9-0.56-7.04c-4.84-5.98-12.2-1.67-18.33-1.33c-1.62,0.09-3.32-0.21-4.89-0.57    c-0.64-0.16-2.56-0.53-2.85-1.27c-0.16-0.44,1.87-1.51,2.25-1.72c1.74-0.93,3.46-1.28,5.41-1.27c4.94,0.03,9.85,1.99,14.71,0.33    c3.2-1.09,6.88-3.94,6.55-7.71c-0.34-4-5.22-5.8-8.69-5.6c-4.36,0.26-8.39,3.56-12.77,2.37c0.71-1.99,2.37-3.23,4.51-4.13    c3.12-1.31,6.51-1.91,9.79-2.71c3.13-0.77,6.43-1.69,9-3.71C516.69,1269.39,517.58,1266.26,517.15,1263.01z" clip-rule="evenodd"/><path fill="#b0c2e4" fill-rule="evenodd" d="M496.17,1235.53c-1.64,7.14-3.07,14.34-5.12,21.39c-2.11,7.23-5.11,13.92-9.24,20.22    c-8.52,13.01-19.38,24.29-28.16,37.12c-0.36,0.53-0.3,1.06-0.01,1.44c-1.7,3.2-2.68,6.84-3.39,10.32    c-1.23,6.05-1.6,12.26-1.85,18.43c-0.3,7.54-0.24,15.02,0.11,22.55c0.41,8.85,0.99,17.7,0.62,26.57    c-0.02,0.52-0.05,1.03-0.08,1.54c-0.1,1.83,2.74,1.82,2.84,0c0.49-8.65-0.02-17.31-0.44-25.95c-0.38-7.71-0.55-15.38-0.27-23.08    c0.21-5.96,0.5-11.94,1.53-17.82c0.93-5.35,2.41-11.41,6.45-15.32c0.57-0.56,0.51-1.26,0.15-1.76    c8.21-11.16,17.61-21.41,25.23-33.02c4.07-6.21,6.96-12.92,9.1-20.01c2.15-7.17,3.58-14.55,5.26-21.85    C499.32,1234.5,496.58,1233.75,496.17,1235.53z" clip-rule="evenodd"/><path fill="#b0c2e4" fill-rule="evenodd" d="M449.78,1395.53c-1.54-13.83-7.91-26.2-14.5-38.23c-6.54-11.92-13.41-24.01-15.42-37.66    c-0.27-1.81-3-1.04-2.74,0.76c4,27.25,26.75,47.62,29.81,75.13C447.13,1397.33,449.98,1397.35,449.78,1395.53z" clip-rule="evenodd"/><path fill="#9db2d9" fill-rule="evenodd" d="M491.58,1330.74c-12.17,5.31-24.09,13.43-32.26,24.02c-4.46,5.78-7.08,12.34-8.72,19.23    c-0.62-7.18-1.94-14.29-3.31-21.35c-3.2-16.49-5.67-33.05-7.23-49.78c-0.61-6.64-1.07-13.29-1.38-19.95    c-0.08-1.82-2.93-1.83-2.84,0c0.85,18.49,2.98,36.87,5.85,55.15c1.94,12.36,5.22,24.57,6.17,37.07    c-1.07-6.75-2.68-13.41-4.76-19.91c-2.96-9.29-6.95-18.32-12.13-26.6c0.03-0.36-0.07-0.73-0.37-1.07    c-0.36-0.39-0.71-0.78-1.07-1.16c-1.28-1.93-2.63-3.82-4.05-5.66c-0.64-0.82-1.55-0.53-2.02,0.14c-2.18-1.67-4.5-3.16-7-4.45    c-5.85-3.02-13.12-4.98-15.92-11.61c-0.71-1.68-3.16-0.23-2.45,1.45c2.78,6.58,9.58,9.03,15.51,11.91    c5.34,2.6,9.83,5.92,13.86,10.17c5.68,8.65,9.92,18.26,13.06,28.08c3.81,11.93,5.99,24.46,6.01,37c0,0.07,0.01,0.13,0.01,0.19    c-0.19,0.93,0.54,1.54,1.32,1.6c0.38,1.29,2.67,1.11,2.79-0.51c1.04-13.45,2.57-27.57,11.19-38.54    c7.95-10.12,19.48-17.84,31.19-22.94C494.69,1332.46,493.24,1330.01,491.58,1330.74z" clip-rule="evenodd"/><path fill="#c4d1eb" fill-rule="evenodd" d="M406.49,1235.23c-2.59-1.3-5.52-1.82-8.37-2.15c-0.76-0.09-1.48,0.56-1.52,1.31    c-0.2,3.98-0.23,7.98-0.73,11.94c-0.17,1.3-0.45,3.06-0.99,4.03c-0.03,0.06-0.19,0.26-0.26,0.36c-0.02-0.01-0.04-0.02-0.07-0.04    c-0.27-0.16-0.48-0.37-0.7-0.6c-3.74-3.94-4.26-9.8-7.69-13.93c-1.81-2.19-4.62-4.02-7.27-4.99c-2.88-1.05-5.92-0.72-8.4-2.8    c-0.9-0.76-2.07,0.13-2.22,1.07c-0.89,5.36-2.83,11.4-1.18,16.8c1.46,4.79,5.65,7.37,9.86,9.54c2.03,1.05,4.05,2.14,5.89,3.51    c1.02,0.75,2.8,2.13,2.3,3.58c-0.53,1.52-2.94,0.41-4.14-0.04c-2.46-0.92-4.77-2.19-7.09-3.39c-3.84-1.99-9.83-4.95-13.87-1.98    c-1.77,1.31-1.61,3.71-0.87,5.52c1.17,2.88,3.97,5.25,6.47,6.94c5.66,3.85,12.74,2.37,18.86,4.73c1.41,0.55,5.59,2.72,4.78,4.81    c-0.29,0.73-1.56,1.14-2.22,1.33c-1.61,0.47-3.5,0.7-5.15,0.35c-6.28-1.36-10.87-6.73-17.29-7.8c-2.81-0.47-6.5,0.18-8.74,1.99    c-1.91,1.53-1.94,4.04-1.07,6.13c1.06,2.53,3.4,4.54,5.63,6.02c2.58,1.71,5.51,2.76,8.59,2.99c6.17,0.45,12.49-2.12,18.13,1.43    c0.77,0.48,1.68,1.16,1.87,2.11c0.15,0.73-0.69,1.39-1.18,1.77c-2.22,1.73-5.94,2.37-8.67,2.25c-3.31-0.15-6.45-1.78-9.48-2.95    c-3.21-1.23-6.46-1.93-9.9-1.41c-2.5,0.37-5.12,1.75-5.57,4.45c-0.4,2.48,1.06,4.88,2.57,6.71c2.01,2.42,4.71,4.25,7.57,5.51    c3.08,1.35,6.84,1.17,10.1,0.78c3.39-0.41,6.71-1.25,10.12-1.54c0.9-0.07,1.59-0.15,2.45-0.49c0.93-0.36,1.81-0.83,2.79-1.02    c0.82-0.16,0.7,0.85,0.71,1.5c0.01,1.57-1.93,2.43-3.1,3.1c-1.1,0.64-2.09,1.46-3.24,2.02c-1.3,0.64-2.74,1.01-4.13,1.44    c-2.76,0.82-5.69,1.67-7.87,3.64c-2.1,1.91-2.73,5.06-1.99,7.75c1.55,5.65,8.89,6.06,13.52,4.67c2.98-0.9,5.2-2.69,6.98-5.22    c2.2-3.12,3.39-6.7,6.66-8.77c0.88,1.28,0.92,2.62,0.18,4.25c-1.01,2.24-2.99,4.12-4.68,5.85c-3.32,3.41-8.59,7.55-8.77,12.75    c-0.02,0.63,0.33,1.24,0.96,1.44c2.78,0.92,5.66,1.3,8.45,0.24c2.32-0.87,3.99-2.94,5.23-5c2.22-3.68,3.42-8.33,6.33-11.57    c-0.07,1.16-0.6,2.19-1.24,3.45c-1.15,2.27-1.15,4.67-0.6,7.11c0.82,3.69,3.69,6.75,7.61,4.91c2.14-1.01,3.77-3.1,5.05-5.02    c1.46-2.19,2.25-4.74,2.56-7.35c0.4-3.21-0.09-6.48-0.99-9.62c6.31,4.81,16.57,8.09,20.65-0.6c3.49-7.43-7.65-6.56-13.15-8.49    c0.88-0.04,1.77-0.01,2.62,0.02c2.42,0.07,4.83,0.27,7.25,0.14c4.52-0.26,8.69-2.43,9.11-7.39c0.36-4.28-4.43-3.92-7.28-3.48    c-2.32,0.35-6.42,1.5-8.86,0.16c5.26-1.84,11.12-3.86,14.06-8.8c1.34-2.24,2.48-5.88,1.55-8.45c-0.76-2.1-3.28-1.78-4.92-1.19    c-4.47,1.62-7.73,5.46-12.07,7.36c-1.05,0.46-2.11,0.83-3.22,1.09c-0.42,0.09-0.85,0.17-1.28,0.18c-0.16,0.01-0.36-0.04-0.48-0.08    c-0.01-0.07-0.01-0.15,0.02-0.26c0.17-0.62,0.5-1.19,0.84-1.73c0.76-1.25,1.7-2.21,2.94-2.96c2.37-1.45,4.99-2.31,7.26-3.92    c2.56-1.81,4.05-4.5,4.91-7.45c0.76-2.62,1.22-5.71,0.29-8.35c-0.96-2.73-3.38-3.74-6.12-3.52c-7.67,0.6-8.28,9.12-11.46,14.35    c-0.84,1.39-2.05,2.62-3.24,3.7c-0.49,0.45-1.89,1.82-2.65,1.64c-0.46-0.11-0.2-2.39-0.15-2.83c0.22-1.96,0.9-3.57,2.02-5.18    c2.82-4.05,7.22-6.99,8.61-11.94c0.91-3.25,0.64-7.89-2.65-9.77c-3.5-1.98-7.74,1.02-9.54,4c-2.25,3.73-1.82,8.92-5.28,11.86    c-1.23-1.71-1.32-3.78-0.85-6.05c0.69-3.32,2.12-6.45,3.31-9.61c1.14-3.02,2.25-6.25,2.03-9.52    C411.49,1239.21,409.41,1236.7,406.49,1235.23z" clip-rule="evenodd"/><polygon fill="#b0c2e4" fill-rule="evenodd" points="482.05 1479.1 420.73 1479.1 400.66 1399.8 500.73 1399.8" clip-rule="evenodd"/><rect width="112.06" height="10.31" x="393.97" y="1389.49" fill="#9db2d9" fill-rule="evenodd" clip-rule="evenodd"/><polygon fill="#9db2d9" fill-rule="evenodd" points="450.69 1399.8 400.66 1399.8 420.73 1479.1 450.69 1479.1" clip-rule="evenodd"/><rect width="56.73" height="10.31" x="393.97" y="1389.49" fill="#859ac6" fill-rule="evenodd" clip-rule="evenodd"/><polygon fill="#9db2d9" fill-rule="evenodd" points="482.05 1480.29 420.73 1480.29 400.66 1469.59 500.73 1469.59" clip-rule="evenodd"/><polygon fill="#859ac6" fill-rule="evenodd" points="450.69 1469.59 400.66 1469.59 420.73 1480.29 450.69 1480.29" clip-rule="evenodd"/><path fill="#c4d1eb" fill-rule="evenodd" d="M441.82,1492.62c67.66,0,122.83-2.84,122.83-6.34s-55.17-6.35-122.83-6.35c-67.65,0-122.83,2.85-122.83,6.35   S374.16,1492.62,441.82,1492.62z" clip-rule="evenodd"/><path fill="#c4d1eb" fill-rule="evenodd" d="M1043.39,879.36l23.77-9.71l-1.15-2.82c-4.17-1.3-7.75-4.38-9.53-8.74c-3.17-7.74,0.54-16.58,8.28-19.75   c7.74-3.16,16.58,0.55,19.76,8.29c1.78,4.36,1.39,9.06-0.68,12.91l1.15,2.82l23.77-9.72c4.49-1.84,9.67,0.34,11.51,4.83   l13.44,32.88l-3.45,1.41c-3.85-2.07-8.55-2.47-12.91-0.68c-7.74,3.17-11.46,12-8.28,19.75c3.16,7.74,12,11.46,19.75,8.29   c4.36-1.79,7.44-5.37,8.74-9.53l3.45-1.41l13.44,32.88c1.84,4.49-0.33,9.67-4.83,11.51l-23.77,9.72l1.28,3.15   c4.17,1.3,7.75,4.38,9.54,8.74c3.16,7.74-0.55,16.58-8.28,19.76c-7.75,3.17-16.59-0.55-19.76-8.29c-1.79-4.36-1.39-9.06,0.68-12.91   l-1.29-3.15l-23.77,9.71c-4.49,1.84-9.67-0.33-11.51-4.83l-13.45-32.87l2.34-0.95c3.85,2.06,8.55,2.46,12.91,0.67   c7.74-3.17,11.46-12.01,8.29-19.75c-3.17-7.74-12.01-11.46-19.76-8.29c-4.36,1.79-7.44,5.37-8.74,9.54l-2.33,0.96l-13.44-32.88   C1036.73,886.38,1038.9,881.2,1043.39,879.36z" clip-rule="evenodd"/><polygon fill="#9db2d9" fill-rule="evenodd" points="661.98 1353.1 743.31 1353.1 743.31 1265.68 824.62 1265.68 824.62 1178.26 905.95 1178.26 905.95 1090.83 987.27 1090.83 987.27 1003.42 1119.41 1003.42 661.98 1497.45" clip-rule="evenodd"/><polygon fill="#c4d1eb" fill-rule="evenodd" points="748.65 1498.68 1042.82 1198.78 1017.68 1174.72 1130.42 1142.06 1103.68 1257.07 1078.54 1233 817.29 1498.52" clip-rule="evenodd"/><polygon fill="#9db2d9" fill-rule="evenodd" points="847.09 1498.75 976.33 1366.99 937.14 1329.47 1112.9 1278.56 1071.2 1457.87 1032.01 1420.33 954.86 1498.75" clip-rule="evenodd"/><path fill="#c4d1eb" fill-rule="evenodd" d="M670.22,958.46l-11.84,6.89c-3.99,2.32-5.37,7.48-3.04,11.48l2.61,4.5c3.09,5.3,1.74,7.7,0.79,8.56   c-2.64,2.36-5.08,4.92-7.53,7.47c-0.72,0.75-3.01,3.31-9.03-0.19l-4.13-2.39c-3.99-2.33-9.16-0.96-11.48,3.03l-6.89,11.85   c-2.33,3.99-0.95,9.16,3.04,11.48l4.09,2.38c5.65,3.28,5.5,4.96,4.79,7.36c-0.99,3.29-2.04,6.57-2.76,9.98   c-0.64,3.03-0.35,5.19-8.03,5.19h-4.71c-4.62,0-8.39,3.77-8.39,8.4v13.7c0,4.62,3.77,8.4,8.39,8.4h4.71c7.69,0,7.4,2.16,8.03,5.19   c0.72,3.4,1.77,6.69,2.76,9.98c0.71,2.4,0.86,4.08-4.79,7.36l-4.09,2.37c-3.99,2.33-5.37,7.49-3.04,11.49l6.89,11.84   c2.33,3.99,7.49,5.36,11.48,3.04l4.13-2.39c6.03-3.5,8.32-0.94,9.03-0.19c2.45,2.55,4.89,5.11,7.53,7.47   c0.95,0.86,2.3,3.25-0.79,8.56l-2.61,4.5c-2.33,3.99-0.96,9.16,3.04,11.48l11.84,6.89c3.99,2.32,9.16,0.95,11.48-3.04l2.61-4.48   c3.13-5.39,6.22-5.17,7.51-4.76c3.78,1.2,7.27,1.98,11.17,2.99c1.42,0.37,3.86,1.41,3.86,7.82v4.81c0,4.62,3.77,8.4,8.4,8.4h13.7   c4.62,0,8.4-3.77,8.4-8.4v-4.81c0-6.41,2.44-7.44,3.86-7.82c3.9-1.01,7.39-1.79,11.16-2.99c1.3-0.42,4.39-0.63,7.52,4.76l2.61,4.48   c2.32,3.99,7.48,5.36,11.48,3.04l11.85-6.89c3.99-2.32,5.36-7.48,3.04-11.48l-2.61-4.5c-3.08-5.31-1.74-7.7-0.79-8.56   c2.64-2.36,5.08-4.92,7.53-7.47c0.73-0.75,3.02-3.31,9.03,0.19l4.13,2.39c3.99,2.32,9.16,0.96,11.49-3.04l6.88-11.84   c2.33-3.99,0.96-9.16-3.04-11.49l-4.09-2.37c-5.65-3.28-5.5-4.96-4.78-7.36c0.98-3.28,2.04-6.57,2.75-9.98   c0.64-3.03,0.36-5.19,8.03-5.19h4.71c4.63,0,8.4-3.77,8.4-8.4v-13.7c0-4.63-3.77-8.4-8.4-8.4h-4.71c-7.68,0-7.39-2.16-8.03-5.19   c-0.71-3.4-1.77-6.68-2.75-9.98c-0.72-2.39-0.87-4.08,4.78-7.36l4.09-2.38c3.99-2.32,5.37-7.48,3.04-11.48l-6.88-11.85   c-2.33-3.99-7.49-5.36-11.49-3.03l-4.13,2.39c-6.02,3.51-8.31,0.94-9.03,0.19c-2.44-2.55-4.89-5.11-7.53-7.47   c-0.96-0.86-2.3-3.26,0.79-8.56l2.61-4.5c2.32-3.99,0.96-9.16-3.04-11.48l-11.85-6.89c-3.99-2.32-9.16-0.96-11.48,3.04l-2.61,4.48   c-3.13,5.38-6.21,5.17-7.52,4.76c-3.78-1.2-7.26-1.98-11.16-2.99c-1.42-0.37-3.86-1.41-3.86-7.82v-4.81c0-4.62-3.77-8.4-8.4-8.4   h-13.7c-4.62,0-8.4,3.78-8.4,8.4v4.81c0,6.41-2.44,7.45-3.86,7.82c-3.9,1.01-7.39,1.79-11.17,2.99c-1.3,0.42-4.38,0.62-7.51-4.76   l-2.61-4.48C679.38,957.5,674.21,956.14,670.22,958.46L670.22,958.46z M722.1,1043.19c9.99,0,18.09,8.1,18.09,18.09   c0,10-8.1,18.1-18.09,18.1c-10,0-18.09-8.1-18.09-18.1C704,1051.29,712.1,1043.19,722.1,1043.19L722.1,1043.19z M665.39,1061.28   c0-2.13,1.74-3.87,3.87-3.87s3.87,1.73,3.87,3.87c0,13.53,5.48,25.76,14.35,34.63c8.86,8.86,21.1,14.34,34.63,14.34   c2.13,0,3.87,1.74,3.87,3.87c0,2.14-1.74,3.87-3.87,3.87c-15.66,0-29.84-6.34-40.1-16.61   C671.73,1091.12,665.39,1076.94,665.39,1061.28L665.39,1061.28z M778.06,1052.15c0.33,2.1-1.1,4.08-3.21,4.42   c-2.1,0.33-4.08-1.1-4.41-3.21c-1.67-10.26-6.53-19.45-13.53-26.53c-7.01-7.08-16.17-12.03-26.41-13.81   c-2.1-0.36-3.52-2.36-3.16-4.46c0.36-2.1,2.36-3.51,4.46-3.16c11.87,2.04,22.47,7.78,30.59,15.98   C770.49,1029.58,776.12,1040.25,778.06,1052.15L778.06,1052.15z M722.1,994.09c37.11,0,67.19,30.08,67.19,67.19   c0,37.11-30.08,67.2-67.19,67.2c-37.12,0-67.2-30.09-67.2-67.2C654.89,1024.17,684.98,994.09,722.1,994.09z" clip-rule="evenodd"/><path fill="#c4d1eb" fill-rule="evenodd" d="M722.09,997.77c35.08,0,63.52,28.43,63.52,63.51c0,35.08-28.44,63.52-63.52,63.52    c-35.08,0-63.51-28.44-63.51-63.52C658.58,1026.2,687.01,997.77,722.09,997.77z" clip-rule="evenodd"/><path fill="#fff" fill-rule="evenodd" d="M722.09,1007.11c29.92,0,54.17,24.25,54.17,54.17c0,29.92-24.25,54.17-54.17,54.17    c-29.91,0-54.16-24.25-54.16-54.17C667.93,1031.37,692.18,1007.11,722.09,1007.11z" clip-rule="evenodd"/><path fill="#b0c2e4" fill-rule="evenodd" d="M722.09,1010.86c27.85,0,50.43,22.58,50.43,50.42c0,27.86-22.58,50.43-50.43,50.43    c-27.85,0-50.43-22.58-50.43-50.43C671.66,1033.44,694.24,1010.86,722.09,1010.86z" clip-rule="evenodd"/><path fill="#fff" fill-rule="evenodd" d="M737.43,1035.27c-2.59-1.33-6.26-2.66-11.27-2.82v-8.29h-7.66v8.91c-8.29,1.88-13.22,7.82-13.22,15.49    c0,7.9,5.4,11.97,12.98,15.57c7.19,3.13,9.78,5.71,9.78,9.7c0,3.91-2.74,6.96-8.37,6.96c-4.93,0-9.54-1.72-12.59-3.52l-2.35,8.76    c2.97,1.73,8.06,3.29,13.07,3.45v8.92h7.66v-9.54c8.84-1.73,14-8.14,14-16.12c0-8.14-4.22-12.52-13.45-16.67    c-6.18-3.05-9.54-5.24-9.54-8.84c0-3.05,2.66-6.26,7.91-6.26c4.54,0,8.37,1.64,10.72,2.82L737.43,1035.27z" clip-rule="evenodd"/><path fill="#c4d1eb" fill-rule="evenodd" d="M943.1,738.63l-4.68,2.73c-1.58,0.91-2.11,2.96-1.2,4.54l1.04,1.77c1.22,2.1,0.69,3.05,0.31,3.39   c-1.04,0.93-2,1.94-2.97,2.95c-0.28,0.3-1.19,1.31-3.57-0.07l-1.63-0.95c-1.58-0.92-3.62-0.38-4.54,1.2l-2.72,4.68   c-0.92,1.58-0.38,3.62,1.2,4.54l1.62,0.94c2.23,1.3,2.17,1.96,1.89,2.9c-0.39,1.3-0.81,2.6-1.09,3.94   c-0.25,1.2-0.14,2.05-3.17,2.05h-1.86c-1.83,0-3.32,1.49-3.32,3.32v5.41c0,1.83,1.49,3.32,3.32,3.32h1.86   c3.03,0,2.92,0.86,3.17,2.05c0.28,1.35,0.7,2.65,1.09,3.94c0.28,0.95,0.34,1.62-1.89,2.91l-1.62,0.94   c-1.58,0.92-2.12,2.96-1.2,4.54l2.72,4.68c0.92,1.58,2.96,2.12,4.54,1.2l1.63-0.95c2.38-1.38,3.29-0.37,3.57-0.07   c0.97,1.01,1.93,2.02,2.97,2.95c0.38,0.34,0.91,1.29-0.31,3.39l-1.04,1.78c-0.91,1.57-0.38,3.62,1.2,4.54l4.68,2.72   c1.58,0.92,3.62,0.38,4.54-1.2l1.03-1.77c1.24-2.13,2.45-2.04,2.97-1.88c1.49,0.48,2.87,0.79,4.41,1.19   c0.56,0.15,1.53,0.55,1.53,3.09v1.9c0,1.83,1.49,3.32,3.32,3.32h5.41c1.83,0,3.32-1.49,3.32-3.32v-1.9c0-2.54,0.96-2.94,1.53-3.09   c1.54-0.4,2.92-0.71,4.41-1.19c0.52-0.16,1.73-0.24,2.97,1.88l1.03,1.77c0.92,1.58,2.96,2.12,4.53,1.2l4.68-2.72   c1.58-0.92,2.12-2.96,1.2-4.54l-1.04-1.78c-1.22-2.1-0.68-3.05-0.3-3.39c1.04-0.93,2-1.94,2.97-2.95c0.29-0.3,1.19-1.3,3.57,0.07   l1.63,0.95c1.58,0.92,3.62,0.38,4.53-1.2l2.72-4.68c0.92-1.58,0.38-3.62-1.2-4.54l-1.62-0.94c-2.23-1.3-2.17-1.96-1.89-2.91   c0.38-1.3,0.81-2.59,1.09-3.94c0.25-1.19,0.14-2.05,3.17-2.05h1.86c1.83,0,3.32-1.49,3.32-3.32v-5.41c0-1.83-1.49-3.32-3.32-3.32   h-1.86c-3.03,0-2.92-0.85-3.17-2.05c-0.28-1.34-0.7-2.65-1.09-3.94c-0.28-0.95-0.34-1.61,1.89-2.9l1.62-0.94   c1.58-0.92,2.12-2.96,1.2-4.54l-2.72-4.68c-0.92-1.58-2.96-2.12-4.53-1.2l-1.63,0.95c-2.38,1.39-3.28,0.37-3.57,0.07   c-0.97-1.01-1.93-2.02-2.97-2.95c-0.38-0.34-0.91-1.29,0.3-3.39l1.04-1.77c0.92-1.58,0.38-3.62-1.2-4.54l-4.68-2.73   c-1.58-0.92-3.62-0.38-4.53,1.2l-1.03,1.77c-1.24,2.13-2.45,2.04-2.97,1.88c-1.49-0.48-2.87-0.79-4.41-1.19   c-0.56-0.15-1.53-0.55-1.53-3.09v-1.9c0-1.83-1.49-3.32-3.32-3.32h-5.41c-1.83,0-3.32,1.49-3.32,3.32v1.9   c0,2.54-0.96,2.94-1.53,3.09c-1.54,0.4-2.92,0.71-4.41,1.19c-0.52,0.16-1.74,0.24-2.97-1.88l-1.03-1.77   C946.72,738.25,944.68,737.71,943.1,738.63L943.1,738.63z M963.6,772.11c3.95,0,7.15,3.2,7.15,7.15c0,3.95-3.2,7.15-7.15,7.15   s-7.15-3.2-7.15-7.15C956.45,775.31,959.65,772.11,963.6,772.11L963.6,772.11z M941.19,779.26c0-0.85,0.69-1.53,1.53-1.53   c0.84,0,1.53,0.68,1.53,1.53c0,5.34,2.16,10.18,5.67,13.68c3.5,3.5,8.34,5.66,13.68,5.66c0.84,0,1.53,0.69,1.53,1.53   c0,0.84-0.68,1.52-1.53,1.52c-6.19,0-11.79-2.5-15.84-6.56C943.71,791.05,941.19,785.45,941.19,779.26L941.19,779.26z    M985.71,775.65c0.13,0.83-0.44,1.62-1.27,1.75c-0.83,0.13-1.61-0.44-1.74-1.27c-0.66-4.05-2.58-7.69-5.34-10.49   c-2.77-2.8-6.4-4.76-10.44-5.45c-0.83-0.14-1.39-0.93-1.25-1.76c0.14-0.83,0.93-1.39,1.76-1.24c4.68,0.81,8.88,3.07,12.08,6.31   C982.73,766.74,984.95,770.95,985.71,775.65L985.71,775.65z M963.6,752.71c14.67,0,26.55,11.89,26.55,26.55   c0,14.66-11.88,26.55-26.55,26.55s-26.55-11.89-26.55-26.55C937.05,764.6,948.94,752.71,963.6,752.71z" clip-rule="evenodd"/><path fill="#c4d1eb" fill-rule="evenodd" d="M963.6,754.16c13.86,0,25.1,11.24,25.1,25.1c0,13.86-11.24,25.1-25.1,25.1c-13.87,0-25.1-11.23-25.1-25.1    C938.5,765.4,949.74,754.16,963.6,754.16z" clip-rule="evenodd"/><path fill="#fff" fill-rule="evenodd" d="M963.6,757.86c11.82,0,21.4,9.58,21.4,21.4c0,11.82-9.58,21.4-21.4,21.4s-21.4-9.58-21.4-21.4    C942.2,767.44,951.78,757.86,963.6,757.86z" clip-rule="evenodd"/><path fill="#b0c2e4" fill-rule="evenodd" d="M963.6,759.33c11,0,19.92,8.92,19.92,19.93c0,11-8.92,19.92-19.92,19.92c-11.01,0-19.93-8.92-19.93-19.92    C943.67,768.26,952.6,759.33,963.6,759.33z" clip-rule="evenodd"/><path fill="#fff" fill-rule="evenodd" d="M969.66,768.98c-1.02-0.53-2.48-1.05-4.45-1.11v-3.28h-3.03v3.52c-3.28,0.74-5.23,3.09-5.23,6.12    c0,3.13,2.13,4.73,5.14,6.15c2.84,1.24,3.86,2.26,3.86,3.84c0,1.54-1.08,2.75-3.3,2.75c-1.95,0-3.77-0.68-4.98-1.39l-0.93,3.46    c1.17,0.68,3.19,1.3,5.17,1.36v3.52h3.02v-3.77c3.5-0.67,5.54-3.21,5.54-6.37c0-3.22-1.67-4.94-5.31-6.58    c-2.44-1.21-3.77-2.07-3.77-3.5c0-1.2,1.05-2.47,3.12-2.47c1.79,0,3.3,0.65,4.23,1.11L969.66,768.98z" clip-rule="evenodd"/><path fill="#c4d1eb" fill-rule="evenodd" d="M1595.06,1168.25l-8.83,5.14c-2.98,1.73-4,5.59-2.27,8.57l1.95,3.35c2.31,3.96,1.3,5.74,0.59,6.39   c-1.96,1.76-3.79,3.67-5.62,5.57c-0.53,0.56-2.25,2.48-6.74-0.14l-3.07-1.79c-2.98-1.73-6.83-0.71-8.57,2.27l-5.14,8.83   c-1.73,2.98-0.71,6.83,2.27,8.56l3.05,1.77c4.22,2.45,4.1,3.7,3.57,5.49c-0.73,2.45-1.52,4.91-2.05,7.44   c-0.48,2.26-0.27,3.88-5.99,3.88h-3.51c-3.45,0-6.27,2.82-6.27,6.27v10.22c0,3.45,2.82,6.26,6.27,6.26h3.51   c5.73,0,5.51,1.62,5.99,3.88c0.53,2.53,1.32,4.99,2.05,7.44c0.53,1.79,0.65,3.04-3.57,5.49l-3.05,1.77c-2.98,1.73-4,5.58-2.27,8.56   l5.14,8.83c1.73,2.98,5.59,4,8.57,2.27l3.07-1.79c4.49-2.62,6.2-0.7,6.74-0.14c1.83,1.9,3.65,3.81,5.62,5.57   c0.71,0.64,1.72,2.42-0.59,6.38l-1.95,3.35c-1.73,2.98-0.71,6.83,2.27,8.57l8.83,5.13c2.98,1.73,6.83,0.71,8.57-2.27l1.94-3.34   c2.33-4.02,4.63-3.85,5.6-3.54c2.82,0.9,5.42,1.47,8.33,2.23c1.06,0.27,2.88,1.05,2.88,5.83v3.59c0,3.45,2.81,6.26,6.26,6.26h10.22   c3.45,0,6.26-2.82,6.26-6.26v-3.59c0-4.79,1.81-5.56,2.88-5.83c2.9-0.76,5.51-1.33,8.32-2.23c0.97-0.31,3.27-0.47,5.6,3.54   l1.95,3.34c1.74,2.98,5.59,4,8.56,2.27l8.84-5.13c2.97-1.74,3.99-5.59,2.26-8.57l-1.95-3.35c-2.3-3.96-1.3-5.74-0.59-6.38   c1.97-1.76,3.8-3.68,5.62-5.57c0.54-0.56,2.25-2.48,6.74,0.14l3.08,1.79c2.98,1.73,6.83,0.71,8.56-2.27l5.14-8.83   c1.73-2.98,0.71-6.83-2.27-8.56l-3.05-1.77c-4.21-2.45-4.1-3.7-3.57-5.49c0.73-2.45,1.52-4.91,2.05-7.44   c0.47-2.26,0.26-3.88,5.99-3.88h3.51c3.45,0,6.26-2.82,6.26-6.26v-10.22c0-3.45-2.81-6.27-6.26-6.27h-3.51   c-5.73,0-5.51-1.62-5.99-3.88c-0.53-2.53-1.33-4.99-2.05-7.44c-0.53-1.79-0.64-3.04,3.57-5.49l3.05-1.77   c2.98-1.73,3.99-5.58,2.27-8.56l-5.14-8.83c-1.73-2.98-5.58-4-8.56-2.27l-3.08,1.79c-4.49,2.62-6.2,0.71-6.74,0.14   c-1.82-1.9-3.65-3.81-5.62-5.57c-0.71-0.64-1.71-2.43,0.59-6.39l1.95-3.35c1.73-2.98,0.71-6.83-2.26-8.57l-8.84-5.14   c-2.97-1.73-6.82-0.71-8.56,2.27l-1.95,3.34c-2.33,4.02-4.63,3.85-5.6,3.55c-2.82-0.9-5.42-1.48-8.32-2.24   c-1.07-0.27-2.88-1.05-2.88-5.83v-3.59c0-3.45-2.82-6.26-6.26-6.26h-10.22c-3.45,0-6.26,2.82-6.26,6.26v3.59   c0,4.79-1.82,5.56-2.88,5.83c-2.9,0.76-5.51,1.34-8.33,2.24c-0.97,0.3-3.27,0.47-5.6-3.55l-1.94-3.34   C1601.89,1167.54,1598.04,1166.51,1595.06,1168.25L1595.06,1168.25z M1633.74,1231.44c7.45,0,13.49,6.04,13.49,13.49   c0,7.46-6.04,13.49-13.49,13.49c-7.45,0-13.49-6.04-13.49-13.49C1620.25,1237.48,1626.3,1231.44,1633.74,1231.44L1633.74,1231.44z    M1591.45,1244.93c0-1.59,1.29-2.88,2.88-2.88c1.59,0,2.89,1.29,2.89,2.88c0,10.09,4.08,19.21,10.69,25.82   c6.61,6.61,15.74,10.7,25.82,10.7c1.59,0,2.89,1.29,2.89,2.88c0,1.59-1.3,2.89-2.89,2.89c-11.68,0-22.25-4.73-29.91-12.39   S1591.45,1256.61,1591.45,1244.93L1591.45,1244.93z M1675.48,1238.12c0.25,1.57-0.82,3.05-2.39,3.29   c-1.56,0.25-3.04-0.82-3.29-2.39c-1.24-7.65-4.87-14.51-10.09-19.79c-5.22-5.28-12.06-8.98-19.69-10.3   c-1.57-0.27-2.62-1.76-2.36-3.33c0.27-1.57,1.75-2.62,3.33-2.36c8.85,1.53,16.75,5.81,22.81,11.92   C1669.85,1221.29,1674.05,1229.25,1675.48,1238.12L1675.48,1238.12z M1633.74,1194.82c27.68,0,50.12,22.44,50.12,50.12   c0,27.68-22.44,50.12-50.12,50.12c-27.68,0-50.12-22.44-50.12-50.12C1583.63,1217.26,1606.07,1194.82,1633.74,1194.82z" clip-rule="evenodd"/><circle cx="1633.74" cy="1244.93" r="47.37" fill="#c4d1eb" fill-rule="evenodd" clip-rule="evenodd"/><path fill="#fff" fill-rule="evenodd" d="M1633.74,1204.54c22.31,0,40.4,18.09,40.4,40.4c0,22.31-18.09,40.4-40.4,40.4c-22.31,0-40.4-18.09-40.4-40.4    C1593.34,1222.62,1611.43,1204.54,1633.74,1204.54z" clip-rule="evenodd"/><path fill="#b0c2e4" fill-rule="evenodd" d="M1633.74,1207.32c20.77,0,37.61,16.84,37.61,37.61c0,20.77-16.84,37.61-37.61,37.61    c-20.77,0-37.61-16.84-37.61-37.61C1596.13,1224.17,1612.97,1207.32,1633.74,1207.32z" clip-rule="evenodd"/><path fill="#fff" fill-rule="evenodd" d="M1645.18,1225.54c-1.93-0.99-4.67-1.99-8.4-2.1v-6.19h-5.71v6.65c-6.19,1.4-9.86,5.83-9.86,11.55    c0,5.89,4.03,8.92,9.69,11.6c5.37,2.33,7.29,4.26,7.29,7.24c0,2.91-2.04,5.19-6.24,5.19c-3.68,0-7.12-1.29-9.4-2.63l-1.75,6.54    c2.21,1.28,6.01,2.45,9.74,2.56v6.65h5.72v-7.12c6.59-1.28,10.44-6.06,10.44-12.02c0-6.06-3.15-9.33-10.03-12.43    c-4.61-2.27-7.12-3.91-7.12-6.59c0-2.27,1.98-4.67,5.89-4.67c3.39,0,6.25,1.22,8,2.1L1645.18,1225.54z" clip-rule="evenodd"/><path fill="#859ac6" fill-rule="evenodd" d="M1310.28,829.14c5.39,2.12,10.76,2.75,16.27,2.14c18.95-2.1,33.01-19.12,31.4-38.01   c-1.61-18.87-18.28-32.47-37.22-30.36c-18.95,2.11-33.01,19.13-31.41,38.01c0.71,8.35,4.32,15.59,9.83,21.01   c-7.99,5.46-15.97,10.93-23.96,16.4C1310.28,829.14,1298.58,832.21,1310.28,829.14z" clip-rule="evenodd"/><path fill="#fff" fill-rule="evenodd" d="M1307.96,801.8c-1.7-1.79-1.62-4.63,0.18-6.33c1.79-1.7,4.63-1.62,6.33,0.18l6.31,6.67l16.01-17.63   c1.65-1.83,4.48-1.97,6.31-0.31c1.83,1.65,1.97,4.48,0.32,6.31l-19.04,20.97c-0.13,0.18-0.29,0.34-0.45,0.5   c-1.79,1.7-4.63,1.62-6.33-0.18L1307.96,801.8z" clip-rule="evenodd"/><path fill="#c4d1eb" fill-rule="evenodd" d="M1539.01,1331.28l-7.23,4.2c-2.44,1.41-3.27,4.56-1.85,7l1.59,2.74c1.88,3.23,1.06,4.7,0.47,5.22   c-1.61,1.44-3.1,3-4.59,4.56c-0.44,0.46-1.84,2.02-5.51-0.12l-2.52-1.46c-2.43-1.41-5.59-0.59-7,1.85l-4.2,7.23   c-1.42,2.44-0.58,5.59,1.85,7l2.5,1.45c3.45,2,3.36,3.02,2.92,4.49c-0.6,2-1.25,4.01-1.68,6.08c-0.39,1.85-0.21,3.16-4.9,3.16   h-2.87c-2.82,0-5.13,2.31-5.13,5.13v8.36c0,2.82,2.31,5.12,5.13,5.12h2.87c4.68,0,4.5,1.32,4.9,3.17c0.44,2.07,1.08,4.08,1.68,6.09   c0.44,1.46,0.53,2.48-2.92,4.49l-2.5,1.45c-2.43,1.42-3.27,4.57-1.85,7l4.2,7.23c1.42,2.44,4.57,3.27,7,1.85l2.52-1.46   c3.68-2.13,5.07-0.58,5.51-0.12c1.49,1.56,2.98,3.12,4.59,4.56c0.59,0.53,1.41,1.99-0.47,5.22l-1.59,2.74   c-1.41,2.43-0.59,5.58,1.85,7l7.23,4.2c2.43,1.42,5.59,0.58,7-1.85l1.59-2.73c1.91-3.29,3.79-3.16,4.58-2.91   c2.3,0.73,4.43,1.21,6.81,1.83c0.87,0.22,2.36,0.85,2.36,4.76v2.94c0,2.82,2.3,5.12,5.12,5.12h8.36c2.82,0,5.12-2.3,5.12-5.12   v-2.94c0-3.91,1.49-4.54,2.36-4.76c2.38-0.62,4.5-1.1,6.81-1.83c0.79-0.25,2.67-0.38,4.58,2.91l1.59,2.73   c1.41,2.43,4.56,3.27,7,1.85l7.23-4.2c2.44-1.42,3.27-4.57,1.85-7l-1.59-2.74c-1.88-3.24-1.06-4.7-0.48-5.22   c1.62-1.44,3.11-3,4.6-4.56c0.44-0.46,1.84-2.02,5.51,0.12l2.52,1.46c2.43,1.42,5.59,0.59,7-1.85l4.2-7.23   c1.41-2.43,0.58-5.59-1.85-7l-2.5-1.45c-3.45-2.01-3.36-3.03-2.92-4.49c0.6-2.01,1.24-4.02,1.68-6.09c0.39-1.85,0.22-3.17,4.9-3.17   h2.87c2.82,0,5.13-2.3,5.13-5.12v-8.36c0-2.82-2.31-5.13-5.13-5.13h-2.87c-4.68,0-4.51-1.32-4.9-3.16   c-0.44-2.08-1.08-4.08-1.68-6.08c-0.44-1.47-0.53-2.49,2.92-4.49l2.5-1.45c2.43-1.41,3.27-4.56,1.85-7l-4.2-7.23   c-1.41-2.44-4.57-3.27-7-1.85l-2.52,1.46c-3.68,2.14-5.07,0.58-5.51,0.12c-1.49-1.56-2.98-3.12-4.6-4.56   c-0.58-0.52-1.4-1.99,0.48-5.22l1.59-2.74c1.42-2.44,0.59-5.59-1.85-7l-7.23-4.2c-2.44-1.42-5.59-0.59-7,1.85l-1.59,2.73   c-1.91,3.28-3.79,3.15-4.58,2.9c-2.31-0.73-4.43-1.21-6.81-1.82c-0.87-0.23-2.36-0.86-2.36-4.77v-2.93c0-2.82-2.3-5.12-5.12-5.12   h-8.36c-2.82,0-5.12,2.31-5.12,5.12v2.93c0,3.91-1.49,4.54-2.36,4.77c-2.38,0.61-4.51,1.09-6.81,1.82   c-0.79,0.25-2.67,0.39-4.58-2.9l-1.59-2.73C1544.59,1330.7,1541.44,1329.86,1539.01,1331.28L1539.01,1331.28z M1570.65,1382.96   c6.09,0,11.03,4.94,11.03,11.04c0,6.09-4.94,11.03-11.03,11.03c-6.09,0-11.03-4.94-11.03-11.03   C1559.61,1387.91,1564.56,1382.96,1570.65,1382.96L1570.65,1382.96z M1536.06,1394.01c0-1.3,1.06-2.37,2.36-2.37   c1.3,0,2.36,1.06,2.36,2.37c0,8.25,3.34,15.72,8.75,21.12c5.4,5.4,12.87,8.75,21.12,8.75c1.3,0,2.36,1.05,2.36,2.36   s-1.06,2.36-2.36,2.36c-9.55,0-18.2-3.88-24.46-10.14C1539.92,1412.21,1536.06,1403.56,1536.06,1394.01L1536.06,1394.01z    M1604.79,1388.43c0.2,1.28-0.67,2.49-1.96,2.69c-1.28,0.21-2.49-0.67-2.7-1.96c-1.01-6.26-3.98-11.87-8.25-16.18   c-4.28-4.32-9.86-7.34-16.11-8.43c-1.28-0.22-2.15-1.43-1.93-2.72c0.22-1.28,1.44-2.14,2.72-1.93c7.24,1.25,13.7,4.75,18.65,9.75   C1600.17,1374.66,1603.61,1381.17,1604.79,1388.43L1604.79,1388.43z M1570.65,1353.01c22.64,0,40.98,18.36,40.98,40.99   c0,22.63-18.35,40.98-40.98,40.98c-22.64,0-40.99-18.35-40.99-40.98C1529.66,1371.37,1548.01,1353.01,1570.65,1353.01z" clip-rule="evenodd"/><path fill="#fff" fill-rule="evenodd" d="M683.68,1195.95c-8.71-2.88-18.87,0.7-24.68,7.8c-5.52-7.67-15.87-11.51-25.05-9.29    c-9.18,2.22-16.63,10.37-18.03,19.71c-4.81-1.41-10.05-1.87-14.78-0.21c-4.73,1.66-8.78,5.75-9.42,10.72    c-3.51-0.73-7.12-1.45-10.67-0.95c-3.56,0.5-7.12,2.48-8.52,5.77c-2.09,4.9,1.59,10.83,6.6,12.65c4.99,1.82,10.63,0.45,15.41-1.88    c4.38,5.56,11.06,9.25,18.1,10c7.03,0.76,14.34-1.45,19.8-5.95c5.78,6.5,14.46,10.31,23.16,10.16c8.69-0.15,17.24-4.25,22.8-10.93    c5.92,4.61,19.5,10.1,25.86,3.52c2.67-2.78,3.45-7.23,1.85-10.75c3.9,0.04,7.69-2.5,9.15-6.11c1.45-3.62,0.48-8.07-2.34-10.75    c-5.72-5.42-11.83-1.68-16.01,3.18C696.95,1211.89,695.95,1199.79,683.68,1195.95z" clip-rule="evenodd"/><path fill="#f0f3f9" fill-rule="evenodd" d="M615.91,1214.18c-4.81-1.41-10.05-1.87-14.78-0.21c-4.73,1.66-8.78,5.75-9.42,10.72    c-3.51-0.73-7.12-1.45-10.67-0.95c-3.56,0.5-7.12,2.48-8.52,5.77c-2.09,4.9,1.59,10.83,6.6,12.65c4.99,1.82,10.63,0.45,15.41-1.88    c4.38,5.56,11.06,9.25,18.1,10c7.03,0.76,14.34-1.45,19.8-5.95c5.78,6.5,14.46,10.31,23.16,10.16c8.69-0.15,17.24-4.25,22.8-10.93    c5.92,4.61,19.5,10.1,25.86,3.52c2.67-2.78,3.45-7.23,1.85-10.75c3.9,0.04,7.69-2.5,9.15-6.11c1.45-3.62,0.48-8.07-2.34-10.75    c-5.72-5.42-11.83-1.68-16.01,3.18c0.05-8.34-0.54-17.48-6.53-22.97c0.54,6.04-0.53,12.27-3.82,17.32    c-3.81,5.87-10.91,9.8-17.84,8.8c-2.73-0.4-5.45-1.6-7.18-3.76c-2.27-2.84-2.16-6.98-4.41-9.73c-1.81-2.21-4.9-3.21-7.31-4.51    c2.73,1.48,3.92,5.05,3.19,8.07c-0.73,3.02-3.07,5.47-5.8,6.97c-4.04,2.23-9.12,2.56-13.34,0.72c-4.22-1.85-7.46-5.91-8.14-10.47    c-0.74-4.97,1.49-10.05,4.91-13.73c2.02-2.18,4.42-3.93,6.97-5.45c-1.24,0.08-2.47,0.27-3.68,0.56    C624.76,1196.7,617.31,1204.84,615.91,1214.18z" clip-rule="evenodd"/><path fill="#fff" fill-rule="evenodd" d="M678.38,1243.56c5.92,4.61,19.5,10.1,25.86,3.52c2.67-2.78,3.45-7.23,1.85-10.75c3.9,0.04,7.69-2.5,9.15-6.11    c1.45-3.62,0.48-8.07-2.34-10.75c0.36,2.65-0.24,5.01-1.5,7.38c-1.25,2.36-3.64,4.22-6.31,4.39c-2.67,0.18-5.47-1.6-6.06-4.21    c-0.8,1.54-0.02,3.43,1.01,4.83c1.04,1.39,2.37,2.65,2.84,4.32c0.7,2.54-0.89,5.26-3.12,6.64c-2.24,1.39-4.96,1.68-7.58,1.79    C687.25,1244.82,683.02,1245.21,678.38,1243.56z" clip-rule="evenodd"/><path fill="#fff" fill-rule="evenodd" d="M655.58,1254.49c-8.7,0.15-17.38-3.66-23.16-10.16c-5.46,4.5-12.77,6.71-19.8,5.95    c-7.04-0.75-13.72-4.45-18.1-10c-4.78,2.33-10.42,3.7-15.41,1.88c-5-1.82-8.69-7.75-6.6-12.65c0.19,4.25,4.59,7.68,8.68,8.82    c4.1,1.14,8.47,0.44,12.61-0.54c-0.89-2.52-1.1-5.28-0.59-7.9c3.19,4.45,7.02,8.8,12.17,10.62c3.05,1.07,6.34,1.19,9.57,1.23    c3.95,0.04,7.97-0.01,11.75-1.18c3.77-1.16,7.34-3.58,9.02-7.15c-2.52,5.35,5.22,12.38,8.86,14.99c3.71,2.65,7.9,4.54,12.09,6.37    L655.58,1254.49z" clip-rule="evenodd"/><path fill="#fff" fill-rule="evenodd" d="M545.2,942.07c-8.71-2.88-18.87,0.71-24.68,7.8c-5.51-7.67-15.87-11.5-25.05-9.28    c-9.19,2.22-16.64,10.36-18.04,19.71c-4.81-1.41-10.05-1.87-14.78-0.2c-4.72,1.66-8.78,5.75-9.42,10.72    c-3.52-0.73-7.12-1.45-10.67-0.96c-3.56,0.5-7.12,2.48-8.53,5.78c-2.08,4.9,1.59,10.82,6.6,12.64c5,1.83,10.63,0.46,15.41-1.87    c4.39,5.56,11.06,9.25,18.1,10c7.04,0.75,14.35-1.45,19.8-5.95c5.78,6.49,14.46,10.3,23.16,10.16    c8.69-0.15,17.24-4.25,22.81-10.94c5.91,4.62,19.5,10.11,25.85,3.52c2.68-2.78,3.45-7.23,1.86-10.75c3.89,0.03,7.69-2.5,9.14-6.11    c1.46-3.62,0.49-8.08-2.34-10.75c-5.72-5.42-11.83-1.68-16.01,3.17C558.47,958.01,557.48,945.91,545.2,942.07z" clip-rule="evenodd"/><path fill="#f0f3f9" fill-rule="evenodd" d="M477.44,960.3c-4.81-1.41-10.05-1.87-14.78-0.2c-4.72,1.66-8.78,5.75-9.42,10.72    c-3.52-0.73-7.12-1.45-10.67-0.96c-3.56,0.5-7.12,2.48-8.53,5.78c-2.08,4.9,1.59,10.82,6.6,12.64c5,1.83,10.63,0.46,15.41-1.87    c4.38,5.56,11.06,9.25,18.1,10c7.04,0.75,14.35-1.45,19.8-5.95c5.78,6.49,14.46,10.3,23.16,10.16    c8.69-0.15,17.24-4.25,22.81-10.94c5.91,4.62,19.5,10.11,25.85,3.52c2.68-2.78,3.45-7.23,1.86-10.75c3.89,0.03,7.69-2.5,9.14-6.11    c1.46-3.62,0.49-8.08-2.34-10.75c-5.72-5.42-11.83-1.68-16.01,3.17c0.04-8.34-0.55-17.48-6.53-22.96    c0.54,6.04-0.53,12.27-3.82,17.33c-3.81,5.86-10.9,9.8-17.83,8.79c-2.74-0.39-5.46-1.6-7.19-3.76c-2.27-2.84-2.16-6.97-4.41-9.72    c-1.8-2.21-4.9-3.21-7.31-4.51c2.73,1.48,3.93,5.05,3.19,8.07c-0.73,3.02-3.07,5.47-5.8,6.97c-4.03,2.22-9.11,2.56-13.33,0.71    c-4.23-1.85-7.46-5.9-8.14-10.46c-0.74-4.97,1.49-10.05,4.91-13.74c2.02-2.17,4.42-3.93,6.97-5.45c-1.24,0.09-2.46,0.27-3.67,0.56    C486.29,942.81,478.84,950.95,477.44,960.3z" clip-rule="evenodd"/><path fill="#fff" fill-rule="evenodd" d="M539.91,989.68c5.91,4.62,19.5,10.11,25.85,3.52c2.68-2.78,3.45-7.23,1.86-10.75    c3.89,0.03,7.69-2.5,9.14-6.11c1.46-3.62,0.49-8.08-2.34-10.75c0.36,2.65-0.24,5.01-1.5,7.37c-1.25,2.37-3.64,4.22-6.31,4.4    c-2.67,0.18-5.47-1.6-6.06-4.22c-0.81,1.54-0.03,3.44,1.01,4.83c1.03,1.39,2.36,2.65,2.83,4.33c0.7,2.53-0.89,5.26-3.12,6.64    c-2.23,1.38-4.96,1.68-7.58,1.79C548.78,990.93,544.55,991.32,539.91,989.68z" clip-rule="evenodd"/><path fill="#fff" fill-rule="evenodd" d="M517.1,1000.62c-8.7,0.14-17.38-3.67-23.16-10.16c-5.45,4.5-12.76,6.7-19.8,5.95    c-7.04-0.76-13.72-4.45-18.1-10c-4.78,2.33-10.41,3.71-15.41,1.87c-5-1.82-8.68-7.74-6.6-12.64c0.19,4.26,4.59,7.68,8.68,8.82    c4.1,1.14,8.47,0.44,12.61-0.54c-0.89-2.52-1.09-5.28-0.58-7.9c3.18,4.45,7.01,8.79,12.17,10.62c3.05,1.07,6.34,1.19,9.56,1.23    c3.95,0.04,7.97-0.02,11.75-1.18c3.78-1.16,7.34-3.58,9.02-7.15c-2.52,5.34,5.22,12.38,8.86,14.98c3.71,2.65,7.9,4.55,12.08,6.37    L517.1,1000.62z" clip-rule="evenodd"/><path fill="#fff" fill-rule="evenodd" d="M1472.46,1017.61c-8.72-2.88-18.87,0.7-24.69,7.8c-5.51-7.68-15.87-11.51-25.05-9.29    c-9.18,2.22-16.64,10.36-18.03,19.7c-4.81-1.41-10.06-1.86-14.78-0.2c-4.73,1.66-8.79,5.75-9.43,10.72    c-3.52-0.73-7.11-1.45-10.67-0.96c-3.56,0.5-7.12,2.48-8.52,5.78c-2.09,4.9,1.59,10.83,6.59,12.65c5,1.82,10.63,0.45,15.41-1.88    c4.38,5.56,11.06,9.25,18.1,10c7.03,0.76,14.34-1.45,19.8-5.95c5.78,6.5,14.46,10.31,23.16,10.16c8.7-0.15,17.25-4.25,22.81-10.94    c5.92,4.62,19.5,10.11,25.85,3.53c2.68-2.78,3.45-7.23,1.85-10.75c3.9,0.04,7.69-2.5,9.14-6.11c1.46-3.62,0.49-8.07-2.33-10.75    c-5.72-5.42-11.83-1.68-16.01,3.18C1485.73,1033.54,1484.73,1021.44,1472.46,1017.61z" clip-rule="evenodd"/><path fill="#f0f3f9" fill-rule="evenodd" d="M1404.69,1035.83c-4.81-1.41-10.06-1.86-14.78-0.2c-4.73,1.66-8.79,5.75-9.43,10.72    c-3.52-0.73-7.11-1.45-10.67-0.96c-3.56,0.5-7.12,2.48-8.52,5.78c-2.09,4.9,1.59,10.83,6.59,12.65c5,1.82,10.63,0.45,15.41-1.88    c4.38,5.56,11.06,9.25,18.1,10c7.03,0.76,14.34-1.45,19.8-5.95c5.78,6.5,14.46,10.31,23.16,10.16c8.7-0.15,17.25-4.25,22.81-10.94    c5.92,4.62,19.5,10.11,25.85,3.53c2.68-2.78,3.45-7.23,1.85-10.75c3.9,0.04,7.69-2.5,9.14-6.11c1.46-3.62,0.49-8.07-2.33-10.75    c-5.72-5.42-11.83-1.68-16.01,3.18c0.05-8.34-0.54-17.49-6.53-22.96c0.54,6.04-0.53,12.27-3.82,17.32    c-3.81,5.87-10.9,9.8-17.83,8.79c-2.74-0.39-5.45-1.59-7.19-3.76c-2.26-2.84-2.15-6.98-4.4-9.73c-1.81-2.21-4.9-3.21-7.31-4.51    c2.73,1.48,3.92,5.05,3.19,8.07c-0.73,3.02-3.06,5.47-5.79,6.97c-4.04,2.23-9.12,2.56-13.34,0.72c-4.22-1.85-7.45-5.91-8.14-10.47    c-0.74-4.97,1.49-10.05,4.91-13.73c2.02-2.18,4.42-3.93,6.97-5.45c-1.23,0.09-2.46,0.27-3.67,0.57    C1413.54,1018.35,1406.08,1026.49,1404.69,1035.83z" clip-rule="evenodd"/><path fill="#fff" fill-rule="evenodd" d="M1467.16,1065.21c5.92,4.62,19.5,10.11,25.85,3.53c2.68-2.78,3.45-7.23,1.85-10.75    c3.9,0.04,7.69-2.5,9.14-6.11c1.46-3.62,0.49-8.07-2.33-10.75c0.36,2.65-0.25,5.01-1.5,7.38c-1.25,2.36-3.64,4.21-6.31,4.39    c-2.67,0.18-5.47-1.6-6.06-4.21c-0.8,1.53-0.03,3.43,1.01,4.83s2.37,2.66,2.84,4.33c0.7,2.53-0.89,5.26-3.13,6.64    c-2.23,1.38-4.95,1.68-7.57,1.79C1476.03,1066.47,1471.8,1066.86,1467.16,1065.21z" clip-rule="evenodd"/><path fill="#fff" fill-rule="evenodd" d="M1444.35,1076.15c-8.69,0.15-17.38-3.66-23.16-10.16c-5.46,4.51-12.77,6.71-19.8,5.95    c-7.04-0.76-13.72-4.45-18.1-10c-4.78,2.33-10.42,3.7-15.41,1.88c-5-1.82-8.68-7.75-6.59-12.65c0.18,4.25,4.59,7.68,8.68,8.82    c4.1,1.14,8.47,0.44,12.6-0.54c-0.88-2.52-1.09-5.28-0.58-7.9c3.19,4.44,7.01,8.79,12.17,10.62c3.05,1.07,6.34,1.19,9.57,1.23    c3.95,0.04,7.97-0.01,11.75-1.18c3.77-1.16,7.33-3.58,9.02-7.15c-2.53,5.35,5.22,12.38,8.85,14.98c3.71,2.65,7.9,4.55,12.09,6.37    L1444.35,1076.15z" clip-rule="evenodd"/><path fill="#fff" fill-rule="evenodd" d="M1493.81,1205.77c-10.92-3.61-23.65,0.9-30.94,9.78c-6.91-9.61-19.89-14.42-31.4-11.64    c-11.51,2.79-20.84,12.99-22.6,24.7c-6.03-1.76-12.61-2.33-18.53-0.25c-5.92,2.08-11.01,7.2-11.81,13.43    c-4.41-0.91-8.92-1.82-13.38-1.2c-4.45,0.63-8.92,3.11-10.68,7.25c-2.62,6.14,1.99,13.56,8.26,15.84    c6.26,2.29,13.33,0.57,19.32-2.36c5.49,6.97,13.86,11.6,22.68,12.54c8.82,0.95,17.98-1.81,24.82-7.45    c7.25,8.14,18.13,12.92,29.03,12.73c10.89-0.19,21.62-5.32,28.58-13.7c7.42,5.78,24.44,12.67,32.4,4.41    c3.36-3.48,4.33-9.06,2.33-13.46c4.88,0.04,9.64-3.14,11.46-7.67c1.83-4.53,0.61-10.12-2.93-13.47    c-7.17-6.79-14.83-2.11-20.07,3.98C1510.43,1225.74,1509.19,1210.58,1493.81,1205.77z" clip-rule="evenodd"/><path fill="#f0f3f9" fill-rule="evenodd" d="M1408.87,1228.62c-6.03-1.76-12.61-2.33-18.53-0.25c-5.92,2.08-11.01,7.2-11.81,13.43    c-4.41-0.91-8.92-1.82-13.38-1.2c-4.45,0.63-8.92,3.11-10.68,7.25c-2.62,6.14,1.99,13.56,8.26,15.84    c6.26,2.29,13.33,0.57,19.32-2.36c5.49,6.97,13.86,11.6,22.68,12.54c8.82,0.95,17.98-1.81,24.82-7.45    c7.25,8.14,18.13,12.92,29.03,12.73c10.89-0.19,21.62-5.32,28.58-13.7c7.42,5.78,24.44,12.67,32.4,4.41    c3.36-3.48,4.33-9.06,2.33-13.46c4.88,0.04,9.64-3.14,11.46-7.67c1.83-4.53,0.61-10.12-2.93-13.47    c-7.17-6.79-14.83-2.11-20.07,3.98c0.07-10.45-0.67-21.91-8.17-28.77c0.67,7.57-0.67,15.37-4.79,21.7    c-4.78,7.36-13.66,12.28-22.35,11.03c-3.43-0.5-6.84-2.01-9-4.72c-2.84-3.56-2.7-8.74-5.52-12.19c-2.27-2.77-6.14-4.02-9.16-5.65    c3.42,1.86,4.92,6.32,4,10.11c-0.92,3.79-3.85,6.86-7.26,8.74c-5.06,2.79-11.42,3.22-16.72,0.9c-5.29-2.32-9.35-7.4-10.2-13.12    c-0.93-6.23,1.87-12.6,6.16-17.21c2.53-2.73,5.53-4.93,8.74-6.83c-1.55,0.11-3.09,0.34-4.6,0.71    C1419.96,1206.71,1410.63,1216.91,1408.87,1228.62z" clip-rule="evenodd"/><path fill="#fff" fill-rule="evenodd" d="M1487.17,1265.45c7.42,5.78,24.44,12.67,32.4,4.41c3.36-3.48,4.33-9.06,2.33-13.46    c4.88,0.04,9.64-3.14,11.46-7.67c1.83-4.53,0.61-10.12-2.93-13.47c0.45,3.33-0.31,6.28-1.88,9.24c-1.56,2.97-4.56,5.29-7.91,5.51    c-3.35,0.22-6.86-2-7.6-5.28c-1.01,1.93-0.04,4.31,1.26,6.05c1.3,1.74,2.97,3.33,3.56,5.42c0.88,3.17-1.11,6.6-3.91,8.33    c-2.8,1.73-6.21,2.1-9.5,2.24C1498.29,1267.02,1492.97,1267.51,1487.17,1265.45z" clip-rule="evenodd"/><path fill="#fff" fill-rule="evenodd" d="M1458.58,1279.15c-10.9,0.19-21.78-4.59-29.03-12.73c-6.84,5.65-16,8.4-24.82,7.45    c-8.82-0.94-17.18-5.56-22.68-12.54c-5.99,2.93-13.06,4.65-19.32,2.36c-6.27-2.28-10.88-9.71-8.26-15.84    c0.23,5.32,5.74,9.61,10.88,11.05c5.13,1.43,10.62,0.54,15.81-0.68c-1.11-3.16-1.36-6.61-0.73-9.89c4,5.56,8.79,11.01,15.25,13.3    c3.82,1.35,7.94,1.49,11.99,1.54c4.95,0.06,9.98-0.02,14.72-1.47c4.73-1.46,9.19-4.49,11.3-8.97    c-3.16,6.71,6.54,15.53,11.11,18.79c4.65,3.33,9.9,5.7,15.14,7.98L1458.58,1279.15z" clip-rule="evenodd"/><path fill="#fff" fill-rule="evenodd" d="M1526.41,644.63c-10.59-3.51-22.94,0.86-30.02,9.48c-6.71-9.32-19.3-13.99-30.46-11.29    c-11.18,2.7-20.23,12.61-21.94,23.96c-5.85-1.71-12.23-2.27-17.98-0.24c-5.74,2.02-10.68,6.99-11.46,13.03    c-4.28-0.88-8.66-1.77-12.97-1.16c-4.33,0.61-8.66,3.01-10.37,7.03c-2.54,5.95,1.94,13.16,8.02,15.38    c6.08,2.22,12.94,0.55,18.75-2.28c5.33,6.76,13.45,11.25,22.01,12.17c8.56,0.91,17.44-1.76,24.08-7.24    c7.03,7.9,17.6,12.53,28.18,12.35c10.57-0.18,20.98-5.17,27.74-13.29c7.19,5.61,23.71,12.28,31.44,4.28    c3.25-3.38,4.19-8.8,2.25-13.07c4.74,0.04,9.35-3.05,11.13-7.44c1.77-4.39,0.59-9.82-2.85-13.08c-6.95-6.59-14.38-2.05-19.47,3.87    C1542.55,664.01,1541.34,649.29,1526.41,644.63z" clip-rule="evenodd"/><path fill="#f0f3f9" fill-rule="evenodd" d="M1443.99,666.8c-5.85-1.71-12.23-2.27-17.98-0.24c-5.74,2.02-10.68,6.99-11.46,13.03    c-4.28-0.88-8.66-1.77-12.97-1.16c-4.33,0.61-8.66,3.01-10.37,7.03c-2.54,5.95,1.94,13.16,8.02,15.38    c6.08,2.22,12.94,0.55,18.75-2.28c5.33,6.76,13.45,11.25,22.01,12.17c8.56,0.91,17.44-1.76,24.08-7.24    c7.03,7.9,17.6,12.53,28.18,12.35c10.57-0.18,20.98-5.17,27.74-13.29c7.19,5.61,23.71,12.28,31.44,4.28    c3.25-3.38,4.19-8.8,2.25-13.07c4.74,0.04,9.35-3.05,11.13-7.44c1.77-4.39,0.59-9.82-2.85-13.08c-6.95-6.59-14.38-2.05-19.47,3.87    c0.06-10.14-0.66-21.27-7.93-27.93c0.65,7.35-0.65,14.92-4.66,21.07c-4.64,7.14-13.26,11.92-21.68,10.69    c-3.33-0.48-6.64-1.94-8.74-4.57c-2.75-3.45-2.62-8.49-5.36-11.83c-2.19-2.68-5.96-3.9-8.89-5.48c3.33,1.8,4.77,6.14,3.88,9.81    c-0.89,3.68-3.74,6.66-7.05,8.49c-4.91,2.71-11.08,3.12-16.22,0.87c-5.14-2.25-9.07-7.18-9.89-12.72    c-0.9-6.05,1.82-12.23,5.97-16.71c2.45-2.65,5.37-4.78,8.48-6.62c-1.5,0.1-2.99,0.33-4.46,0.69    C1454.75,645.53,1445.7,655.44,1443.99,666.8z" clip-rule="evenodd"/><path fill="#fff" fill-rule="evenodd" d="M1519.97,702.54c7.19,5.61,23.71,12.28,31.44,4.28c3.25-3.38,4.19-8.8,2.25-13.07    c4.74,0.04,9.35-3.05,11.13-7.44c1.77-4.39,0.59-9.82-2.85-13.08c0.44,3.23-0.29,6.1-1.81,8.97c-1.53,2.88-4.43,5.14-7.68,5.35    c-3.25,0.21-6.66-1.95-7.37-5.12c-0.97,1.87-0.03,4.17,1.23,5.87c1.26,1.7,2.88,3.23,3.45,5.26c0.86,3.07-1.08,6.4-3.79,8.08    c-2.72,1.67-6.03,2.04-9.22,2.18C1530.76,704.06,1525.61,704.54,1519.97,702.54z" clip-rule="evenodd"/><path fill="#fff" fill-rule="evenodd" d="M1492.23,715.83c-10.57,0.18-21.14-4.45-28.18-12.35c-6.63,5.48-15.51,8.15-24.08,7.24    c-8.56-0.92-16.68-5.41-22.01-12.17c-5.81,2.84-12.67,4.5-18.75,2.28c-6.08-2.22-10.55-9.43-8.02-15.38    c0.22,5.16,5.58,9.33,10.56,10.72c4.99,1.39,10.3,0.53,15.34-0.66c-1.08-3.06-1.33-6.42-0.7-9.6c3.87,5.4,8.52,10.69,14.8,12.91    c3.7,1.31,7.7,1.45,11.63,1.5c4.81,0.05,9.69-0.02,14.29-1.43c4.59-1.41,8.92-4.36,10.97-8.7c-3.07,6.51,6.34,15.06,10.78,18.23    c4.51,3.22,9.6,5.53,14.69,7.75L1492.23,715.83z" clip-rule="evenodd"/><path fill="#fff" fill-rule="evenodd" d="M1395.05,536.12c-7.6-2.52-16.46,0.61-21.54,6.8c-4.81-6.69-13.84-10.03-21.85-8.1    c-8.01,1.94-14.51,9.05-15.73,17.2c-4.2-1.23-8.78-1.63-12.9-0.18c-4.13,1.45-7.67,5.02-8.22,9.35c-3.07-0.64-6.21-1.27-9.31-0.84    c-3.1,0.44-6.21,2.16-7.43,5.05c-1.82,4.27,1.39,9.44,5.75,11.03c4.37,1.59,9.28,0.39,13.45-1.64c3.82,4.85,9.65,8.08,15.79,8.73    c6.14,0.66,12.51-1.26,17.27-5.19c5.05,5.66,12.62,8.99,20.21,8.86c7.59-0.13,15.05-3.7,19.9-9.54    c5.17,4.03,17.02,8.82,22.56,3.08c2.33-2.42,3.01-6.31,1.62-9.37c3.4,0.02,6.71-2.19,7.98-5.34c1.27-3.15,0.43-7.04-2.04-9.37    c-4.99-4.73-10.32-1.47-13.97,2.77C1406.62,550.02,1405.76,539.46,1395.05,536.12z" clip-rule="evenodd"/><path fill="#f0f3f9" fill-rule="evenodd" d="M1335.92,552.02c-4.2-1.23-8.78-1.63-12.9-0.18c-4.13,1.45-7.67,5.02-8.22,9.35    c-3.07-0.64-6.21-1.27-9.31-0.84c-3.1,0.44-6.21,2.16-7.43,5.05c-1.82,4.27,1.39,9.44,5.75,11.03c4.37,1.59,9.28,0.39,13.45-1.64    c3.82,4.85,9.65,8.08,15.79,8.73c6.14,0.66,12.51-1.26,17.27-5.19c5.05,5.66,12.62,8.99,20.21,8.86c7.59-0.13,15.05-3.7,19.9-9.54    c5.17,4.03,17.02,8.82,22.56,3.08c2.33-2.42,3.01-6.31,1.62-9.37c3.4,0.02,6.71-2.19,7.98-5.34c1.27-3.15,0.43-7.04-2.04-9.37    c-4.99-4.73-10.32-1.47-13.97,2.77c0.04-7.28-0.47-15.26-5.7-20.03c0.48,5.27-0.47,10.71-3.33,15.11    c-3.33,5.11-9.51,8.55-15.55,7.67c-2.39-0.35-4.77-1.39-6.27-3.28c-1.98-2.47-1.88-6.08-3.85-8.48c-1.58-1.93-4.27-2.8-6.37-3.94    c2.38,1.29,3.42,4.39,2.78,7.03c-0.64,2.64-2.68,4.78-5.05,6.09c-3.53,1.94-7.95,2.24-11.64,0.62c-3.68-1.62-6.51-5.15-7.1-9.13    c-0.64-4.34,1.3-8.77,4.29-11.99c1.75-1.9,3.85-3.42,6.08-4.75c-1.07,0.07-2.15,0.24-3.2,0.49    C1343.64,536.76,1337.15,543.87,1335.92,552.02z" clip-rule="evenodd"/><path fill="#fff" fill-rule="evenodd" d="M1390.42,577.65c5.17,4.03,17.02,8.82,22.56,3.08c2.33-2.42,3.01-6.31,1.62-9.37    c3.4,0.02,6.71-2.19,7.98-5.34c1.27-3.15,0.43-7.04-2.04-9.37c0.31,2.31-0.21,4.37-1.3,6.43c-1.1,2.07-3.18,3.68-5.51,3.84    c-2.33,0.16-4.78-1.39-5.29-3.68c-0.7,1.34-0.02,3,0.88,4.22c0.9,1.22,2.06,2.31,2.47,3.77c0.61,2.21-0.77,4.59-2.72,5.8    c-1.95,1.2-4.33,1.47-6.61,1.56C1398.17,578.75,1394.47,579.09,1390.42,577.65z" clip-rule="evenodd"/><path fill="#fff" fill-rule="evenodd" d="M1370.53,587.2c-7.59,0.13-15.16-3.2-20.21-8.86c-4.76,3.93-11.14,5.85-17.27,5.19    c-6.14-0.65-11.97-3.87-15.79-8.73c-4.17,2.04-9.08,3.23-13.45,1.64c-4.36-1.59-7.57-6.77-5.75-11.03c0.16,3.7,4,6.69,7.57,7.69    c3.58,0.99,7.4,0.38,11-0.47c-0.78-2.19-0.95-4.6-0.5-6.89c2.78,3.88,6.11,7.67,10.61,9.26c2.66,0.94,5.53,1.04,8.34,1.07    c3.45,0.04,6.96-0.02,10.25-1.03c3.3-1.01,6.4-3.12,7.87-6.24c-2.2,4.67,4.55,10.8,7.73,13.08c3.24,2.31,6.89,3.97,10.55,5.56    L1370.53,587.2z" clip-rule="evenodd"/><path fill="#fff" fill-rule="evenodd" d="M1678.77,731.21c-7.46-2.47-16.18,0.61-21.16,6.69c-4.73-6.57-13.6-9.86-21.47-7.96    c-7.88,1.9-14.27,8.89-15.47,16.9c-4.12-1.21-8.62-1.6-12.67-0.18c-4.05,1.42-7.53,4.93-8.08,9.19c-3.02-0.62-6.1-1.25-9.14-0.82    c-3.05,0.42-6.11,2.12-7.31,4.95c-1.79,4.2,1.37,9.28,5.65,10.84c4.29,1.57,9.12,0.39,13.22-1.61c3.76,4.77,9.48,7.93,15.52,8.58    c6.03,0.65,12.29-1.24,16.98-5.11c4.96,5.57,12.4,8.83,19.86,8.71c7.45-0.13,14.78-3.64,19.55-9.37    c5.07,3.96,16.72,8.66,22.17,3.02c2.3-2.38,2.96-6.2,1.59-9.22c3.34,0.03,6.59-2.14,7.84-5.25c1.25-3.1,0.42-6.92-2.01-9.21    c-4.9-4.65-10.15-1.45-13.72,2.72C1690.15,744.88,1689.3,734.5,1678.77,731.21z" clip-rule="evenodd"/><path fill="#f0f3f9" fill-rule="evenodd" d="M1620.67,746.85c-4.12-1.21-8.62-1.6-12.67-0.18c-4.05,1.42-7.53,4.93-8.08,9.19    c-3.02-0.62-6.1-1.25-9.14-0.82c-3.05,0.42-6.11,2.12-7.31,4.95c-1.79,4.2,1.37,9.28,5.65,10.84c4.29,1.57,9.12,0.39,13.22-1.61    c3.76,4.77,9.48,7.93,15.52,8.58c6.03,0.65,12.29-1.24,16.98-5.11c4.96,5.57,12.4,8.83,19.86,8.71    c7.45-0.13,14.78-3.64,19.55-9.37c5.07,3.96,16.72,8.66,22.17,3.02c2.3-2.38,2.96-6.2,1.59-9.22c3.34,0.03,6.59-2.14,7.84-5.25    c1.25-3.1,0.42-6.92-2.01-9.21c-4.9-4.65-10.15-1.45-13.72,2.72c0.04-7.15-0.47-14.99-5.6-19.69c0.47,5.18-0.46,10.52-3.28,14.86    c-3.27,5.02-9.34,8.39-15.28,7.54c-2.35-0.34-4.68-1.37-6.17-3.23c-1.94-2.44-1.85-5.99-3.77-8.34c-1.55-1.89-4.2-2.75-6.27-3.87    c2.35,1.28,3.36,4.33,2.73,6.92c-0.62,2.59-2.62,4.69-4.96,5.98c-3.46,1.91-7.81,2.19-11.43,0.61c-3.62-1.59-6.39-5.06-6.97-8.97    c-0.64-4.26,1.27-8.61,4.21-11.77c1.73-1.87,3.79-3.37,5.97-4.67c-1.05,0.07-2.11,0.23-3.14,0.48    C1628.25,731.85,1621.87,738.83,1620.67,746.85z" clip-rule="evenodd"/><path fill="#fff" fill-rule="evenodd" d="M1674.23,772.04c5.07,3.96,16.72,8.66,22.17,3.02c2.3-2.38,2.96-6.2,1.59-9.22c3.34,0.03,6.59-2.14,7.84-5.25    c1.25-3.1,0.42-6.92-2.01-9.21c0.31,2.27-0.21,4.29-1.28,6.32c-1.07,2.03-3.12,3.62-5.41,3.77c-2.29,0.15-4.69-1.37-5.2-3.61    c-0.68,1.32-0.02,2.94,0.87,4.14c0.89,1.2,2.03,2.27,2.43,3.71c0.61,2.17-0.76,4.51-2.67,5.69c-1.92,1.18-4.25,1.45-6.5,1.53    C1681.84,773.11,1678.21,773.45,1674.23,772.04z" clip-rule="evenodd"/><path fill="#fff" fill-rule="evenodd" d="M1654.68,781.41c-7.46,0.13-14.9-3.13-19.86-8.71c-4.68,3.86-10.95,5.75-16.98,5.11    c-6.04-0.65-11.76-3.82-15.52-8.58c-4.1,2-8.93,3.18-13.22,1.61c-4.28-1.57-7.44-6.64-5.65-10.84c0.16,3.65,3.93,6.58,7.45,7.56    c3.51,0.99,7.26,0.38,10.81-0.46c-0.76-2.16-0.94-4.53-0.5-6.77c2.73,3.81,6.02,7.54,10.43,9.1c2.61,0.93,5.43,1.02,8.2,1.06    c3.39,0.04,6.83-0.01,10.07-1.01c3.23-0.99,6.28-3.07,7.73-6.13c-2.16,4.59,4.48,10.62,7.59,12.85c3.19,2.27,6.77,3.9,10.36,5.46    L1654.68,781.41z" clip-rule="evenodd"/><path fill="#fff" fill-rule="evenodd" d="M1047.41,744.74c8.71-2.88,18.87,0.71,24.68,7.8c5.52-7.67,15.87-11.5,25.05-9.28    c9.18,2.21,16.63,10.36,18.03,19.7c4.81-1.41,10.06-1.86,14.79-0.2c4.72,1.66,8.78,5.75,9.42,10.72    c3.51-0.73,7.12-1.45,10.67-0.96c3.55,0.5,7.11,2.48,8.52,5.78c2.08,4.9-1.59,10.82-6.6,12.65c-5,1.82-10.63,0.45-15.41-1.88    c-4.38,5.56-11.06,9.25-18.09,10c-7.04,0.75-14.35-1.44-19.8-5.95c-5.78,6.5-14.47,10.31-23.16,10.16    c-8.69-0.15-17.25-4.25-22.81-10.93c-5.91,4.61-19.5,10.11-25.85,3.52c-2.67-2.77-3.45-7.23-1.85-10.74    c-3.9,0.04-7.69-2.5-9.15-6.11c-1.45-3.62-0.48-8.08,2.34-10.75c5.72-5.42,11.83-1.68,16.01,3.18    C1034.14,760.68,1035.14,748.57,1047.41,744.74z" clip-rule="evenodd"/><path fill="#f0f3f9" fill-rule="evenodd" d="M1115.17,762.97c4.81-1.41,10.06-1.86,14.79-0.2c4.72,1.66,8.78,5.75,9.42,10.72    c3.51-0.73,7.12-1.45,10.67-0.96c3.55,0.5,7.11,2.48,8.52,5.78c2.08,4.9-1.59,10.82-6.6,12.65c-5,1.82-10.63,0.45-15.41-1.88    c-4.38,5.56-11.06,9.25-18.09,10c-7.04,0.75-14.35-1.44-19.8-5.95c-5.78,6.5-14.47,10.31-23.16,10.16    c-8.69-0.15-17.25-4.25-22.81-10.93c-5.91,4.61-19.5,10.11-25.85,3.52c-2.67-2.77-3.45-7.23-1.85-10.74    c-3.9,0.04-7.69-2.5-9.15-6.11c-1.45-3.62-0.48-8.08,2.34-10.75c5.72-5.42,11.83-1.68,16.01,3.18    c-0.05-8.34,0.54-17.49,6.52-22.96c-0.53,6.04,0.54,12.27,3.82,17.32c3.82,5.86,10.91,9.8,17.83,8.79    c2.74-0.39,5.46-1.6,7.19-3.76c2.27-2.83,2.16-6.97,4.41-9.72c1.8-2.21,4.9-3.21,7.31-4.51c-2.73,1.48-3.93,5.05-3.19,8.07    c0.73,3.02,3.07,5.47,5.8,6.97c4.04,2.23,9.11,2.56,13.34,0.71c4.22-1.85,7.46-5.9,8.14-10.46c0.74-4.97-1.49-10.05-4.91-13.74    c-2.02-2.17-4.42-3.93-6.97-5.45c1.24,0.09,2.47,0.27,3.68,0.57C1106.33,745.48,1113.78,753.62,1115.17,762.97z" clip-rule="evenodd"/><path fill="#fff" fill-rule="evenodd" d="M1052.7,792.35c-5.91,4.61-19.5,10.11-25.85,3.52c-2.67-2.77-3.45-7.23-1.85-10.74    c-3.9,0.04-7.69-2.5-9.15-6.11c-1.45-3.62-0.48-8.08,2.34-10.75c-0.36,2.65,0.24,5.01,1.5,7.37c1.25,2.37,3.64,4.22,6.31,4.4    c2.67,0.18,5.47-1.6,6.07-4.22c0.8,1.54,0.02,3.44-1.01,4.83c-1.04,1.39-2.37,2.65-2.84,4.33c-0.7,2.53,0.89,5.26,3.12,6.64    c2.24,1.38,4.96,1.68,7.58,1.79C1043.83,793.61,1048.07,793.99,1052.7,792.35z" clip-rule="evenodd"/><path fill="#fff" fill-rule="evenodd" d="M1075.51,803.28c8.7,0.15,17.38-3.66,23.16-10.16c5.45,4.51,12.76,6.7,19.8,5.95    c7.04-0.76,13.72-4.44,18.09-10c4.78,2.33,10.41,3.7,15.41,1.88c5-1.83,8.68-7.75,6.6-12.65c-0.19,4.25-4.59,7.68-8.68,8.82    c-4.1,1.14-8.47,0.44-12.61-0.54c0.89-2.52,1.09-5.28,0.59-7.9c-3.19,4.45-7.02,8.79-12.17,10.62c-3.04,1.07-6.33,1.19-9.56,1.23    c-3.95,0.04-7.97-0.02-11.75-1.18c-3.77-1.16-7.34-3.58-9.02-7.15c2.52,5.34-5.22,12.38-8.86,14.98    c-3.7,2.65-7.89,4.55-12.08,6.37L1075.51,803.28z" clip-rule="evenodd"/><path fill="#fff" fill-rule="evenodd" d="M862.91,804.23c8.71-2.88,18.87,0.71,24.69,7.8c5.51-7.67,15.87-11.51,25.05-9.29    c9.18,2.22,16.63,10.37,18.03,19.71c4.81-1.41,10.06-1.87,14.79-0.21c4.73,1.67,8.78,5.75,9.42,10.72    c3.51-0.72,7.12-1.45,10.67-0.95c3.56,0.5,7.11,2.48,8.52,5.78c2.09,4.89-1.59,10.82-6.6,12.64c-4.99,1.82-10.63,0.46-15.41-1.88    c-4.38,5.57-11.06,9.26-18.09,10c-7.03,0.76-14.34-1.44-19.8-5.95c-5.78,6.5-14.47,10.31-23.16,10.16    c-8.69-0.15-17.25-4.25-22.8-10.93c-5.92,4.61-19.5,10.1-25.85,3.52c-2.67-2.78-3.45-7.23-1.85-10.74    c-3.9,0.03-7.69-2.5-9.15-6.12c-1.45-3.61-0.48-8.07,2.34-10.75c5.72-5.42,11.83-1.68,16.01,3.18    C849.64,820.16,850.64,808.06,862.91,804.23z" clip-rule="evenodd"/><path fill="#f0f3f9" fill-rule="evenodd" d="M930.68,822.46c4.81-1.41,10.06-1.87,14.79-0.21c4.73,1.67,8.78,5.75,9.42,10.72    c3.51-0.72,7.12-1.45,10.67-0.95c3.56,0.5,7.11,2.48,8.52,5.78c2.09,4.89-1.59,10.82-6.6,12.64c-4.99,1.82-10.63,0.46-15.41-1.88    c-4.38,5.57-11.06,9.26-18.09,10c-7.03,0.76-14.34-1.44-19.8-5.95c-5.78,6.5-14.47,10.31-23.16,10.16    c-8.69-0.15-17.25-4.25-22.8-10.93c-5.92,4.61-19.5,10.1-25.85,3.52c-2.67-2.78-3.45-7.23-1.85-10.74    c-3.9,0.03-7.69-2.5-9.15-6.12c-1.45-3.61-0.48-8.07,2.34-10.75c5.72-5.42,11.83-1.68,16.01,3.18    c-0.05-8.34,0.54-17.48,6.53-22.96c-0.54,6.03,0.53,12.26,3.81,17.32c3.82,5.87,10.91,9.8,17.84,8.79c2.74-0.4,5.46-1.6,7.19-3.76    c2.26-2.84,2.16-6.98,4.4-9.73c1.81-2.21,4.9-3.2,7.31-4.51c-2.73,1.49-3.92,5.05-3.19,8.07c0.73,3.02,3.06,5.47,5.79,6.97    c4.04,2.23,9.11,2.57,13.34,0.72c4.22-1.85,7.46-5.91,8.14-10.46c0.74-4.98-1.49-10.05-4.91-13.74c-2.02-2.18-4.42-3.93-6.97-5.45    c1.24,0.09,2.47,0.27,3.68,0.56C921.83,804.97,929.28,813.12,930.68,822.46z" clip-rule="evenodd"/><path fill="#fff" fill-rule="evenodd" d="M868.21,851.84c-5.92,4.61-19.5,10.1-25.85,3.52c-2.67-2.78-3.45-7.23-1.85-10.74    c-3.9,0.03-7.69-2.5-9.15-6.12c-1.45-3.61-0.48-8.07,2.34-10.75c-0.36,2.66,0.24,5.01,1.5,7.38c1.25,2.36,3.64,4.22,6.31,4.39    c2.67,0.18,5.47-1.6,6.06-4.21c0.8,1.54,0.03,3.44-1.01,4.83c-1.04,1.39-2.37,2.65-2.84,4.33c-0.7,2.53,0.89,5.26,3.13,6.64    c2.23,1.38,4.95,1.68,7.57,1.79C859.34,853.1,863.57,853.49,868.21,851.84z" clip-rule="evenodd"/><path fill="#fff" fill-rule="evenodd" d="M891.01,862.77c8.7,0.15,17.38-3.66,23.16-10.16c5.46,4.51,12.77,6.71,19.8,5.95    c7.04-0.75,13.72-4.44,18.09-10c4.78,2.34,10.42,3.7,15.41,1.88c5-1.82,8.68-7.75,6.6-12.64c-0.19,4.25-4.59,7.67-8.68,8.81    c-4.1,1.15-8.47,0.44-12.61-0.54c0.89-2.52,1.1-5.28,0.59-7.89c-3.19,4.44-7.01,8.79-12.17,10.61c-3.05,1.08-6.34,1.19-9.57,1.23    c-3.95,0.04-7.97-0.02-11.75-1.18c-3.77-1.16-7.34-3.58-9.02-7.15c2.52,5.35-5.22,12.38-8.85,14.99    c-3.71,2.65-7.9,4.54-12.09,6.37L891.01,862.77z" clip-rule="evenodd"/><path fill="#fab688" fill-rule="evenodd" d="M753.89,1280.73l1.17,8.9l9.12-4.68c0,0,4.27-8.94,9.79-20.84c-4.59-1.36-9.32-2.4-14.07-3.48   C756.57,1272.34,753.89,1280.73,753.89,1280.73z" clip-rule="evenodd"/><path fill="#0e2952" fill-rule="evenodd" d="M764.71,1284.31c0,0-4.97-0.78-6.27-1.71c-1.3-0.94-2.31-3.53-4.21-3.21c-1.89,0.32-7.88,7.4-8.2,9.4   c-0.33,2.1,0.11,4.77,1.44,5.7c1.33,0.95,23.99,11.83,28.43,12.64c4.43,0.82,7.7-2.75,4.25-6.51   C776.7,1296.85,767.5,1283.85,764.71,1284.31z" clip-rule="evenodd"/><path fill="#20386f" fill-rule="evenodd" d="M712.84,1174.12c0,0,85.19,0.68,87.86,11.05c6.25,24.23-32.24,94.73-32.24,94.73l-13.8-4.08l15.04-70.91   c0,0-37.9,0.96-41.53-0.96C724.51,1202.02,712.84,1174.12,712.84,1174.12z" clip-rule="evenodd"/><path fill="#fab688" fill-rule="evenodd" d="M701.28,1341.02l2.62,8.6l8.22-6.11c0,0,2.75-9.52,6.23-22.19c-4.77-0.56-9.6-0.83-14.47-1.11   C702.53,1332.3,701.28,1341.02,701.28,1341.02z" clip-rule="evenodd"/><path fill="#0e2952" fill-rule="evenodd" d="M712.54,1342.77c0,0-5.04,0.05-6.48-0.65c-1.43-0.71-2.87-3.09-4.67-2.47c-1.82,0.61-6.57,8.59-6.54,10.6   c0.02,2.14,0.9,4.69,2.36,5.4c1.47,0.72,30.34,8.34,34.86,8.43c4.51,0.08,4.6-4.57,0.59-7.71   C728.64,1353.22,715.21,1341.85,712.54,1342.77z" clip-rule="evenodd"/><path fill="#223f81" fill-rule="evenodd" d="M729,1180.27l-9.17-9.34c0,0-23.68,6.62-25.45,17.89c-1.77,11.27,11.81,79.35,11.81,79.35   s-3.53,48.22-5.5,65.8c4.87,0.28,11.68,0.82,16.44,1.39c6.01-21.93,18.07-69.53,18.07-69.53l-0.13-63.49L729,1180.27z" clip-rule="evenodd"/><path fill="#f9af79" fill-rule="evenodd" d="M803.79,1151.43c-5.31,0.41-5.04,1.3-5.72,1.31c-0.8,0.05-10.16-5.48-10.16-5.48s-27.65-16.12-29.11-17.04   l-19.36-27.07l-15.95,5.9c0,0,21.84,28.86,23.24,30.18c1.39,1.29,41.26,18.67,44.73,20.32c0,0,3.42,3.51,5.63,5.64   c2.22,2.13,5.25,3.14,5.97,3.64c0.1,0.07,2.58,1.62,6.12,2.65c3.06,0.94,0.58-1.33,0.58-1.33s-5.37-2.74-5.08-3.13   c0.21-0.31,3.05,1.36,6.43,2.42c0.87,0.27,1.72,0.53,2.5,0.75c2.07,0.62,3.04-0.47,0.97-1.48c-0.73-0.35-1.96-0.9-2.88-1.16   c-1.01-0.3-1.84-0.9-2.64-1.28c-1.59-0.74-2.78-1.28-2.71-1.32c0.09-0.05-0.13-0.44,0.8-0.17c1.12,0.3,3.34,1.49,5.02,1.82   c0.95,0.19,2.9,0.69,2.9,0.69s3.28,0.47,3.34,0.29c0.39-0.96-1.86-1.99-3.17-2.05c-0.82-0.5-2.89-0.97-2.89-0.97   s-3.99-1.92-3.74-2.5c0.21-0.48,10.64,2.25,10.97,1.26c0.27-0.82-2.84-1.79-2.84-1.79s-1.92-0.43-2.55-0.63   c-0.73-0.23-2.89-1.1-2.89-1.1s-7.34-3.32-7.06-3.85c0.28-0.53,1.57-1.56,2.08-1.51c0.53,0.05,1.45,0.65,1.96,0.68   c0.53,0.04,1.26-0.36,1.36-0.99c0.1-0.66-2.36-1.86-2.36-1.86S805.32,1151.3,803.79,1151.43z" clip-rule="evenodd"/><path fill="#466fb5" fill-rule="evenodd" d="M746.71,1110.47l-15.72,11.65c0,0-9.02-13.44-12.95-20.08c-4.78-8.05-9.95-18.82-8.86-19.16   c3.06-0.97,7.29-1.6,11.23,0.11C734.03,1088.95,746.71,1110.47,746.71,1110.47z" clip-rule="evenodd"/><path fill="#f48661" fill-rule="evenodd" d="M798.02,1157.12c2.3,0.59,4.38,0.3,6.24-1.16C803.03,1158.38,799.77,1158.58,798.02,1157.12z" clip-rule="evenodd"/><path fill="#6d96ce" fill-rule="evenodd" d="M688.86,1082.04c0,0-10.05,2.69-12.5,5.01c-2.75,2.59-10.84,14.16-10.84,14.16s26.48,53.49,26.96,63.54   c0.48,10.05,0.17,25.07,0.17,25.07s38.49-2.33,52.14-9.78c0,0-7.61-22-8.34-27.91c-0.74-5.93-10.64-64.8-12.84-67.67   c-2.21-2.88-6.07-4.17-13.19-4.83C703.31,1078.96,688.86,1082.04,688.86,1082.04z" clip-rule="evenodd"/><path fill="#f9af79" fill-rule="evenodd" d="M689.66,1065.73l-0.47,16.87c0,0,11.69,18.58,17,16.19c4.44-2.02-0.57-19.1-0.57-19.1s-3.69-9.08-3.53-13.86   C702.28,1061.07,689.66,1065.73,689.66,1065.73z" clip-rule="evenodd"/><path fill="#ed7d57" fill-rule="evenodd" d="M702.09,1065.83c0.19-4.77-12.43-0.1-12.43-0.1l-0.04,1.39c0.5,0.88,1.05,1.62,1.7,2.15   c3.28,2.73,8.06,4.05,12,3.69C702.61,1070.49,702.02,1067.8,702.09,1065.83z" clip-rule="evenodd"/><path fill="#f9af79" fill-rule="evenodd" d="M684.62,1042.58c-0.38-0.09-0.6,19.21,4.94,23.85c5.54,4.6,15.28,5.14,18.18,0.59   c1.44-2.24,4.11-8.37,0.93-14.52c-3.21-6.22-4.14-12.88-8.72-15.34C691.69,1032.74,684.62,1042.58,684.62,1042.58z" clip-rule="evenodd"/><path fill="#20386f" fill-rule="evenodd" d="M697.56,1021.13c-5.3,15.49-13.26,14.38-14.46,16.07c-11.06,2.69-15.66,22.36-3.23,29.64   c5.88,3.46,9.61,5.19,9.61,5.19l0.55-2.61c0.39-1.93,0.4-3.95-0.04-5.88c-0.27-1.14-0.69-2.38-1.31-3.37   c-1.62-2.58,2.2-4.91,3.06-7.35c0.66-1.86,0.19-5.91,1.22-8.97l1.37-2.45c0,0,3.44-3.41,7.26-3.02   C705.4,1038.73,706.71,1028.86,697.56,1021.13z" clip-rule="evenodd"/><path fill="#f9af79" fill-rule="evenodd" d="M691.9,1056.24c0.32,2.31-0.5,4.35-1.85,4.52c-1.34,0.19-2.7-1.53-3.02-3.84c-0.32-2.32,0.5-4.34,1.85-4.53   C690.22,1052.2,691.58,1053.92,691.9,1056.24z" clip-rule="evenodd"/><path fill="#20386f" fill-rule="evenodd" d="M697.6,1053.24c-0.76,0.28-2.45-2.54-0.59-3.21C698.01,1049.67,698.86,1052.78,697.6,1053.24z" clip-rule="evenodd"/><path fill="#20386f" fill-rule="evenodd" d="M706.02,1050.03c0.77-0.28,0.3-3.53-1.57-2.84C703.45,1047.54,704.76,1050.49,706.02,1050.03z" clip-rule="evenodd"/><path fill="#20386f" fill-rule="evenodd" d="M696.71,1047.11c1.25-0.41,1.58,0.63,0.78,1.24c-0.24,0.18-4.9,2.99-4.79,2.6   C692.9,1050.15,694.34,1047.88,696.71,1047.11z" clip-rule="evenodd"/><path fill="#20386f" fill-rule="evenodd" d="M702.23,1044.61c-1.24,0.44-0.89,1.47,0.11,1.46c0.47-0.01,5.76-0.56,5.3-0.89   C706.9,1044.66,704.5,1043.81,702.23,1044.61z" clip-rule="evenodd"/><path fill="#ed7d57" fill-rule="evenodd" d="M709.01,1055.85c-1.74,2.49-2.32,1.23-1.58,0.84c2.45-1.31-0.57-0.88-3.22-4.85   c-0.27-0.42,0.2-0.73,0.47-0.41c0.19,0.21,0.78,1.08,1,1.3C708.35,1055.44,709.57,1055.05,709.01,1055.85z" clip-rule="evenodd"/><path fill="#fff" fill-rule="evenodd" d="M708.75,1059.58c-2.07,7.97-7.54,2.51-6.49,2.07C707.66,1059.4,709.01,1058.61,708.75,1059.58z" clip-rule="evenodd"/><path fill="#9db2d9" fill-rule="evenodd" d="M692.58,1126.57l21.13,14.6l1.73-2.5c-1.19-4.2-0.57-8.88,2.1-12.75c4.76-6.88,14.19-8.61,21.08-3.85   c6.89,4.76,8.6,14.19,3.85,21.08c-2.67,3.87-6.84,6.11-11.19,6.48l-1.73,2.5l21.13,14.59c3.99,2.76,5.01,8.28,2.25,12.28   l-20.19,29.22l-3.07-2.12c-0.37-4.35-2.61-8.51-6.48-11.18c-6.89-4.76-16.32-3.03-21.07,3.85c-4.76,6.88-3.03,16.32,3.85,21.07   c3.87,2.68,8.56,3.3,12.76,2.11l3.07,2.12l-20.19,29.23c-2.76,3.99-8.28,5-12.28,2.25l-21.12-14.6l-1.93,2.8   c1.19,4.2,0.57,8.88-2.1,12.75c-4.76,6.89-14.19,8.61-21.08,3.85s-8.61-14.19-3.85-21.08c2.67-3.87,6.83-6.11,11.18-6.48l1.94-2.8   l-21.13-14.59c-3.99-2.76-5-8.29-2.25-12.29l20.19-29.22l2.08,1.43c0.37,4.35,2.62,8.51,6.48,11.19   c6.89,4.75,16.32,3.03,21.08-3.85c4.76-6.89,3.03-16.32-3.85-21.08c-3.88-2.67-8.55-3.3-12.75-2.1l-2.08-1.44l20.19-29.23   C683.06,1124.82,688.59,1123.82,692.58,1126.57z" clip-rule="evenodd"/><path fill="#859ac6" fill-rule="evenodd" d="M708.76,1137.76l4.96,3.42l1.73-2.5c-1.19-4.2-0.57-8.88,2.1-12.75c2.74-3.97,7.04-6.22,11.51-6.51   c1.03,0.42,2.03,0.95,2.98,1.6c6.89,4.76,8.6,14.19,3.85,21.07c-2.67,3.87-6.84,6.11-11.19,6.49l-1.73,2.5l21.13,14.6   c3.99,2.76,5.01,8.28,2.25,12.29l-17.28,25.01c-0.95-3.16-2.95-6.03-5.87-8.04c-2.91-2.02-6.28-2.87-9.57-2.66   c-6.42-2.57-13.99-0.48-18.09,5.45c-4.76,6.88-3.03,16.32,3.85,21.08c2.92,2.02,6.29,2.87,9.57,2.65c1.79,0.72,3.68,1.08,5.56,1.09   l0.71,0.49l-20.19,29.23c-1.3,1.87-3.2,3.09-5.28,3.57c-0.14-0.09-0.28-0.18-0.42-0.27l-21.12-14.6l-1.64,2.37l-4.95-3.42   l-1.93,2.8c1.19,4.2,0.57,8.88-2.1,12.75c-2.75,3.97-7.05,6.22-11.52,6.51c-1.02-0.42-2.02-0.94-2.97-1.6   c-6.88-4.76-8.61-14.19-3.85-21.08c2.67-3.87,6.83-6.11,11.18-6.48l1.94-2.8l-21.13-14.6c-3.99-2.76-5-8.29-2.25-12.29l16.79-24.3   c1.07,2.59,2.89,4.93,5.37,6.64c2.92,2.02,6.28,2.87,9.57,2.66c6.42,2.57,14,0.48,18.1-5.45c4.76-6.89,3.03-16.32-3.85-21.08   c-2.91-2.02-6.28-2.86-9.57-2.65c-1.66-0.67-3.4-1.02-5.13-1.07l20.06-29.04c1.3-1.87,3.2-3.09,5.27-3.57   c0.14,0.09,0.28,0.18,0.42,0.27l21.14,14.6L708.76,1137.76z" clip-rule="evenodd"/><path fill="#f9af79" fill-rule="evenodd" d="M674.9,1206.08c-3.54-4.45-4.13-3.68-4.56-4.27c-0.52-0.7-1.47-12.23-1.47-12.23s-3.03-34.04-3.13-35.89   l6.93-20.51l-14.74-8.81c-3.17,10.4-6.91,22.78-7.05,23.94c-0.27,2.02,9.04,47.62,9.74,51.67c0,0-0.9,5.12-1.36,8.34   c-0.46,3.2,0.5,6.51,0.5,7.43c0,0.15,0.19,3.25,1.43,7.02c1.07,3.24,1.5-0.32,1.5-0.32s-0.92-6.35-0.42-6.34   c0.39,0.01,0.7,3.53,1.83,7.13c0.29,0.91,0.59,1.85,0.87,2.68c0.71,2.21,2.23,2.39,1.83-0.02c-0.13-0.84-0.41-2.28-0.74-3.26   c-0.36-1.05-0.35-2.13-0.52-3.07c-0.32-1.85-0.59-3.2-0.51-3.19c0.1,0.04,0.29-0.38,0.63,0.6c0.41,1.19,0.75,3.87,1.47,5.53   c0.42,0.94,1.16,3,1.16,3s1.7,2.88,1.89,2.82c1.06-0.21,0.44-2.51-0.28-3.74c-0.08-1.01-0.93-3.13-0.93-3.13s-0.78-4.67-0.13-4.8   c0.27-0.04,1.08,2.77,2.3,5.42c1.13,2.45,2.66,4.75,3.17,4.58c0.85-0.24-0.13-3.1-0.13-3.1s-0.78-1.95-0.99-2.63   c-0.25-0.78-0.82-3.19-0.82-3.19s-1.62-8.5-0.99-8.55c0.62-0.04,2.26,0.48,2.54,0.97c0.27,0.49,0.32,1.66,0.6,2.15   c0.28,0.49,1.05,0.9,1.66,0.61c0.61-0.29,0.16-3.19,0.16-3.19S675.92,1207.4,674.9,1206.08z" clip-rule="evenodd"/><path fill="#466fb5" fill-rule="evenodd" d="M655.33,1122.82l18.75,11.2c0,0,6.65-8.16,9.45-16.65c2.82-8.57-3.48-31.81-7.43-30.22   C667.28,1090.77,655.33,1122.82,655.33,1122.82z" clip-rule="evenodd"/><g><path fill="#fff" fill-rule="evenodd" d="M279.69,1272.17c8.71-2.88,18.87,0.71,24.68,7.8c5.52-7.67,15.87-11.5,25.05-9.28    c9.18,2.22,16.63,10.36,18.03,19.71c4.81-1.41,10.05-1.86,14.78-0.2c4.72,1.66,8.78,5.75,9.43,10.72    c3.51-0.73,7.11-1.45,10.67-0.96c3.56,0.5,7.11,2.48,8.52,5.78c2.08,4.9-1.59,10.82-6.59,12.65c-5,1.82-10.63,0.45-15.42-1.88    c-4.38,5.56-11.06,9.25-18.1,10c-7.03,0.75-14.34-1.45-19.8-5.95c-5.78,6.5-14.46,10.31-23.16,10.16    c-8.69-0.15-17.24-4.25-22.8-10.94c-5.92,4.62-19.5,10.11-25.85,3.52c-2.68-2.77-3.45-7.23-1.85-10.75    c-3.9,0.04-7.69-2.5-9.15-6.11c-1.45-3.62-0.48-8.08,2.34-10.75c5.72-5.42,11.83-1.68,16.01,3.18    C266.42,1288.11,267.42,1276.01,279.69,1272.17z" clip-rule="evenodd"/><path fill="#f0f3f9" fill-rule="evenodd" d="M347.46,1290.4c4.81-1.41,10.05-1.86,14.78-0.2c4.72,1.66,8.78,5.75,9.43,10.72    c3.51-0.73,7.11-1.45,10.67-0.96c3.56,0.5,7.11,2.48,8.52,5.78c2.08,4.9-1.59,10.82-6.59,12.65c-5,1.82-10.63,0.45-15.42-1.88    c-4.38,5.56-11.06,9.25-18.1,10c-7.03,0.75-14.34-1.45-19.8-5.95c-5.78,6.5-14.46,10.31-23.16,10.16    c-8.69-0.15-17.24-4.25-22.8-10.94c-5.92,4.62-19.5,10.11-25.85,3.52c-2.68-2.77-3.45-7.23-1.85-10.75    c-3.9,0.04-7.69-2.5-9.15-6.11c-1.45-3.62-0.48-8.08,2.34-10.75c5.72-5.42,11.83-1.68,16.01,3.18    c-0.05-8.34,0.54-17.49,6.53-22.97c-0.54,6.04,0.53,12.27,3.82,17.33c3.82,5.86,10.91,9.8,17.83,8.79    c2.74-0.39,5.46-1.6,7.19-3.76c2.27-2.83,2.15-6.97,4.41-9.72c1.81-2.21,4.9-3.21,7.31-4.51c-2.73,1.48-3.93,5.05-3.19,8.07    c0.73,3.02,3.07,5.47,5.8,6.97c4.04,2.23,9.12,2.56,13.34,0.71c4.22-1.85,7.46-5.9,8.14-10.46c0.74-4.97-1.49-10.05-4.91-13.74    c-2.02-2.17-4.42-3.93-6.97-5.45c1.24,0.09,2.47,0.27,3.68,0.57C338.61,1272.91,346.06,1281.05,347.46,1290.4z" clip-rule="evenodd"/><path fill="#fff" fill-rule="evenodd" d="M284.99,1319.78c-5.92,4.62-19.5,10.11-25.85,3.52c-2.68-2.77-3.45-7.23-1.85-10.75    c-3.9,0.04-7.69-2.5-9.15-6.11c-1.45-3.62-0.48-8.08,2.34-10.75c-0.36,2.65,0.25,5.01,1.5,7.37c1.25,2.37,3.64,4.22,6.31,4.4    c2.67,0.18,5.47-1.6,6.06-4.22c0.8,1.54,0.02,3.44-1.01,4.83c-1.04,1.39-2.37,2.65-2.84,4.33c-0.7,2.53,0.89,5.26,3.12,6.64    c2.24,1.38,4.96,1.68,7.58,1.79C276.11,1321.04,280.35,1321.42,284.99,1319.78z" clip-rule="evenodd"/><path fill="#fff" fill-rule="evenodd" d="M307.79,1330.71c8.7,0.15,17.38-3.66,23.16-10.16c5.46,4.5,12.77,6.7,19.8,5.95c7.04-0.76,13.72-4.45,18.1-10    c4.78,2.33,10.42,3.7,15.42,1.88c5-1.83,8.68-7.75,6.59-12.65c-0.19,4.26-4.59,7.68-8.68,8.82c-4.1,1.14-8.47,0.44-12.61-0.54    c0.89-2.52,1.1-5.28,0.59-7.9c-3.19,4.45-7.02,8.79-12.17,10.62c-3.05,1.07-6.34,1.19-9.57,1.23c-3.95,0.04-7.97-0.02-11.75-1.18    c-3.77-1.16-7.34-3.58-9.02-7.15c2.52,5.34-5.22,12.38-8.86,14.98c-3.71,2.65-7.9,4.55-12.09,6.37L307.79,1330.71z" clip-rule="evenodd"/></g><g><path fill="#6d96ce" fill-rule="evenodd" d="M1435.13,1153.52c-4.44-5.16-4.48-12.53-0.13-22.1c4.52,2.3,6.06,5.75,8.51,10.4    c26.68-8.57,19.93-35.49,8.85-35.8c27.12-5.16,43.51-2.22,55.9,12.19c4.18,13.29-0.8,44.54-3.99,56.32    c-3.37,13.61-7.94,21.22-4.85,41.62c-14.41,10.38-18.47,21.16-56.74,9.66c0.85-11.77,3.74-14.64,3.59-42.66    C1447.24,1173.92,1440.03,1163.06,1435.13,1153.52z" clip-rule="evenodd"/><path fill="#20386f" fill-rule="evenodd" d="M1442.68,1225.83c26.24,2.53,38.15-3.78,56.74-9.66c24.46,36.26,3.36,54.96,13.88,102.57    c-17.34,17.4-43.27,20.49-77.77,9.25C1434.72,1299.86,1437.66,1258.53,1442.68,1225.83z" clip-rule="evenodd"/><path fill="#f9af79" fill-rule="evenodd" d="M1499.17,1328.86c0.36,5.63,0.47,10.62,1.22,14.13c8.53,22.88,1.67,45.29-0.36,109.22    c0.31,0.81,0.62,1.58,0.97,2.31c-4.28,1.89-3.75,6.02-6.29,6.94c-11.89,4.3-6.96-3.29-8.92-5.41c0.54-1.32,1.01-2.61,1.41-3.86    c-0.32-58.93-9.94-88.11-9.98-106.46c-0.11-2.79-0.86-8.6-1.1-11.23l0.07-0.01C1484.72,1334.03,1492.37,1332.16,1499.17,1328.86z" clip-rule="evenodd"/><path fill="#0e2952" fill-rule="evenodd" d="M1506.47,1466.06c-2.67-6.34-1.39-12.12-4.27-11.98c-5.58,1.59-4.73,6.36-7.48,7.36    c-13.47,4.87-5.35-5.52-10.12-5.93c-10.4,4.29-15.64-0.82-16.87,7.06c0.94,1.99,7.86,9.4,31.83,10.79    C1504.97,1471.25,1507.28,1468.81,1506.47,1466.06z" clip-rule="evenodd"/><path fill="#f9af79" fill-rule="evenodd" d="M1471.03,1334.58c-0.67,6.56-1.5,11.61-2.03,15.46c9.71,19.78-0.45,45.32-5.47,109.08    c0.27,0.82,0.55,1.6,0.86,2.35c-4.36,1.68-4.02,5.83-6.61,6.63c-12.07,3.74-6.8-3.62-8.66-5.82c0.6-1.3,1.13-2.56,1.59-3.79    c-0.84-60.72-2.24-97.36-4.2-109.92c0.03-5.91-0.68-12.04-1.36-17.78C1454.46,1333.2,1463.09,1334.46,1471.03,1334.58z" clip-rule="evenodd"/><path fill="#0e2952" fill-rule="evenodd" d="M1471.51,1473.38c-2.38-6.46-3.03-12.29-5.91-12.28c-5.65,1.33-5.02,6.14-7.82,7    c-13.68,4.23-5.08-5.77-9.83-6.39c-14.7,5.13-24.99,2.04-25,9.76c3.07,4.77,16.84,7.73,41.32,8.89    C1469.78,1478.49,1472.2,1476.16,1471.51,1473.38z" clip-rule="evenodd"/><path fill="#466fb5" fill-rule="evenodd" d="M1443.51,1141.82c26.68-8.57,19.93-35.49,8.85-35.8c-10.8-1.36-13.34-0.47-29.76-2.35    c-5.97,6.54-6.26,14.79-0.87,24.77C1437.93,1129.8,1439.51,1134.22,1443.51,1141.82z" clip-rule="evenodd"/><path fill="#f9af79" fill-rule="evenodd" d="M1420.27,1106.8c-6.76,0.24-14.47-0.12-23.11-1.07c-6.79-6-25.25-18.33-55.38-36.98    c-6.94-10.57-14-17.4-23.01-21.61c-2.21,0.94-0.91,2.45,6.26,9.34c-4.8,10.25-0.87,16.28,11.83,16.57    c28.35,26.37,46.44,41.9,54.27,46.58c10.72,3.55,20.39,5.39,29.01,5.53C1417.11,1118.1,1417.15,1111.98,1420.27,1106.8z" clip-rule="evenodd"/><path fill="#f9af79" fill-rule="evenodd" d="M1502.36,1181.51c10.32-1.65,13.58-6.24,12.67-21.22c-1.94,0.76-5.13,1.72-8.19,2.27    c-0.85,4.83-1.76,9.02-2.57,11.98C1503.93,1175.92,1502.72,1180.22,1502.36,1181.51z" clip-rule="evenodd"/><path fill="#466fb5" fill-rule="evenodd" d="M1506.85,1162.56c3.06-0.55,5.56-1.22,7.49-1.98c0.5-0.2,0.96-0.4,1.38-0.61    c1.44-21.15-1.04-35.06-7.45-41.75C1511.4,1128.17,1509.4,1148.18,1506.85,1162.56z" clip-rule="evenodd"/><path fill="#20386f" fill-rule="evenodd" d="M1476.64,1094.26c13.93,0.78,20.76-6.93,20.5-23.12c0.43-1.63,0.71-3.19,0.85-4.67    c0.84-9.06-3.72-15.48-13.68-19.28c-23.3-8.08-33.31-4.56-30.05,7.36c2.2,4.89,5.53,8.6,9.99,11.14c-1.29,2.31-1.7,4.9-1.27,7.78    c-0.03,0.78,0.22,1.87,0.74,3.25c0.71-5.81,2.64-9.49,5.78-11.03c2.04,3.58,1.41,8.27-1.9,14.08    C1466.17,1088.14,1469.18,1092.98,1476.64,1094.26z" clip-rule="evenodd"/><path fill="#20386f" fill-rule="evenodd" d="M1505,1091.31c2.96-0.53,3.44,4.2,4.26,6c2.23-8.39,0.27-17.59-3.51-20.7c1.21,0.16,2.5,0.83,3.88,1.99    c0.52-9.48-10.7-12.21-13.66-12.51c-1.5-0.16-2.59,0.68-3.26,2.53c-4.25,12.34-2.01,23.05,6.73,32.16    c-1.66-2.4-2.29-5.23-1.9-8.51c3,9.5,8.37,11.78,16.08,6.83C1507.25,1101.03,1506.11,1098.01,1505,1091.31z" clip-rule="evenodd"/><path fill="#6d96ce" fill-rule="evenodd" d="M1495.77,1066.1c-1.05-1.51-2.62-2.69-4.83-2.31c-3.49,1.09-3.98,5.73-1.45,7.17    c0.71,0.52,1.53,0.69,2.29,0.77c0.27-1.03,0.58-2.06,0.94-3.11C1493.37,1066.88,1494.38,1066.04,1495.77,1066.1z" clip-rule="evenodd"/><path fill="#f9af79" fill-rule="evenodd" d="M1486,1104.82c-1.15-3.51-0.96-7.47,0.57-11.86c-2.76,1.09-6.08,1.52-9.93,1.3    c-7.46-1.28-10.47-6.11-9.04-14.5c3.31-5.81,3.94-10.5,1.9-14.08c-3.14,1.54-5.07,5.23-5.78,11.03c-0.53-1.38-0.77-2.47-0.74-3.25    c-0.44-2.88-0.02-5.48,1.27-7.78c-2.73-1.55-5.03-3.54-6.91-5.97c-2.99,3.11-4,6.43-3.03,9.96c-3.76,5.47-4.84,10.3-3.26,14.5    c-0.26,4.43,0.09,7.49,1.05,9.17c1.52,2.67,9.35,1.41,12.09,1.24c1.15,2.89,1.36,6.09,0.63,9.58    C1472.9,1103.34,1479.87,1103.51,1486,1104.82z" clip-rule="evenodd"/><path fill="#8b9cc9" fill-rule="evenodd" d="M1407.79,1172.71l-0.06,5.59l7.57,6.05c-0.15-1.84,0.21-3.44,1.1-4.81L1407.79,1172.71L1407.79,1172.71z     M1426.18,1193.03l12.23,9.77l7.28,0.13c0.15-1.85,0.27-3.88,0.37-6.18l-7.86,0.08l-11.66-9.24c-0.03,0.37-0.08,0.76-0.17,1.15    C1425.9,1190.84,1425.83,1192.27,1426.18,1193.03z" clip-rule="evenodd"/><path fill="#b0c2e4" fill-rule="evenodd" d="M1407.79,1172.71l8.61,6.83c0.14-0.23,0.3-0.44,0.47-0.66c1.29-1.35,3.32,0.33,7.35,3.23    c1.72,1.53,2.49,3.35,2.33,5.48l11.66,9.24l7.86-0.08c0.1-2.35,0.16-4.97,0.2-7.91l-10.18,0.25l-16.05-12.11h25.83    c-0.3-1.4-0.71-2.82-1.22-4.26H1407.79z" clip-rule="evenodd"/><path fill="#8b9cc9" fill-rule="evenodd" d="M1420.03,1176.97l16.05,12.11l10.18-0.25c0.02-1.76,0.02-3.65,0.01-5.67c0.21-2,0.04-4.08-0.41-6.2H1420.03z    " clip-rule="evenodd"/><path fill="#c4d1eb" fill-rule="evenodd" d="M1407.79,1172.71h36.85c-0.48-1.34-1.03-2.71-1.65-4.06l-31.84-0.14l-2.95-34.05h25.54    c0.37-0.99,0.79-1.99,1.26-3.03c-0.17-0.09-0.36-0.18-0.53-0.26l-30.42-0.23L1407.79,1172.71z" clip-rule="evenodd"/><path fill="#fff" fill-rule="evenodd" d="M1411.15,1168.51l31.84,0.14c-2.3-5.13-5.38-10.29-7.86-15.12c-3.96-4.6-4.42-10.96-1.39-19.07h-25.54    L1411.15,1168.51z" clip-rule="evenodd"/><path fill="#f9af79" fill-rule="evenodd" d="M1426.18,1193.03c-4.12,2.28-7.61,0.13-10.46-6.42c-0.86-3.13-0.47-5.71,1.16-7.73    c1.29-1.35,3.32,0.33,7.35,3.23c2.02,1.79,2.73,3.99,2.16,6.62C1425.9,1190.84,1425.83,1192.27,1426.18,1193.03z" clip-rule="evenodd"/><path fill="#0e2952" fill-rule="evenodd" d="M1487.99,1088.08c-0.3-5.15,0.45-10.72,2.26-16.71c0.5,0.21,1.04,0.3,1.53,0.36    c-1.63,6.24-1.52,12.06,0.33,17.44c-1.5,1.67-3.35,2.93-5.53,3.79c-2.77,1.09-6.08,1.52-9.94,1.3c-4.89-0.84-7.87-3.2-8.94-7.1    C1472.84,1093.74,1479.6,1094.05,1487.99,1088.08z" clip-rule="evenodd"/></g><g><path fill="#fff" fill-rule="evenodd" d="M1662.4,1079.93c-8.6-2.84-18.61,0.7-24.35,7.69c-5.45-7.57-15.66-11.34-24.71-9.15    c-9.06,2.19-16.41,10.22-17.79,19.44c-4.74-1.39-9.92-1.84-14.58-0.2c-4.66,1.65-8.67,5.68-9.3,10.57    c-3.47-0.72-7.02-1.43-10.53-0.94c-3.51,0.49-7.02,2.44-8.4,5.7c-2.06,4.83,1.57,10.68,6.5,12.48c4.94,1.79,10.49,0.44,15.21-1.86    c4.32,5.49,10.9,9.13,17.84,9.87c6.94,0.74,14.15-1.42,19.53-5.87c5.71,6.41,14.27,10.17,22.85,10.02    c8.57-0.14,17.01-4.19,22.5-10.78c5.84,4.55,19.24,9.97,25.5,3.48c2.65-2.74,3.4-7.14,1.83-10.61c3.85,0.03,7.59-2.47,9.03-6.03    c1.44-3.57,0.48-7.97-2.31-10.61c-5.64-5.34-11.67-1.66-15.79,3.13C1675.49,1095.65,1674.51,1083.71,1662.4,1079.93z" clip-rule="evenodd"/><path fill="#f0f3f9" fill-rule="evenodd" d="M1595.54,1097.91c-4.74-1.39-9.92-1.84-14.58-0.2c-4.66,1.65-8.67,5.68-9.3,10.57    c-3.47-0.72-7.02-1.43-10.53-0.94c-3.51,0.49-7.02,2.44-8.4,5.7c-2.06,4.83,1.57,10.68,6.5,12.48c4.94,1.79,10.49,0.44,15.21-1.86    c4.32,5.49,10.9,9.13,17.84,9.87c6.94,0.74,14.15-1.42,19.53-5.87c5.71,6.41,14.27,10.17,22.85,10.02    c8.57-0.14,17.01-4.19,22.5-10.78c5.84,4.55,19.24,9.97,25.5,3.48c2.65-2.74,3.4-7.14,1.83-10.61c3.85,0.03,7.59-2.47,9.03-6.03    c1.44-3.57,0.48-7.97-2.31-10.61c-5.64-5.34-11.67-1.66-15.79,3.13c0.05-8.23-0.53-17.25-6.44-22.65    c0.53,5.95-0.53,12.1-3.77,17.09c-3.76,5.79-10.75,9.66-17.59,8.67c-2.71-0.39-5.39-1.58-7.09-3.71c-2.24-2.8-2.13-6.88-4.35-9.6    c-1.78-2.18-4.83-3.16-7.2-4.45c2.7,1.46,3.87,4.97,3.14,7.96c-0.72,2.98-3.02,5.39-5.71,6.88c-3.99,2.2-9,2.54-13.16,0.71    c-4.16-1.82-7.36-5.82-8.03-10.32c-0.73-4.91,1.47-9.92,4.85-13.55c1.98-2.15,4.35-3.87,6.88-5.38c-1.22,0.09-2.43,0.27-3.62,0.56    C1604.27,1080.66,1596.93,1088.69,1595.54,1097.91z" clip-rule="evenodd"/><path fill="#fff" fill-rule="evenodd" d="M1657.18,1126.9c5.84,4.55,19.24,9.97,25.5,3.48c2.65-2.74,3.4-7.14,1.83-10.61    c3.85,0.03,7.59-2.47,9.03-6.03c1.44-3.57,0.48-7.97-2.31-10.61c0.36,2.62-0.24,4.94-1.47,7.28c-1.23,2.34-3.59,4.16-6.22,4.34    c-2.64,0.17-5.39-1.58-5.98-4.16c-0.79,1.52-0.02,3.39,0.99,4.77c1.02,1.38,2.34,2.61,2.8,4.27c0.7,2.5-0.88,5.19-3.08,6.55    c-2.2,1.36-4.88,1.66-7.48,1.76C1665.93,1128.14,1661.75,1128.52,1657.18,1126.9z" clip-rule="evenodd"/><path fill="#fff" fill-rule="evenodd" d="M1634.68,1137.68c-8.58,0.15-17.15-3.61-22.85-10.02c-5.38,4.45-12.59,6.61-19.53,5.87    c-6.94-0.74-13.52-4.38-17.84-9.87c-4.72,2.31-10.28,3.65-15.21,1.86c-4.93-1.8-8.56-7.65-6.5-12.48c0.18,4.2,4.52,7.57,8.57,8.7    c4.04,1.13,8.35,0.43,12.44-0.53c-0.88-2.48-1.07-5.2-0.57-7.79c3.15,4.38,6.92,8.67,12,10.47c3,1.06,6.25,1.17,9.43,1.21    c3.9,0.05,7.86-0.01,11.59-1.16c3.72-1.15,7.23-3.53,8.89-7.06c-2.48,5.28,5.15,12.21,8.74,14.79c3.66,2.61,7.79,4.48,11.92,6.28    L1634.68,1137.68z" clip-rule="evenodd"/></g></svg>