<svg xmlns="http://www.w3.org/2000/svg" fill-rule="evenodd" stroke-linejoin="round" stroke-miterlimit="2" clip-rule="evenodd" viewBox="108 562.89 2783.99 1874.22"><path fill="none" d="M0 0h3000v3000H0z"/><path fill="#d4f0f1" d="M2752.98 1565.53s39.017 231.629-497.757 266.493a7.985 7.985 0 0 0-7.451 8.486 7.985 7.985 0 0 0 8.486 7.451c557.553-36.213 512.455-285.182 512.455-285.182a7.987 7.987 0 0 0-15.733 2.752Z"/><path fill="#458cff" d="m2634.98 1325.08 257.011 86.729-5.288 211.532-257.012-79.325 5.289-218.936Z"/><path fill="#112e58" d="m2891.99 1411.8-148.072 106.823-114.228-193.552 262.3 86.729Z"/><path fill="#d4f0f1" d="M1717.66 977.988s-170.819 161.23 236.317 512.771a7.986 7.986 0 0 1-10.438 12.089c-422.897-365.15-236.768-536.544-236.768-536.544a7.985 7.985 0 0 1 11.286.398 7.985 7.985 0 0 1-.397 11.286Z"/><path fill="#458cff" d="m1577.32 802.174 257.011 86.728-5.288 211.532-257.011-79.324 5.288-218.936Z"/><path fill="#112e58" d="m1834.33 888.902-148.072 106.824-114.227-193.552 262.299 86.728Z"/><path fill="#d4f0f1" d="M1498.41 1334.71s-170.819 161.229 236.317 512.771a7.985 7.985 0 0 1 .825 11.263 7.985 7.985 0 0 1-11.263.826c-422.897-365.151-236.768-536.544-236.768-536.544a7.986 7.986 0 0 1 10.889 11.684Z"/><path fill="#458cff" d="m1358.07 1158.9 257.011 86.728-5.288 211.532-257.011-79.325 5.288-218.935Z"/><path fill="#112e58" d="m1615.08 1245.63-148.072 106.824-114.227-193.552 262.299 86.728Z"/><path d="m1733.63 1649.84-466.356 176.303 617.119 248.223 433.568-238.602-584.331-185.924Z"/><path d="m1732.96 1651.18 105.541-312.177 566.753 144.04-97.35 349.517-574.944-181.38Z"/><path fill="#0246b1" d="m2405.18 1483.29-566.463-144.333c-2.629-1.291 69.774 4.532 69.774 4.532s386.241 90.387 528.385 132.317v.096l-118.871 390.523-10.308-33.758 97.483-349.377Z"/><path fill="#0246b1" d="m1773.86 1642.14 93.456-264.303 498.017 137.469-83.39 294.019-508.083-167.185Z"/><path fill="#fff" d="m2243.74 1714.3-320.027-89.773-3.109 9.731 320.026 89.774 3.11-9.732Zm9.083-25.955-320.026-89.773-3.11 9.732 320.027 89.773 3.109-9.732Zm11.653-36.054-320.026-89.773-3.11 9.732 320.026 89.773 3.11-9.732Zm9.084-25.955-320.027-89.773-3.11 9.732 320.027 89.773 3.11-9.732Zm-360.402-37.496-61.782-17.331-11.757 36.795 61.781 17.331 11.758-36.795Zm376.657 1.016-320.026-89.773-3.11 9.732 320.026 89.773 3.11-9.732Zm9.084-25.955-320.027-89.773-3.11 9.732 320.027 89.773 3.11-9.732Zm-365.005-37.069-61.782-17.331-11.757 36.794 61.782 17.331 11.757-36.794Zm25.339-62.436-61.781-17.331-11.758 36.795 61.782 17.331 11.757-36.795Z"/><path fill="#0246b1" d="m2317.96 1866.28-430.26 257.348-3.195-49.368 433.455-238.494v30.514ZM1267.27 1872.1l620.426 251.535-3.195-49.368-617.231-247.77v45.603Z"/><path fill="#458cff" d="m2092.91 1917.63-37.272 18.798-40.385-14.8 39.464-17.896 38.193 13.898Zm-122.064-12.277 40.13 14.707 39.45-17.889-40.258-14.649-39.322 17.831Zm150.366-1.997-36.431-13.256-25.905 11.747 37.949 13.809 24.387-12.3Zm-200.124-16.239 45.48 16.668 39.309-17.825-45.626-16.602-39.163 17.759Zm228.426 1.965-34.669-12.615-25.905 11.747 36.188 13.168 24.386-12.3Zm-135.187-3.446 40.258 14.649 25.905-11.747-40.258-14.649-25.905 11.747Zm163.49-10.828-32.908-11.974-25.905 11.747 34.426 12.527 24.387-12.3Zm-133.426-2.805 40.257 14.649 25.905-11.747-40.257-14.649-25.905 11.747Zm-174.985-3.827 47.404 17.374 39.15-17.753-47.556-17.305-38.998 17.684Zm95.004-.704 45.625 16.603 25.906-11.748-45.626-16.602-25.905 11.747Zm110.044-9.102 40.258 14.649 25.905-11.747-40.258-14.649-25.905 11.747Zm142.275-3.187-34.997 17.651-32.665-11.886 36.566-16.581 31.096 10.816Zm-222.255-1.344 45.625 16.603 25.905-11.747-45.625-16.603-25.905 11.747Zm-177.04-4.709 47.694 17.479 38.985-17.678-47.846-17.411-38.833 17.61Zm95.129-.524 47.556 17.305 25.905-11.747-47.556-17.305-25.905 11.747Zm227.63-20.046-35.675 16.177 40.258 14.649 36.48-16.542-41.063-14.284Zm-115.655 11.646 45.625 16.603 25.905-11.747-45.625-16.603-25.905 11.747Zm-81.911-5.233 47.556 17.305 25.905-11.747-47.556-17.305-25.905 11.747Zm-177.164-4.89 47.694 17.479 38.819-17.603-47.846-17.41-38.667 17.534Zm94.963-.449 47.846 17.411 25.905-11.747-47.846-17.411-25.905 11.747Zm228.851-18.784-34.675 15.723 45.625 16.603 35.588-16.138-46.538-16.188Zm-116.586 10.49 47.555 17.305 25.905-11.747-47.555-17.305-25.905 11.747Zm-82.201-5.338 47.846 17.41 25.905-11.747-47.846-17.41-25.905 11.747Zm-176.998-4.966 47.693 17.479 38.653-17.528-47.846-17.41-38.5 17.459Zm94.796-.373 47.847 17.41 25.905-11.747-47.846-17.41-25.906 11.747Zm228.104-18.209-33.637 15.253 47.555 17.305 34.59-15.685-48.508-16.873Zm-115.838 9.915 47.846 17.41 25.905-11.747-47.846-17.41-25.905 11.747Zm-82.202-5.339 47.846 17.41 25.906-11.747-47.847-17.41-25.905 11.747Zm-176.832-5.041 47.694 17.479 38.487-17.453-47.846-17.41-38.335 17.384Zm94.631-.298 47.846 17.41 25.905-11.747-47.846-17.41-25.905 11.747Zm227.061-17.736-32.595 14.781 47.847 17.41 33.551-15.215-48.803-16.976Zm-114.796 9.442 47.846 17.41 25.905-11.747-47.846-17.41-25.905 11.747Zm-82.201-5.339 47.846 17.41 25.905-11.747-47.846-17.41-25.905 11.747Zm-176.666-5.116 47.694 17.479 38.321-17.377-47.846-17.411-38.169 17.309Zm94.465-.223 47.846 17.41 25.905-11.747-47.846-17.41-25.905 11.747Zm226.017-17.262-31.551 14.307 47.846 17.41 32.509-14.741-48.804-16.976Zm-113.752 8.968 47.846 17.41 25.905-11.747-47.846-17.41-25.905 11.747Zm-82.201-5.339 47.846 17.411 25.905-11.747-47.846-17.411-25.905 11.747Zm-90.652-5.014-38.155 17.302-45.823-16.794 40.418-16.359 43.56 15.851Zm8.451-.325 47.846 17.411 25.905-11.747-47.846-17.411-25.905 11.747Zm224.973-16.789-30.507 13.834 47.846 17.41 31.465-14.268-48.804-16.976Zm-112.708 8.495 47.846 17.411 25.905-11.747-47.846-17.411-25.905 11.747Zm-82.202-5.338 47.847 17.41 25.905-11.747-47.847-17.41-25.905 11.747Zm-50.104-14.833-27.547 11.149 43.296 15.755 25.905-11.747-41.654-15.157Zm191.833-6.822-29.463 13.36 47.846 17.411 30.421-13.795-48.804-16.976Zm-111.665 8.022 47.846 17.41 25.905-11.747-47.846-17.41-25.905 11.747Zm-48.198-14.139-27.547 11.149 41.39 15.061 25.905-11.747-39.748-14.463Zm106.683-12.382-28.421 12.888 47.846 17.41 29.378-13.322-48.803-16.976Zm-74.713-.558-27.547 11.15 39.484 14.367 25.905-11.747-37.842-13.77Zm70.336-.965-28.335 12.849-37.578-13.674 29.368-11.886 36.545 12.711ZM1687.93 1846.39l-108.627 53.662 145.513 51.142 111.17-51.872-148.056-52.932Z"/><path fill="#112e58" d="M1145.99 1536.84c-159.98-151.939-631.749-342.361-1024.86 55.697l-13.126 577.309c229.487 230.007 620.989 221.357 1139.59 102.952 0 0 43.5-598.148-101.604-735.958Z"/><path fill="#112e58" d="M1145.99 1536.84c-159.98-151.939-884.13-395.269-1024.86 55.697l-13.126 577.309c229.487 230.007 620.989 221.357 1139.59 102.952 0 0 43.5-598.148-101.604-735.958Z"/><path fill="#458cff" d="M849.766 1749.36c-307.141 26.353-551.899-14.956-724.004-161.809a2.999 2.999 0 0 0-4.073.165c-.876.879-1.783 1.794-2.69 2.713a3 3 0 0 0 4.269 4.216l.72-.729c173.061 146.306 418.501 187.83 726.29 161.422a3 3 0 0 0-.512-5.978Z"/><path fill="#0246b1" d="M1255.48 1678.74c-133.935-298.137-498.096-120.169-385.304 165.534 84.056 212.912 180.844 476.957 246.14 580.222 19.658 31.088 395.044 9.844 394.112-122.046-.865-122.477-161.206-415.044-254.948-623.71Z"/><path fill="#ffb100" d="m1235.73 1855.2-190.457 89.648 26.894 57.137 190.457-89.648-26.894-57.137Z"/><path fill="#ffc5a8" d="M729.2 1096.27 498.583 985.088l-117.178 430.98c-9.133 100.496 153.17-36.148 437.347-42.047L729.2 1096.27Z"/><path d="m729.2 1096.27-124.758-60.147s72.717 177.192 177.02 221.775L729.2 1096.27Z"/><path fill="#ffc5a8" d="M635.021 643.491c102.271 0 224.373 244.913 221.426 348.742-3.767 132.69-56.962 181.295-56.962 181.295-55.974 21.949-344.968-140.421-400.399-247.171-60.84-117.168 133.664-282.866 235.935-282.866Z"/><path d="m617.297 879.014.011.139.018.217c1.291 16.311-2.593 29.9-2.593 29.9-.499 1.755-2.273 2.758-3.962 2.24-1.689-.517-2.654-2.36-2.154-4.115 0 0 3.445-12.16 2.396-26.881-2.097-3.026-12.37-16.091-30.597-11.422-1.71.438-3.438-.647-3.858-2.424-.421-1.776.625-3.572 2.335-4.01 13.974-3.58 24.112 1.405 30.375 6.56-2.894-11.697-9.599-23.485-23.791-30.97-1.57-.828-2.196-2.822-1.397-4.454.798-1.632 2.717-2.283 4.288-1.455 20.863 11.003 27.548 30.146 28.929 46.675ZM785.762 859.118c-10.444 4.26-13.911 20.746-7.738 36.792 6.174 16.046 19.665 25.615 30.109 21.355 10.444-4.26 13.912-20.745 7.738-36.791-6.174-16.046-19.665-25.616-30.109-21.356ZM800.934 815.377l-111.49 26.066c-3.958.925-7.899-1.611-8.802-5.665-.903-4.054 1.573-8.09 5.531-9.015l111.489-26.066c3.958-.926 7.899 1.61 8.802 5.664.904 4.054-1.572 8.091-5.53 9.016Z"/><path fill="#fff" d="m834.541 1078.42-143.482-46.075s-6.537 77.472 107.916 103.157c14.415 3.235 35.566-57.082 35.566-57.082Z"/><path d="M474.41 564.668c104.762-13.958 185.95 59.543 250.403 39.43 125.436-39.143 135.669 2.73 157.568 23.07 18.699 17.369 28.378 94.63-31.395 136.376-45.238 31.594-141.597-2.322-141.597-2.322l-41.862 97.158c-21.953-52.097-63.502-111.232-103.028-43.109-47.028 81.051 22.433 144.24 44.766 154.382l-46.695 159.65c-22.791 8.936-116.571 48.189-116.571 48.189s-143.335-161.868-176.196-225.153c-32.862-63.286-24.043-185.057 29.006-269.528 45.167-71.919 128.982-111.932 175.601-118.143Z"/><path fill="#112e58" d="M2445.49 838.641c-78.445-23.028-147.309-68.813-212.692-122.862-67.746 38.999-134.593 61.823-200.706 71.45l-52.036 61.695s53.886 66.489 17.878 178.313c-61.141 189.878 238.345 301.531 238.345 301.531 44.427-27.988 220.33-79.686 221.068-167.911.441-52.767-23.068-88.272-18.995-142.308 4.532-60.135 39.333-102.32 39.333-102.32l-32.195-77.588Z"/><path fill="#458cff" d="M2386.44 911.061c-62.715-41.357-130.611-94.224-175.368-120.316-49.645 29.305-168.69 73.123-168.69 73.123s25.261 98.187-1.126 182.214c-44.805 142.677 191.872 225.618 191.872 225.618 50.459-11.57 181.318-63.845 170.378-129.186-3.766-22.495-27.194-69.05-24.209-109.654 3.321-45.186 7.143-121.799 7.143-121.799Z"/><path fill="#112e58" d="M2223.16 908.796c30.214 15.555 51.042 52.486 46.481 82.421-4.56 29.934-32.793 41.608-63.007 26.054-30.214-15.555-51.042-52.486-46.481-82.421 4.56-29.934 32.792-41.608 63.007-26.054Zm-3.312 21.74c18.103 9.32 30.583 31.448 27.85 49.384-2.732 17.936-19.648 24.931-37.752 15.611-18.104-9.32-30.583-31.448-27.851-49.384 2.733-17.936 19.649-24.931 37.753-15.611Z"/><path fill="#ffb100" d="M2135.82 1096.98c.018 2.88 1.377 6.098 3.688 8.734 2.311 2.635 5.32 4.397 8.165 4.782l147.176 19.886-1.756-148.689c-.036-3.095-1.534-6.546-4.051-9.336-2.516-2.79-5.765-4.6-8.787-4.896l-145.316-14.254.881 143.773Z"/><path fill="#112e58" d="M2271.09 966.563v160.609l23.767 3.212-1.756-148.689c-.036-3.095-1.534-6.546-4.051-9.336-2.516-2.79-5.765-4.6-8.787-4.896l-9.173-.9ZM2194.81 1019.9c-5.282-4.528-8.856-10.724-8.856-16.287 0-8.191 7.749-11.926 17.293-8.335 9.545 3.591 17.294 13.156 17.294 21.347 0 4.341-2.176 7.43-5.642 8.841v62.004l-20.089-7.558V1019.9Z"/></svg>