<svg xmlns="http://www.w3.org/2000/svg" enable-background="new 0 0 3000 3000" viewBox="387.99 349.03 2223 2302.97"><path fill="#9eb0c6" d="M1621.9,2558.5c57.7-19.9,320-167,365.6-201.4l-69.8-378.1L1561,2188c-219.3,12-342.2,7.9-561.5-9.7   c10.5,35.4,11.9,54.3,15.6,88.3l41.6,160.7l24,93.4c19.8,13.8,33.3,15.1,57.6,16.8l366.4,29.4   C1549.8,2569.8,1575.6,2566.9,1621.9,2558.5z"/><path fill="#e0ecf8" d="M1470.2,2222c4.7,145.3,10.5,248.2,40.4,384.7c-63.5,74.8-325.4,20.6-357.3,0   c-19.6-12.6-46.7-255.8-46.7-373.3C1220.5,2201,1342.8,2230.9,1470.2,2222z"/><path fill="#e0ecf8" d="M1913.3,2015c15,11.5,27.7,17.1,26.1,31.9c28.2,31.5,66.6,220.2,55.1,333.9c-2.7,26.9-192.5,128.9-239.2,128.9   c-64.7-12.6-87.9-201.1-94.2-341.4C1675.8,2159,1834.3,2071.6,1913.3,2015z"/><path fill="#b9c9dc" fill-rule="evenodd" d="M1886.9,2255.1c-1.2-0.3-2-1.1-2.5-2c-1.5-2.8-5-6.3-10.4-10.4c-5.4-4-12.4-8.3-20.7-12.8   c-16.5-8.9-37.6-18.1-59.4-25.9c-21.8-7.8-44.2-14.1-63.2-17c-9.5-1.5-18.1-2.1-25.3-1.8c-7.3,0.4-12.9,1.8-16.8,4.2   c-3.3,2.1-6.5,2.7-9.5,2c-2.9-0.7-5.3-2.7-7.3-5c-3.9-4.6-6.5-11.5-8-16.6l3.8-1.1c1.5,5,3.9,11.2,7.2,15.1c1.7,2,3.4,3.2,5.2,3.7   c1.7,0.4,3.8,0.2,6.4-1.5c4.7-3,11.2-4.5,18.7-4.9c7.6-0.4,16.5,0.3,26.2,1.8c19.3,3,42,9.4,63.9,17.2c21.9,7.8,43.3,17.2,60,26.1   c8.3,4.5,15.6,8.9,21.2,13.1c5.5,4.1,9.6,8,11.5,11.6c0,0,0.1,0,0.1,0c0.8-0.5,2.1-1.7,3.8-4c3.3-4.5,7.5-12,12.1-21.7   c9.1-19.4,19.6-47.2,27.1-76.3c7.6-29.1,12.3-59.2,10-83.2c-2.2-24-11.3-41.2-30.5-45.9l0.9-3.9c21.7,5.3,31.2,24.8,33.6,49.5   c2.3,24.7-2.5,55.3-10.1,84.6c-7.6,29.3-18.2,57.4-27.4,77c-4.6,9.8-8.9,17.6-12.5,22.4c-1.7,2.3-3.4,4.2-5.1,5.1   C1889.1,2255,1888.1,2255.4,1886.9,2255.1z M1920.5,2044.5l-50.4,33.6l-2.2-3.3l50.4-33.6L1920.5,2044.5z M1843.1,2093.3l-68,39.1   l-2-3.5l68-39.1L1843.1,2093.3z M1756.1,2139.6l-67.6,35.7l-1.9-3.5l67.6-35.7L1756.1,2139.6z M1717.3,2231.5   c0.2-1.9,0.6-3.6,1.3-4.8l3.4,2.1c-0.2,0.4-0.5,1.3-0.7,3.1c-0.2,1.7-0.2,3.9-0.1,6.6c0.2,5.4,1,12.6,2.2,21.1   c2.5,17.1,6.8,39.4,12.2,63.4c10.9,48.1,26.3,103.1,40.3,136.9l-3.7,1.5c-14.1-34.1-29.6-89.3-40.5-137.5   c-5.5-24.1-9.8-46.5-12.3-63.7c-1.2-8.6-2-15.9-2.2-21.5C1717.1,2235.9,1717.1,2233.5,1717.3,2231.5z M1943.2,2266.9   c-10.6-12.8-20.5-24.3-25.1-28.4l2.7-3c4.8,4.3,15,16.1,25.5,28.8c10.6,12.8,21.8,26.8,28.9,35.8l-3.1,2.5   C1964.9,2293.6,1953.7,2279.7,1943.2,2266.9z M1807.8,2444.4c12.3-82.9,21-127.4,44.6-197.5l3.8,1.3   c-23.5,69.8-32.2,114-44.4,196.8L1807.8,2444.4z M1124,2257.3h164.2v4H1124V2257.3z M1323.5,2257.3h83.6v4h-83.6V2257.3z    M1255.2,2427.6c73.8-7.9,132.5-64.7,204.8-169.4l3.3,2.3c-72.2,104.7-131.9,163-207.6,171.1c-2.9,0.3-6.9-0.2-11.6-1.4   c-4.7-1.2-10.3-3.1-16.4-5.6c-12.3-5-26.9-12.5-41.5-22.1c-29.2-19.1-58.8-46.5-69.5-78.7l3.8-1.3c10.4,30.9,39,57.7,68,76.6   c14.4,9.4,28.8,16.8,40.8,21.7c6,2.5,11.4,4.3,15.9,5.4C1249.6,2427.4,1253.1,2427.9,1255.2,2427.6z M1455.5,2572.8l-24.8-243.4   l4-0.4l24.8,243.4L1455.5,2572.8z M1358.9,2493.7c27,32.2,52.3,68.6,66.7,91.2l-3.4,2.1c-14.2-22.4-39.5-58.7-66.4-90.8   c-13.4-16-27.2-30.9-40.2-42.5c-13.1-11.6-25.1-19.7-35-22.3l1-3.9c10.9,2.9,23.5,11.5,36.7,23.2   C1331.4,2462.6,1345.4,2477.6,1358.9,2493.7z M1229.2,2431c-31.7,31.7-60.1,81.6-62,126.5l-4-0.2c2-46.2,31-97,63.2-129.1   L1229.2,2431z M1808.6,2485.7c1.9,0.1,4.1,0.2,6.8,0.4l-0.2,4c-2.6-0.2-4.8-0.3-6.7-0.4c-1.8-0.1-3.3-0.2-4.7-0.2   c-2.8-0.2-4.9-0.4-6.7-0.8c-3.5-0.8-5.8-2.5-10.4-5.7c-0.4-0.3-0.8-0.5-1.2-0.8l2.3-3.3c0.3,0.2,0.5,0.4,0.8,0.5   c5,3.5,6.7,4.7,9.4,5.3c1.5,0.4,3.2,0.6,6,0.7C1805.3,2485.5,1806.8,2485.6,1808.6,2485.7z" clip-rule="evenodd"/><path fill="#e0ecf8" d="M1911.9,1996.2c16.4-12.6,17.2-40.4,0-45c-44.5-12-176-31.5-275.6-19.3c-112.7,2.7-162.6,1.3-247,25.2   c-90.1,21.2-139.7,47.2-229.8,78.2c-60.1,29.4-106.7,55-160.9,90c-22.3,14.4-16.4,48.9-5.5,50.9c98.8,18.1,154.3,20.7,253.3,28.6   c144.9,7.1,283.1,3,329.8-16.8C1722.2,2126.1,1831.1,2058.4,1911.9,1996.2z"/><path fill="#2e363f" d="M1658.9,1952.4c86.6-2.7,227.7,8,221.4,19.8c-3.8,7.2-161.1,121.6-333.6,188.5   c-26.5,10.3-177.1,18.7-299.2,19.4c-102.8-10.6-213.5-15.9-224.8-27.8c-4.6-4.9,59.2-37.9,81.1-43.3l219.7-93   c63.8-28.6,122.7-39.1,146.2-42.1L1658.9,1952.4z"/><path fill="#e38835" d="M963,2480.1c-63.5,10.1-66.5-23.1-66.5-35.7c14.5,0,122.4-33.2,173.7-49.6   C1087.1,2440,982.4,2477.1,963,2480.1z"/><path fill="#e38835" d="M1190.1,2327.1c-10.5,7.1-54.7,16-54.7-34.1l89.6-87l13.5,10.5C1239.5,2264.6,1230.1,2300.2,1190.1,2327.1z"/><path fill="#f0a246" d="M897.7,2452.4c-14.3-13.9,47.1-57.5,75.6-91.9c15.7-18.9,103.4,10.9,96.6,36.9   C1043.2,2434.4,954.8,2492.7,897.7,2452.4z"/><path fill="#f0a246" d="M1140.5,2304.2c-16.4-8,2.5-70.9,7.1-88.6c5.1-18.5,56.4-33,80.7-5C1231.3,2268.6,1201.1,2333.6,1140.5,2304.2   z"/><path fill="#e0ecf8" d="M2610.2,1855.6c-28,26.5-876.3,5.5-876.3-15.1c0-7.6,116.8-22.1,130.3-29.4c10.1-5.5-74.8-27.7-45.8-53.8   c-15.2-37.8-7.8-52.1,45-60.1c-3.8-211.8,258-251.8,250.9,0c66.4-27.3,119.4-12.2,100,63c93.3-11.8,57.6,53,101.7,53   C2395.9,1813.2,2626.2,1840.5,2610.2,1855.6z"/><path fill="#e0ecf8" d="M1123.3,1899.3c-289,0.7-724.2,9.4-735.1,0c-5.9-5,114.8-33,208.5-37.4c-67.2-76.9-42.9-120.6,46.2-83.6   c-73.6-148.4,65.2-170.6,95.4-167c24,2.9,186.2,35.4,81.5,177.9c91.6-30.7,108,16.4,55.5,64.3c41.5-6.8,60.7-7.2,67.7,14.7   C996.2,1869.3,1142.6,1891.3,1123.3,1899.3z"/><path fill="#f6b383" d="M1377.2,2045l-20.6-73h42.1c8.1,20.6,16,39.2,18.9,35.9l26.5-23.4l24.4,14.6l-30.3,31.3L1377.2,2045z"/><path fill="#e8a270" d="M1377.2,2045l-20.6-73h42.1c8.1,20.6,16,39.2,18.9,35.9l26.5-23.4l24.4,14.6l-30.3,31.3L1377.2,2045z"/><path fill="#aa5b3f" d="M1321.2,2009.5c4.1,9.2,14.7,8.1,24,16.4c47.6,62.9,86.1,101.3,83.3,151.1l-177.9,4.2v16   c3.8,12.6-5.3,28.5-9.2,24.8c-25.7-24.8-68.1-29.4-91.7-3.8l-58.9,115.8l3.8,3.4c5,3.8-18.1,65.8-23.6,60.4   c-45.8-44.9-85.5-30.6-98-34.4c-13.9-4.2,8.9-17.2,8.8-22.2c-0.1-20.4,3.2-27.7,13.9-34.8l108.9-219c8.5-11.7,21.8-12.5,43.7-15.1   c0.8-37.4,4-69.7,8.1-115c2.7-33.4,51.3-44.1,57.2-44.1c8.4,0,53.1,43.1,92.1,79.7C1314,1994.8,1318.9,2004.5,1321.2,2009.5z"/><path fill="#893224" d="M1627.1,1913.1c-8.8-13.8-13.3-26.7-23.5-18.5l-65.6,15.6l-49.6,21.4c-10.1,3.8-26,39.5-26,45.8   c-4.2,29.8-26.1,53.8-62.6,60.5c-7.6,1.4-18.7-7.3-28.6-4.2c-17.3-17.5-30.7-22.3-30.7-16c0,17.7,10.5,66.4,16.4,78.2   c5.2,10.5,50.8,36.5,63,51.7c3.4,4.2,9.4,19,8,29.4c122.3-13.4,142.9-16.4,161.4-37.8c26.5-10.9,45.4-65.1,59.2-111.8   C1664.1,1975.3,1682.8,1947.1,1627.1,1913.1z"/><path fill="#693526" d="M1501.6,1780.7c0.1-9.3,1.4-28.9,0.4-31.3c63.2-32.1,109.6-19.3,151.6,56.2c-3.6,16.6-10.9,30.8-20.1,36.3   C1579.8,1874.5,1551.8,1820.6,1501.6,1780.7z"/><path fill="#e38835" d="M1443.1,1887.3l-82.4-38.2c-2.7-1.2-5.9,0.1-6.8,2.9l-23.6,68.5c-0.8,2.4,0.3,5.1,2.6,6.2l79.5,37.5   c2.6,1.2,5.7,0,6.8-2.7l26.4-67.8C1446.7,1891.2,1445.5,1888.4,1443.1,1887.3z"/><path fill="#f0a246" fill-rule="evenodd" d="M1354,1851.7l21.2,54.4l-44.9,14.3l0,0c-0.5,1.4-0.3,2.9,0.4,4.1l46-14.7l1.2,3c1.4,3.6,5.5,5.4,9.1,4   l3.7-1.5l22.8,49.1c1.4,0.3,2.9,0,4-0.8l-23.1-49.8l51.3-20.5c0.5-1.4,0.3-2.9-0.5-4.1l-59.8,23.9c-1.6,0.6-3.3-0.1-3.9-1.7   l-24.4-62.6C1355.8,1849.2,1354.6,1850.2,1354,1851.7z" clip-rule="evenodd"/><path fill="#f6b383" d="M1604.6,1905.5V1884l-56,27.4l1.7,28.6C1559.1,1919.8,1569.9,1923.6,1604.6,1905.5z"/><path fill="#c0764f" fill-rule="evenodd" d="M1604.5,1892.1c-15.4,13.9-40.4,28.3-55.6,30.5l-0.7-11.5l56.3-27.3V1892.1z" clip-rule="evenodd"/><path fill="#f6b383" d="M1545.8,1763.9c-27.6-10.2-36.4-11.4-43.9,11.8c-5.2,16-9.7,96.4-5.9,103.8c5.8,11.2,28.5,34,41.8,35.3   c25.9,2.4,68.7-26.1,72.4-37c18.9-1.6,30.1-21.5,28-33.6c-2.2-13-18.4-22.7-30.1,0c4.6-31.1,2.2-40.4-8-47.9   c5.6-7.3,7.3-12.2,7.5-22.3L1545.8,1763.9z"/><path fill="#aa5b3f" d="M1611,1714.8c63.3,25.2,84.8,100.9,43.1,93.7l-40.5-35.7c-35,9.2-68.4-5.5-81-25.6c-27-1.3-34.2,21.4-38,17.6   c-23.2-23.5-23.2-52.1,27.8-39.5C1499.6,1705.5,1586,1706,1611,1714.8z"/><path fill="#f0a246" d="M1414.9,1895l-90.8-5.7c-3-0.2-5.4,2.2-5.3,5.2l3,72.3c0.1,2.5,2.1,4.6,4.7,4.8l87.8,6c2.9,0.2,5.4-2.1,5.4-5   V1900C1419.6,1897.3,1417.5,1895.2,1414.9,1895z"/><path fill="#e38835" fill-rule="evenodd" d="M1318.9,1894.4l39.6,43l-36.6,29.7v0c0.1,1.5,0.8,2.8,1.8,3.7l37.5-30.4l2.2,2.4c2.6,2.9,7.1,3,9.9,0.4   l2.9-2.7l39,37.5c1.4-0.2,2.7-1,3.5-2.2l-39.6-38l40.4-37.7c-0.1-1.5-0.8-2.8-1.9-3.7l-47,44c-1.2,1.1-3.1,1.1-4.3-0.2l-45.5-49.4   C1319.7,1891.5,1319,1892.9,1318.9,1894.4z" clip-rule="evenodd"/><path fill="#a44232" fill-rule="evenodd" d="M1625.1,1910.4c0.5,0.9,1.1,1.8,1.7,2.7c0.3,0.2,0.5,0.3,0.8,0.5c-6.3,5.3-12.8,11.4-19.1,17.3l0,0l0,0   c-4.1,3.9-8.1,7.7-11.9,11.1c-5,4.5-9.6,8.3-13.6,10.7c-2,1.2-3.8,2.1-5.6,2.5c-1.8,0.4-3.6,0.3-5.2-0.9c-0.7-0.5-1.3-1.4-1.7-2.1   c-0.5-0.8-0.9-1.8-1.4-2.8c-0.7-1.7-1.5-3.8-2.2-5.7l0,0c-0.2-0.4-0.3-0.8-0.5-1.3c-0.9-2.3-1.7-4.3-2.4-5.7   c-0.2,0.2-0.3,0.5-0.5,0.8c-0.8,1.3-1.7,2.9-2.6,4.7c-1.8,3.6-3.8,7.9-5,11.5l-3.8-1.3c1.3-3.9,3.3-8.4,5.2-12.1   c0.9-1.9,1.9-3.6,2.7-4.9c0.8-1.3,1.6-2.5,2.2-3.1c0.5-0.5,1.3-0.9,2.2-0.7c0.7,0.1,1.2,0.5,1.6,0.8c0.6,0.6,1.1,1.4,1.5,2.2   c0.8,1.6,1.8,4,2.7,6.3c0.2,0.4,0.3,0.9,0.5,1.3l0,0c0.7,2,1.5,3.9,2.2,5.5c0.4,1,0.8,1.8,1.2,2.4c0.4,0.6,0.6,0.8,0.6,0.9h0l0,0   c0.3,0.2,0.8,0.4,2,0.2c1.1-0.2,2.6-0.9,4.4-2c3.6-2.2,8-5.8,13-10.2c3.6-3.3,7.6-7,11.7-10.8l0,0   C1611.9,1922.2,1618.7,1915.9,1625.1,1910.4z M1523.9,1916.1l-9.9,22.7l3.2,2.3c2-1.8,3.8-4.5,5.4-7.1c0.4-0.7,0.9-1.4,1.3-2.1   c1.2-1.9,2.2-3.6,3.2-4.9c0.7-0.9,1.2-1.5,1.7-1.8c0.1-0.1,0.2-0.2,0.3-0.2c0.1,0.1,0.3,0.3,0.6,0.8c0.4,0.8,0.9,2.1,1.4,4.1   c0,0,0,0,0,0.1c0,0.1,0,0.1,0,0.2c0,0.1,0.1,0.3,0.1,0.6c0.1,0.5,0.3,1.2,0.5,2c0.4,1.6,1,3.8,1.6,6.3c1.2,4.9,2.7,10.7,3.7,14.5   l3.9-1c-1-3.9-2.5-9.6-3.7-14.5c-0.6-2.4-1.2-4.6-1.6-6.3c-0.2-0.8-0.4-1.5-0.5-1.9c-0.1-0.2-0.1-0.4-0.1-0.5v-0.1l-0.1-0.2   c-0.5-2.2-1.1-3.9-1.8-5.2c-0.7-1.2-1.6-2.3-3-2.7c-1.5-0.4-2.7,0.2-3.7,0.8c-0.4,0.3-0.8,0.7-1.2,1.1l4-9.2L1523.9,1916.1z    M1529.2,1925L1529.2,1925C1529.2,1925,1529.2,1925,1529.2,1925C1529.2,1925,1529.2,1925,1529.2,1925   C1529.2,1925,1529.2,1925,1529.2,1925z M1535,1929.2C1535,1929.2,1535,1929.2,1535,1929.2L1535,1929.2z M1546.3,1955.9l7.6-18.1   l-3.7-1.5l-7.6,18.1L1546.3,1955.9z M1619.3,1949.7L1619.3,1949.7c-15.5,11.7-26.5,20-37.8,37.9l-27.1,28.3   c-3.2,2.4-5.5,4.6-7.5,7.3c-2,2.7-3.4,5.8-4.8,10l3.8,1.3c1.3-4,2.6-6.7,4.3-8.9c1.6-2.2,3.6-4.1,6.5-6.3c3.3-1,8.7-0.5,15.3,1.6   c6.7,2.1,14.2,5.8,21.1,10.7c13.8,9.7,24.4,23.4,22.5,38.1c-5.4,6.5-16.8,12-27.9,9.4l-0.9,3.9c13.1,3.1,26.3-3.6,32.3-11.2   c4.1-5.2,7.7-12,11.5-20.2c2.4-5.2,4.9-11.1,7.7-17.6c1.6-3.7,3.3-7.7,5-11.8l-3.7-1.6c-1.8,4.2-3.5,8.2-5.1,11.9l0,0   c-2.8,6.5-5.2,12.3-7.6,17.4c-2.5,5.4-4.8,10-7.2,13.9c-1.1-14.3-12-26.8-24.3-35.4c-7.2-5.1-15.1-8.9-22.2-11.2   c-4.3-1.4-8.5-2.2-12.1-2.3l23.3-24.4c7.4-6.5,14.6-11.9,21.2-15.8c6.7-3.9,12.8-6.1,18.1-6.4c5.1-0.3,9.5,1.2,12.9,5   c3.5,3.9,6.3,10.2,7.9,19.9l4-0.6c-1.6-10-4.6-17.3-8.9-21.9c-4.4-4.8-9.9-6.7-16.1-6.3c-6.1,0.3-12.8,2.9-19.8,6.9   c-3.3,1.9-6.7,4.2-10.1,6.7c8.1-9.7,16.7-16.2,28.1-24.8c2.4-1.8,4.9-3.7,7.6-5.8l-2.4-3.2   C1624.2,1945.9,1621.7,1947.8,1619.3,1949.7z M1493.5,1944.5l-24.4,45l3.5,1.9l24.4-45L1493.5,1944.5z M1386.2,2041.6   c0.1,0.3,0.3,0.6,0.4,0.7h0c0.1,0.1,0.2,0.2,0.3,0.3c0.2,0.2,0.4,0.4,0.7,0.6c0.5,0.5,1.3,1.1,2.2,1.8c1.8,1.5,4.5,3.6,7.7,6.1   c6.4,5,15.3,11.8,25.1,19.2c19.6,14.9,42.9,32.4,58.5,44l2.4-3.2c-15.6-11.6-38.9-29.2-58.5-44c-9.8-7.4-18.6-14.2-25-19.2   c-3.2-2.5-5.8-4.6-7.6-6c-0.9-0.7-1.6-1.3-2.1-1.7c-0.2-0.2-0.4-0.4-0.5-0.5c0,0,0,0,0-0.1l0,0c0,0,0,0,0,0c0,0,0,0,0.1,0.1   c0,0,0.1,0.2,0.2,0.3L1386.2,2041.6z M1421.6,2111.5c-7.4-9.2-36.4-49-49-71.6l-3.5,1.9c12.7,22.9,41.9,62.9,49.4,72.2   c2.6,3.2,7,6.6,12.2,9.9c5.3,3.3,11.6,6.6,18,9.7c12.9,6,26.8,10.9,35.3,12.2c0.6,0.1,1.2,0.1,1.7,0.1c0.5-0.1,1.3-0.2,1.9-0.9   c0.7-0.8,0.7-1.7,0.6-2.3c-0.1-0.6-0.4-1.1-0.7-1.5c-1-1.6-3.4-3.8-6.3-6.3c-6-5.1-15.6-12.1-26-19.5c-8.4-6-17.4-12.2-25.4-17.8   c-1.9-1.3-3.7-2.6-5.4-3.8c-9.3-6.5-16.5-11.6-19.1-13.7l-2.6,3.1c2.7,2.3,10.2,7.5,19.4,13.9c1.8,1.2,3.6,2.5,5.4,3.8h0v0   c8,5.6,17,11.8,25.4,17.8c10.4,7.4,19.9,14.4,25.8,19.3c1.7,1.4,3,2.6,3.9,3.6c-8.1-1.7-20.4-6.1-32.2-11.6   c-6.4-3-12.5-6.2-17.6-9.4C1427.7,2117.3,1423.7,2114.2,1421.6,2111.5z M1485.3,2141.9C1485.3,2141.9,1485.3,2141.9,1485.3,2141.9   L1485.3,2141.9z M1547.9,2121.5l-141.2-80.3l-2,3.5l141.2,80.3L1547.9,2121.5z" clip-rule="evenodd"/><path fill="#9eb0c6" fill-rule="evenodd" d="M1905.3,1952.9l290.4-779l5.6,2.1L1911,1955L1905.3,1952.9z M1004.2,2126l-168.5-829.8l5.9-1.2l168.5,829.8   L1004.2,2126z M1577.9,2158l317.7-860l5.6,2.1L1583.6,2160L1577.9,2158z M1317.2,1991.9l-114.7-666.8l5.9-1l114.7,666.8   L1317.2,1991.9z" clip-rule="evenodd"/><path fill="#9eb0c6" d="M1944.6,1297c77-7.3,243-101.5,267.6-122.8c28.2-24.4,134.2-492,101-587c-14.1-40.4-220.3-194.2-314.7-218.2   L1944.6,1297z"/><path fill="#e0ecf8" d="M2052.6,399c82.6,114.9-53,687.9-107.7,897.2c-472.6,39.4-731.8,52.9-1142.1,0   c-99.2-149.6-156-578.3-107.7-761.9C707.8,486,1943.2,246.9,2052.6,399z"/><path fill="#f6b383" d="M1599.6,2073.6c-0.8-24.4-29.9-43.7-52.6-40.4c-13.4,2-55.9-34.4-92.9-61c-3.8-2.7-4.2-33.6-6.7-37.4   c-15.3-22.7-28.6-25.7-48.8-21c-5,1.2-3.4,11.3,1.7,14.7c-4.6,3.8-2.9,12.2,2.5,14.3c-6.3,4.6-4.2,11.3,0,13   c-1.9,14.7,14.7,15.1,15.6,18.1c2,7.3,14.8,20.3,18.5,18.9c20.4,34.4,100.1,101.3,115.2,105.1   C1572.8,2103.2,1581.5,2086.5,1599.6,2073.6z"/><path fill="#c0764f" d="M1516.6,1870.1l68-13.1C1573.7,1909.8,1539.5,1918.7,1516.6,1870.1z"/><path fill="#181817" d="M1555.3,1794.9c-1.1-2.8,20-11.4,26.2,5.1C1563.7,1792.1,1557.6,1800.6,1555.3,1794.9z"/><path fill="#181817" d="M1527.4,1795.7c0-5.3-11.6-13-17.9,2.8C1519.1,1790.9,1527.4,1799.2,1527.4,1795.7z"/><path fill="#181817" d="M1570.5,1825.7c0,4.2-2.4,7.6-5.5,7.6c-3,0-5.5-3.4-5.5-7.6c0-4.2,2.4-7.6,5.5-7.6   C1568,1818.2,1570.5,1821.5,1570.5,1825.7z"/><path fill="#181817" d="M1525.9,1824c0,4.2-2.5,7.6-5.5,7.6c-3,0-5.5-3.4-5.5-7.6c0-4.2,2.4-7.6,5.5-7.6   C1523.5,1816.5,1525.9,1819.8,1525.9,1824z"/><path fill="#c0764f" fill-rule="evenodd" d="M1528.8,1833.4c2.4-6.5,5.4-14.6,2.7-26.9l3.9-0.9c3,13.5-0.5,22.8-2.9,29.3c-0.4,1.1-0.8,2.1-1.1,3.1   c-1.1,3.3-1.2,5.2-0.1,6.9c1.2,1.9,4.4,4,11.6,6.4l-1.3,3.8c-7.2-2.4-11.6-4.8-13.7-8c-2.2-3.3-1.5-6.9-0.3-10.4   C1528,1835.6,1528.4,1834.5,1528.8,1833.4z M1627.5,1841.9c1.9,1.1,3.2,3.2,3.9,6l-3.8,1.1c-0.7-2.3-1.5-3.3-2.1-3.7   c-0.5-0.3-1.2-0.4-2.3,0.1c-2.4,1-5.2,4.2-7.3,8.1c-1,1.9-1.8,3.9-2.2,5.7c-0.4,1.8-0.4,3.3-0.1,4.4c0.3,1,0.9,1.7,1.9,2   c1.1,0.4,3,0.5,6-0.2l1,3.9c-3.3,0.8-6.1,0.9-8.3,0.1c-2.3-0.9-3.7-2.6-4.3-4.7c-0.6-2-0.5-4.3,0-6.5c0.5-2.2,1.4-4.5,2.5-6.7   c2.2-4.2,5.6-8.3,9.2-9.8C1623.4,1841,1625.6,1840.8,1627.5,1841.9z" clip-rule="evenodd"/><path fill="#fff" fill-rule="evenodd" d="M1582,1867.6c-21.4,3.2-53,7.9-62,9.3c-1.3-2.2-2.5-4.6-3.7-7.2l68.5-13C1584,1860.7,1583,1864.3,1582,1867.6   z" clip-rule="evenodd"/><path fill="#a31e1e" fill-rule="evenodd" d="M1580.8,1871.3c-10.2,29.1-29.3,38.1-47,23.1c2.8-6,11.9-13.1,23.8-18   C1566.2,1872.9,1574.5,1871.2,1580.8,1871.3z" clip-rule="evenodd"/><path fill="#693526" fill-rule="evenodd" d="M1147.3,2072.1c0.2,0,0.5-0.1,0.7-0.1h3.3v67c28.7-11.9,51.6-13.3,69.1-8.8c15.5,4,26.5,12.6,33.3,22.6   c1.9-18.2,2.4-39.4,2.8-56.8l0,0c0.1-5.8,0.3-11.1,0.4-15.8c0.1-2.9,0.2-5.8,0.2-8.8c0.1-3.8,0.1-7.5,0.2-11.3   c0-3.8,0.1-7.6,0.1-11.3c0-1.9,0-3.8,0-5.8v0c0-13.7,0.1-26.5,0.7-35.9c0.3-5.3,0.9-9.8,1.8-12.7c0.4-1.4,1-2.8,2-3.7   c0.5-0.5,1.2-0.9,2.1-0.9c0.8-0.1,1.6,0.2,2.2,0.5c3.6,2,5.9,6.1,7.1,10.8c1.2,4.8,1.5,10.5,0.9,16.5c-1.1,11.5-5.4,24.2-12.8,32   c0,1.6,0,3.1,0,4.7c11.6-15,18.1-25,25.5-42.8l3.7,1.5c-8.3,19.9-15.4,30.3-29.3,47.8c0,1.9,0,3.7-0.1,5.6l26.1-27l2.9,2.8   l-29,30.1c-0.1,2.1-0.1,4.3-0.2,6.4l90.4,17.3l-0.8,3.9l-89.7-17.2c-0.1,4-0.2,8.5-0.4,13.2l0,0c-0.5,19.3-1.1,43.6-3.5,63.2   c-1,8.1-2.3,15.4-4.1,21.4l-3.8-1.2c1.6-5.5,2.9-12.4,3.9-20.1c-5.8-10.9-16.9-20.9-33.6-25.2c-17-4.4-39.9-2.9-69.3,9.7   c-1.9,0.8-3.8,1.7-5.8,2.6l0,0c0,0.1-0.2,0.3-0.4,1.1c-0.2,1.1-0.4,2.6-0.4,4.6c-0.1,4,0.3,9.4,0.7,15.4l0,0.3   c0.8,11.9,1.8,26.5-0.3,37.2c-0.4,2.1-0.9,4-1.6,5.8c0,0,0,0,0,0c0,0,0,0.1,0.1,0.3c0.2,0.4,0.7,0.9,1.3,1.4c1.2,1,2.8,1.7,4.5,2.1   c1.2,0.4,2.4,0.6,3.5,0.8c-0.9,0.8-1.7,1.7-2.6,2.6l-0.4,0.9c-0.5-0.1-1.1-0.3-1.6-0.4c-1.4-0.4-3-1-4.5-1.9   c-4.9,4.7-11.6,11.1-17.4,16.6c-3.1,2.9-6,5.6-8.1,7.5c-1.1,1-1.9,1.8-2.6,2.3c-0.3,0.3-0.6,0.5-0.8,0.7c-0.1,0.1-0.2,0.2-0.4,0.3   c-0.1,0-0.2,0.1-0.3,0.2l0,0c-0.1,0-0.4,0.2-0.9,0.2v-4c-0.4,0-0.8,0.2-0.8,0.2l0,0c-0.1,0-0.1,0.1-0.2,0.1l0,0l0,0   c0,0,0,0,0.1-0.1c0.1-0.1,0.3-0.3,0.7-0.5c0.6-0.5,1.4-1.3,2.5-2.2c2.1-1.9,4.9-4.6,8-7.5c5.7-5.3,12.2-11.6,17.1-16.3   c-0.3-0.3-0.5-0.7-0.7-1c-0.6-1-0.9-2.3-0.4-3.7c0.4-1,0.7-2.1,1-3.3c-3.3-0.6-6.8,0.5-11.1,2.9c-3.5,2-7.3,4.7-11.7,7.9l0,0   c-2,1.4-4.1,2.9-6.3,4.5l-2.3-3.3c2.1-1.5,4.1-2.9,6-4.3c4.5-3.3,8.6-6.2,12.3-8.3c4.6-2.6,9.2-4.2,13.8-3.3   c1.5-10,0.6-23-0.2-34.4c-0.4-6-0.8-11.6-0.7-15.8c0-2.1,0.2-4,0.5-5.5c0.3-1.3,1-3.1,2.5-3.8c1.6-0.8,3.2-1.5,4.7-2.1V2072.1z    M980,2344.6c1-1.2,1.7-2.3,1.7-3.2c0-0.3,0-0.6,0-0.9c19.7-0.6,52-1.5,53-1.5v4l0,0c0,0,0,0,0,0h-0.1c-0.1,0-0.2,0-0.4,0   c-0.3,0-0.8,0-1.4,0c-1.2,0-2.8,0.1-4.8,0.1c-4,0.1-9.4,0.3-15.3,0.5C1001.8,2343.9,989.2,2344.3,980,2344.6z M1090.8,2334.5   l3.5,3.1c0.2,0.2,0.4,0.5,0.5,0.9l-1.6,2.4c-4.7-3.1-9.1-6.2-13.3-9.1c-5.4-3.7-10.5-7.2-15.4-10.5c-8.7-5.7-16.6-10.4-24-13.5   c-7.4-3-14.3-4.4-21-3.6c-6.7,0.8-13.4,3.7-20.5,9.7l-2.6-3.1c7.6-6.3,15-9.7,22.6-10.6c7.6-0.9,15.2,0.7,23,3.9   c7.8,3.2,16,8.1,24.7,13.8c4.9,3.2,10.1,6.8,15.5,10.6C1085,2330.5,1087.8,2332.5,1090.8,2334.5z M1261.5,2043.3v-0.2   c0-13.7,0.1-26.4,0.7-35.7c0.3-5.3,0.9-9.3,1.6-11.7c0.3-0.9,0.5-1.4,0.7-1.7c2.2,1.3,3.9,4.1,5,8.2c1.1,4.2,1.3,9.5,0.8,15.1   C1269.4,2026.6,1266.4,2036.4,1261.5,2043.3z M1213.4,2143.1l-37,24.8l2.2,3.3l37-24.8L1213.4,2143.1z M1206.8,2169.7l-46.2,13.9   l1.1,3.8l46.2-13.9L1206.8,2169.7z M1045.3,2326l-40.4,4.6l0.4,4l40.4-4.6L1045.3,2326z" clip-rule="evenodd"/><path fill="#9db2cb" fill-rule="evenodd" d="M693.7,541.3c57.5,82.7,149.3,168.2,247,243.4c100.6,77.4,207.4,143.8,289.4,185c36.9,18.6,68.7,32,92.6,39   c12,3.5,21.8,5.4,29.3,5.5c7.6,0.1,12.2-1.5,14.3-4.2c20.6-26.6,42.8-53.9,66.4-81.6C1525,820,1637.3,706.5,1746.4,614   c109-92.4,215-164.1,294.6-188.4l1.2,3.8C1963.4,453.4,1858,524.6,1749,617c-108.3,91.9-219.9,204.6-311.8,312.3l509,361.1   c-0.4,1.4-0.7,2.8-1.1,4.1l-510.5-362.2c-23.1,27.2-44.9,54-65.1,80.1c-3.3,4.3-9.6,5.9-17.5,5.8c-8-0.2-18.2-2.1-30.3-5.7   c-24-7-55.7-20.4-92.3-38.7c-165,96.5-238,159.6-328.2,237.5c-29.8,25.8-61.5,53.1-99,83.9c-0.7-1.1-1.5-2.2-2.2-3.4   c37.2-30.5,68.8-57.8,98.4-83.4c89.9-77.6,162.9-140.7,326.7-236.7c-81.8-41.4-187.3-107.2-286.7-183.8   c-96.7-74.4-187.8-159-245.8-241.3C692.9,544.8,693.3,543,693.7,541.3z" clip-rule="evenodd"/><path fill="#c0764f" fill-rule="evenodd" d="M1403.1,1956c3.5-0.3,7.2-0.3,10.7,0.1c5.9,0.7,10.7,2.4,13.2,4.6l2.7-2.9c-3.4-3.2-9.3-5-15.4-5.7   c-4.7-0.5-9.8-0.5-14.5,0.2c0.7,1.5,1.9,2.6,3.3,3.2C1403.2,1955.7,1403.2,1955.9,1403.1,1956z M1402.6,1943   c3.6-0.9,7.9-1.1,12.1-0.7c2.6,0.2,5,0.7,7.1,1.2c2.1,0.5,3.6,1.1,4.4,1.6l2.1-3.4c-1.3-0.8-3.2-1.5-5.4-2.1   c-2.2-0.6-4.9-1-7.7-1.3c-5-0.5-10.7-0.3-15.4,1.4c0.9,1.3,2.1,2.3,3.5,2.8C1403,1942.7,1402.8,1942.8,1402.6,1943z M1400.4,1928.5   c0.7-0.1,1.5-0.1,2.3-0.2c3.7-0.2,8.2-0.1,12.5,0.2c4.3,0.3,8.5,0.9,11.8,1.7c1.7,0.4,3,0.9,4,1.3c1.1,0.5,1.5,0.9,1.6,1.1l3.3-2.2   c-0.7-1.1-2-1.9-3.3-2.5c-1.3-0.6-2.9-1.1-4.7-1.6c-3.6-0.9-8-1.5-12.5-1.9c-4.5-0.3-9.1-0.4-13-0.2c-1.8,0.1-3.4,0.2-4.8,0.5   c0.8,1.4,1.8,2.6,3.1,3.4C1400.6,1928.3,1400.5,1928.4,1400.4,1928.5z" clip-rule="evenodd"/><path fill="#c0764f" fill-rule="evenodd" d="M1415.9,2007.8c0.6,0.4,1.2,0.4,1.6-0.1l1.9-1.7l7.4,15.2l-3.6,1.8L1415.9,2007.8z" clip-rule="evenodd"/><path fill="#2e363f" fill-rule="evenodd" d="M2203.6,2238.9c8.4-7.8,17.2-21,25.5-41.1c16.6-40.1,21.1-69,16.6-88.9c-0.9-4.2-2.3-8-4-11.4   c-52.1,30.4-74.2,70.1-78.8,101.1c-1.9,12.9-0.7,24.3,2.6,32.9c3.3,8.6,8.7,14.2,15.3,15.9   C2187.4,2249,2195.2,2246.7,2203.6,2238.9z M2241.2,2096.7c-52.4,30.5-74.7,70.5-79.3,101.8c-1.9,13.1-0.8,24.6,2.6,33.4   c3.4,8.7,9,14.7,16,16.5c7,1.8,15.2-0.8,23.8-8.7c8.5-7.9,17.4-21.3,25.7-41.4c16.6-40.1,21.2-69.3,16.6-89.5   c-1-4.3-2.3-8.2-4.1-11.6c34.8-20.1,82.7-36,147.6-42.6l-0.1-1c-64.9,6.6-113,22.5-147.9,42.7c-2.3-4.3-5.2-8-8.7-11.1   c-6.4-5.8-14.8-9.5-24.5-11.4c-19.5-3.8-44.9-0.5-73,7.9c-28.1,8.4-59,21.9-89.5,38.6l0.5,0.9c30.5-16.6,61.3-30.1,89.3-38.5   c28-8.4,53.2-11.6,72.5-7.8c9.6,1.9,17.8,5.5,24.1,11.2C2236.1,2088.8,2239,2092.4,2241.2,2096.7z M565.6,2142.7   c66-27.6,155.3-57.3,268.8-89.2l0.3,1c-113.5,31.9-202.7,61.6-268.7,89.2c-66,27.6-108.6,52.9-128.8,75.9   c-10.1,11.5-14.7,22.4-13.8,32.6c0.8,10.2,7,20,18.6,29.2c23.2,18.5,67.7,34.7,132.7,48.6c45.3,9.7,82.2,11.4,111.7,7.9   c-9.5-27.2-14.2-52.5-14.1-73.8c0-18.4,3.5-34,10.4-45.5c6.9-11.5,17-18.9,30.4-21c26.5-4.2,47.5,5.6,59.9,21.7   c12.4,16.1,16.2,38.6,8.5,59.8c-10,27.5-39.2,52.7-93.6,59.6c6.9,19.4,16.3,39.9,28.2,60.7c58,100.8,176.9,209.9,367.7,251.6   l-0.2,1c-191.1-41.8-310.3-151.1-368.4-252.1c-12-20.9-21.5-41.5-28.4-61c-29.7,3.6-66.7,1.9-112.2-7.8   c-65-13.9-109.7-30.1-133.1-48.8c-11.7-9.3-18.1-19.3-19-29.9c-0.9-10.6,3.8-21.7,14.1-33.4   C456.9,2195.7,499.7,2170.3,565.6,2142.7z M687.4,2337.7c54.4-6.9,83.2-32,93-59c7.6-20.9,3.9-43-8.3-58.8   c-12.2-15.8-32.8-25.5-59-21.4c-13,2-23,9.3-29.7,20.6c-6.7,11.3-10.2,26.7-10.2,45C673.2,2285.3,677.8,2310.5,687.4,2337.7z" clip-rule="evenodd"/><path fill="#f0a246" d="M978.8,1665l-271,73.8c-2.5,0.7-4.1,3.2-3.6,5.7l34.7,185.3c0.5,2.8,3.2,4.6,6,3.9l275.8-62.3   c2.6-0.6,4.3-3.2,3.8-5.8l-39.4-196.8C984.4,1666,981.5,1664.3,978.8,1665z"/><path fill="#893224" fill-rule="evenodd" d="M738.8,1929.5l92.7-103.9c-26.4-12.1-59.5-31-87.4-48.4c-14.6-9.1-27.8-17.8-37.9-24.9   c-0.2-0.2-0.4-0.3-0.7-0.5l-1.4-7.4c-0.1-0.3-0.1-0.7-0.1-1c1.7,1.2,3.6,2.6,5.6,4c10,7,23.1,15.6,37.6,24.7   c29.1,18.1,63.8,37.9,90.4,49.7c8.5,3.8,16.2,6.7,22.4,8.5l14.2-19.4l106.7-146c1.9,0.4,3.6,1.8,4,3.9l0.1,0.6l-103.7,141.9   l142.7,53.2l0.2,1.1c0.4,1.8-0.3,3.6-1.6,4.8l-145-54l-14,19.2l-1.2,1.6l-2-0.5c-6.6-1.7-14.5-4.7-23.3-8.5L743,1933.8   c-2-0.3-3.7-1.9-4.1-4L738.8,1929.5z" clip-rule="evenodd"/><path fill="#f0a246" d="M1501.6,1521.6l-101.8-19.5c-0.9-0.2-1.9,0.4-2.1,1.3l-18.6,67.1c-0.3,1,0.3,2,1.4,2.3l101.5,24.1   c1,0.2,1.9-0.3,2.2-1.3l18.8-71.6C1503.3,1522.9,1502.6,1521.8,1501.6,1521.6z"/><path fill="#893224" fill-rule="evenodd" d="M1379.1,1570.4l47.6-19.4c-6.8-8.3-14.7-19.9-21.1-30.2c-3.4-5.4-6.3-10.4-8.5-14.4c-0.1-0.1-0.1-0.2-0.1-0.3   l0.7-2.7c0-0.1,0.1-0.2,0.1-0.3c0.4,0.7,0.8,1.4,1.2,2.2c2.2,3.9,5.1,8.9,8.5,14.3c6.7,10.7,15,22.9,21.9,31.1   c2.2,2.7,4.3,4.8,6.1,6.5l7.8-4.1l59.1-31.1c0.6,0.4,0.9,1.2,0.7,2l-0.1,0.2l-57.4,30.2l38.7,40.8l-0.1,0.4   c-0.2,0.7-0.7,1.2-1.3,1.3l-39.3-41.4l-7.8,4.1l-0.7,0.3l-0.6-0.5c-1.9-1.6-4.1-3.9-6.4-6.6l-48.4,19.7   C1379.2,1572.1,1378.9,1571.3,1379.1,1570.4L1379.1,1570.4z" clip-rule="evenodd"/><path fill="#f0a246" d="M2327.9,1573.6l-304.8-58.4c-2.8-0.5-5.6,1.2-6.3,3.9l-55.6,200.8c-0.8,3,1,6.1,4,6.8l304,72.1   c2.9,0.7,5.8-1.1,6.6-3.9l56.4-214.4C2333,1577.3,2331,1574.2,2327.9,1573.6z"/><path fill="#893224" fill-rule="evenodd" d="M1961.2,1719.7l142.5-58.1c-20.3-24.8-44-59.7-63.3-90.5c-10.1-16.1-19-31.2-25.5-43.1   c-0.1-0.3-0.3-0.5-0.4-0.8l2.2-8c0.1-0.3,0.2-0.7,0.4-1c1.1,2.1,2.3,4.3,3.6,6.6c6.5,11.8,15.3,26.7,25.3,42.8   c20.1,32.1,45,68.6,65.6,93.2c6.6,7.9,12.8,14.5,18.1,19.3l23.5-12.4l176.8-93.2c1.8,1.3,2.6,3.6,2,5.8l-0.2,0.6l-171.8,90.5   l115.9,122.1l-0.3,1.2c-0.5,2-2.1,3.4-3.9,3.9l-117.7-124l-23.3,12.3l-2,1l-1.7-1.5c-5.7-4.9-12.2-11.7-19-19.7l-144.8,59.1   c-1.9-1.3-2.8-3.7-2.2-6L1961.2,1719.7z" clip-rule="evenodd"/></svg>