<svg xmlns="http://www.w3.org/2000/svg" data-name="Layer 1" viewBox="130.62 90 1238.75 900.93"><path fill="#2084fb" d="M646.79991,95.17765H611.38007a11.802,11.802,0,0,0-11.7674,11.7674v35.65521h58.95464V106.94505A11.802,11.802,0,0,0,646.79991,95.17765Z"/><path fill="#d1e5fd" d="M665.62774,90H592.78753a11.802,11.802,0,0,0-11.7674,11.7674v7.88415h96.375V101.7674A11.802,11.802,0,0,0,665.62774,90Z"/><circle cx="629.149" cy="420.664" r="284.536" fill="#d1e5fd"/><path fill="none" stroke="#2084fb" stroke-linecap="round" stroke-linejoin="round" stroke-width="2" d="M837.54947,614.35524a283.85613,283.85613,0,0,1-208.40059,90.84433c-157.09475,0-284.53565-127.4409-284.53565-284.53566s127.4409-284.53568,284.53565-284.53568c126.0288,0,232.99448,82.01876,270.29714,195.57415q1.059,3.35368,2.11812,6.70743"/><path fill="none" stroke="#2084fb" stroke-linecap="round" stroke-linejoin="round" stroke-width="2" d="M913.68447,420.66387A283.24462,283.24462,0,0,1,862.37865,583.76"/><circle cx="629.149" cy="420.664" r="265.59" fill="#fff"/><line x1="629.149" x2="629.149" y1="184.375" y2="168.371" fill="none" stroke="#2084fb" stroke-linecap="round" stroke-linejoin="round" stroke-width="6"/><line x1="462.052" x2="450.755" y1="253.567" y2="242.27" fill="none" stroke="#2084fb" stroke-linecap="round" stroke-linejoin="round" stroke-width="6"/><line x1="392.859" x2="376.856" y1="420.664" y2="420.664" fill="none" stroke="#2084fb" stroke-linecap="round" stroke-linejoin="round" stroke-width="6"/><line x1="462.052" x2="450.755" y1="587.761" y2="599.058" fill="none" stroke="#2084fb" stroke-linecap="round" stroke-linejoin="round" stroke-width="6"/><line x1="629.149" x2="629.149" y1="656.953" y2="672.957" fill="none" stroke="#2084fb" stroke-linecap="round" stroke-linejoin="round" stroke-width="6"/><polyline fill="none" stroke="#2084fb" stroke-linecap="round" stroke-linejoin="round" stroke-width="12" points="694.929 247.801 629.149 420.311 555.25 498.329"/><circle cx="629.149" cy="420.664" r="19.416" fill="#d1e5fd"/><line x1="796.246" x2="807.543" y1="587.761" y2="599.058" fill="none" stroke="#2084fb" stroke-linecap="round" stroke-linejoin="round" stroke-width="6"/><line x1="865.438" x2="881.442" y1="420.664" y2="420.664" fill="none" stroke="#2084fb" stroke-linecap="round" stroke-linejoin="round" stroke-width="6"/><line x1="796.246" x2="807.543" y1="253.567" y2="242.27" fill="none" stroke="#2084fb" stroke-linecap="round" stroke-linejoin="round" stroke-width="6"/><line x1="1368.377" x2="131.623" y1="988.794" y2="988.794" fill="none" stroke="#183d69" stroke-linecap="round" stroke-linejoin="round" stroke-width="2"/><path fill="#fff" stroke="#2084fb" stroke-linecap="round" stroke-linejoin="round" stroke-width="2" d="M724.81774,356.88456h273.592a11.802,11.802,0,0,1,11.7674,11.7674V620.7096a11.802,11.802,0,0,1-11.7674,11.76739h-273.592a11.802,11.802,0,0,1-11.7674-11.76739V368.652A11.802,11.802,0,0,1,724.81774,356.88456Z"/><path fill="#d1e5fd" stroke="#2084fb" stroke-linecap="round" stroke-linejoin="round" stroke-width="2" d="M724.81774,356.88456h273.592a11.802,11.802,0,0,1,11.7674,11.7674v24.12317H713.05034V368.652A11.802,11.802,0,0,1,724.81774,356.88456Z"/><path fill="#fff" stroke="#2084fb" stroke-linecap="round" stroke-linejoin="round" stroke-width="2" d="M754.58931,334.52651h4.23624a10.49618,10.49618,0,0,1,10.473,10.473v23.18179a10.49618,10.49618,0,0,1-10.473,10.473h-4.23624a10.49618,10.49618,0,0,1-10.473-10.473V344.99948A10.42111,10.42111,0,0,1,754.58931,334.52651Z"/><path fill="#fff" stroke="#2084fb" stroke-linecap="round" stroke-linejoin="round" stroke-width="2" d="M964.755,334.52651h4.23623a10.49618,10.49618,0,0,1,10.473,10.473v23.18179a10.49618,10.49618,0,0,1-10.473,10.473H964.755a10.49618,10.49618,0,0,1-10.473-10.473V344.99948A10.49618,10.49618,0,0,1,964.755,334.52651Z"/><rect width="37.42" height="37.42" x="736.114" y="415.957" fill="#fe835b"/><rect width="37.42" height="37.42" x="789.421" y="415.957" fill="#d1e5fd"/><rect width="37.42" height="37.42" x="842.609" y="415.957" fill="#d1e5fd"/><rect width="37.42" height="37.42" x="895.916" y="415.957" fill="#d1e5fd"/><rect width="37.42" height="37.42" x="949.104" y="415.957" fill="#d1e5fd"/><rect width="37.42" height="37.42" x="736.114" y="466.321" fill="#d1e5fd"/><rect width="37.42" height="37.42" x="789.421" y="466.321" fill="#d1e5fd"/><rect width="37.42" height="37.42" x="842.609" y="466.321" fill="#fe835b"/><rect width="37.42" height="37.42" x="895.916" y="466.321" fill="#d1e5fd"/><rect width="37.42" height="37.42" x="949.104" y="466.321" fill="#d1e5fd"/><rect width="37.42" height="37.42" x="736.114" y="516.568" fill="#d1e5fd"/><rect width="37.42" height="37.42" x="789.421" y="516.568" fill="#d1e5fd"/><rect width="37.42" height="37.42" x="842.609" y="516.568" fill="#d1e5fd"/><rect width="37.42" height="37.42" x="895.916" y="516.568" fill="#d1e5fd"/><rect width="37.42" height="37.42" x="949.104" y="516.568" fill="#fe835b"/><rect width="37.42" height="37.42" x="736.114" y="566.933" fill="#d1e5fd"/><rect width="37.42" height="37.42" x="789.421" y="566.933" fill="#fe835b"/><rect width="37.42" height="37.42" x="842.609" y="566.933" fill="#d1e5fd"/><rect width="37.42" height="37.42" x="895.916" y="566.933" fill="#d1e5fd"/><rect width="37.42" height="37.42" x="949.104" y="566.933" fill="#d1e5fd"/><path fill="#fff" stroke="#153b69" stroke-linecap="round" stroke-linejoin="round" stroke-width="2" d="M253.5335,848.40874l-5.17764,24.24081s59.42535-8.82555,70.60438-11.06138,20.82831,9.06091,27.1827,17.18037l6.58975,8.00181s3.29485,3.64787,1.4121,5.413-4.35395,1.52975-7.2958-1.17674-9.76693-10.11993-9.76693-10.11993-2.70649,4.00094-10.59066,3.76558a15.354,15.354,0,0,1-9.41391-3.29486S257.76981,897.008,248.7089,899.12612c-26.359,6.23671-49.54075.47073-43.77473-25.06454,5.06-22.4757,8.11949-32.36034,8.11949-32.36034Z"/><path fill="#2084fb" d="M272.479,782.1583s-5.64834,42.951-12.35577,65.77979c-2.58884,8.82554-15.7683,5.88369-28.35943,4.11858-12.00276-1.64746-26.712-6.58971-24.47617-14.82689,3.17721-12.1204,19.06319-49.54071,19.06319-49.54071Z"/><path fill="#153b69" d="M331.90438,924.66153s90.962-29.65385,103.5531,2.00047c16.70972,42.12727-67.66254,63.30859-67.66254,63.30859s-36.47893.11764-80.95968-.11765c-25.77059-.11764-43.304-18.71019-47.4226-54.95376Z"/><path fill="#fe835b" d="M425.33747,904.18623l-96.49266-14.94461L376.62045,815.46a2.30812,2.30812,0,0,1,2.35348-1.0591l91.43266,14.12088a2.38831,2.38831,0,0,1,1.64746,3.64786Z"/><polygon fill="#fff" points="336.729 885.711 379.798 819.226 466.053 832.523 423.102 899.009 336.729 885.711"/><path fill="#fe835b" d="M425.33747,904.18623l-96.49266-14.94461L255.887,912.77642l95.90429,14.82689a3.2585,3.2585,0,0,0,1.05906-.11765Z"/><path fill="#fff" d="M262.47673,746.85611l.11768-46.24586,56.48351,2.47113s1.05906,26.359-3.05953,42.48027c-1.64743,6.58972-6.82507,14.23853-17.76878,16.12135l-2.11811,28.94777s-13.65019,27.30038-38.59705-.82373Z"/><path fill="none" stroke="#153b69" stroke-linecap="round" stroke-linejoin="round" stroke-width="2" d="M298.3673,761.80072l-2.11812,28.94777s-13.65019,27.30038-38.59705-.82373l4.94232-45.30448"/><path fill="#2084fb" d="M258.24046,769.56717s11.06135,12.8265,40.12684,5.17769c0,0,20.59294,2.8242,24.12316,38.244,4.35395,43.89238,9.41392,111.67263,9.41392,111.67263s-24.9469,26.12364-92.60944,10.23765c0,0-11.64971-32.71335-16.82736-94.96291C218.349,791.33686,235.41172,772.156,258.24046,769.56717Z"/><path fill="none" stroke="#fff" stroke-linecap="round" stroke-linejoin="round" stroke-width="2" d="M224.70338,863.2357c-.82373-7.17808-1.64743-14.94461-2.2358-23.29943-.353-4.8246-.47069-9.41392-.353-14.00323"/><path fill="#fff" stroke="#153b69" stroke-linecap="round" stroke-linejoin="round" stroke-width="2" d="M300.83842,856.52827,299.544,881.23981s57.30724-18.00411,68.01554-22.005,22.005,5.64833,29.53618,12.70877l7.76649,6.9428s3.88322,3.05949,2.2358,5.06c-1.52975,2.11812-4.11859,2.23584-7.41345,0s-11.29671-8.47254-11.29671-8.47254-2.11812,4.4716-9.88461,5.413a14.89648,14.89648,0,0,1-9.8846-1.76511s-56.1305,24.71153-64.72069,28.24175c-25.06454,10.23765-48.8347,8.23718-47.18727-17.88646,1.4121-22.94642,2.94185-33.18407,2.94185-33.18407Z"/><path fill="#2084fb" d="M309.0756,788.15972s1.05906,43.304-2.00047,66.8388c-1.17674,9.17856-14.70925,8.23718-27.30038,8.47254-12.12041.23537-27.30038-2.35347-26.47665-10.826,1.29443-12.47341,9.88461-70.016,9.88461-70.016Z"/><path fill="none" stroke="#fff" stroke-linecap="round" stroke-linejoin="round" stroke-width="2" d="M309.0756,824.99166c-.23536,10.59066-.82373,21.652-1.88279,30.12451-1.17674,9.17856-14.70925,8.23718-27.30038,8.47254-12.1204.23536-27.30038-2.35348-26.47664-10.826.58837-5.8837,2.82416-21.652,5.06-36.7143"/><path fill="none" stroke="#153b69" stroke-linecap="round" stroke-linejoin="round" stroke-width="2" d="M319.19557,703.1991s1.05906,26.359-3.05953,42.48027a22.07236,22.07236,0,0,1-13.1795,15.18s-6.23671,1.88276-10.94367,1.0591"/><path fill="#2084fb" d="M226.23313,787.689s7.53112-16.47436,31.88965-18.12183l-29.06549,31.18361Z"/><path fill="#183d69" d="M286.36454,721.43856s-7.17812-5.64833-11.532-1.17674-.47069,14.12088,9.41392,10.59066c0,0,1.29442,22.4757-17.6511,20.71059s-15.886-36.83194-15.4153-41.89191,2.82417-24.00552,25.18223-31.419c22.24037-7.2958,41.30357-.353,48.717,9.17855s8.00181,23.29944-6.94276,24.9469-30.59524-1.4121-30.59524-1.4121Z"/><path fill="#153b69" d="M420.15986,987.264s17.76874-7.88417,28.00639-13.88551c10.23765-6.11907,16.35671-27.53574-14.47388-22.59342s-47.658,13.65015-44.01006,29.06548C392.7418,992.67708,409.5692,990.912,420.15986,987.264Z"/><path fill="none" stroke="#fff" stroke-linecap="round" stroke-linejoin="round" stroke-width="2" d="M420.15986,987.264s17.76874-7.88417,28.00639-13.88551c10.23765-6.11907,16.35671-27.53574-14.47388-22.59342s-47.658,13.65015-44.01006,29.06548C392.7418,992.67708,409.5692,990.912,420.15986,987.264Z"/><polygon fill="#fff" stroke="#153b69" stroke-linecap="round" stroke-linejoin="round" stroke-width="2" points="1143.737 924.308 1155.152 960.67 1188.689 952.315 1177.274 915.954 1143.737 924.308"/><path fill="#183d69" d="M1188.92393,949.72607l-37.18495,5.8837s-30.94831,22.82878-33.06636,30.71288c-1.76511,6.47207,53.30637-8.35482,72.95787-13.88551a6.04148,6.04148,0,0,0,3.8833-8.35483Z"/><path fill="#183d69" d="M1188.45321,927.95639l-48.011,14.23852s-38.59713-103.78846-43.30408-126.49952-.94145-100.37589-.94145-100.37589l62.95557,26.82965.23529,68.60392Z"/><polygon fill="#fff" stroke="#153b69" stroke-linecap="round" stroke-linejoin="round" stroke-width="2" points="1040.184 930.31 1042.185 967.377 1076.781 967.142 1074.78 930.075 1040.184 930.31"/><path fill="#183d69" d="M1077.60438,964.78833l-37.538-3.0595s-35.41984,14.8269-39.42078,22.1227c-3.17721,5.8837,53.777,4.47159,74.1346,3.64786a6.02826,6.02826,0,0,0,5.76606-7.17808Z"/><path fill="#183d69" d="M1045.47932,716.14323s-13.88558,58.131-16.592,92.72708c-2.70656,34.47846,4.707,138.03156,4.707,138.03156h51.07054l3.76551-130.61811s32.94871-56.48351,35.30219-89.43222S1045.47932,716.14323,1045.47932,716.14323Z"/><path fill="none" stroke="#fff" stroke-linecap="round" stroke-linejoin="round" stroke-width="2" d="M1088.43033,816.28376s16.94508-29.06549,27.41809-57.7779"/><path fill="#fff" stroke="#153b69" stroke-linecap="round" stroke-linejoin="round" stroke-width="2" d="M1062.54205,712.14229c1.76511-6.47207,4.707-20.71059,6.23678-27.771-1.29439.706-13.06178,6.82508-15.41526,3.29486-1.64747-2.35348,1.17674-4.11859,1.17674-4.11859l19.29856-12.59113c11.7674-7.41345,25.41755-4.58932,25.41755-4.58932l58.36626,8.00182-4.11859-24.47617,40.71517-4.94232s2.58877,10.00228,6.70736,32.71335c4.707,25.77063-18.35711,34.71382-44.48082,27.418-8.23718-2.35348-51.54126-13.06178-59.543-15.533v.11764h-.11764c.35308,5.76606.58837,12.8265.706,15.76835,0,4.11859-4.58931,4.8246-5.29532.11764-.94145-5.53069-1.88276-13.29714-1.88276-13.29714s-.23529,12.70877-.82366,18.47482c-.35308,4.354-5.76605,5.17769-5.76605-.706-.11765-8.23718-.11765-16.94508-.11765-16.94508s-2.23583,14.5916-2.94185,21.18131c-.706,5.64834-7.64881,7.64881-6.82515-.353.706-7.88417,1.64747-18.94548,1.64747-18.94548s-4.82461,14.9446-6.58972,19.18084C1066.42535,719.67345,1060.18857,720.73247,1062.54205,712.14229Z"/><path fill="#fe835b" d="M1146.67894,619.88593a125.78737,125.78737,0,0,0,2.94185,43.18637c2.23584,8.94319,15.53291,6.47207,28.12411,5.29533,12.12048-1.0591,26.94737-5.53069,25.06462-13.88552-2.70656-12.23812-11.41432-46.59886-11.41432-46.59886Z"/><path fill="#fff" d="M1154.91612,546.3397l14.474-43.89238-54.36532-15.4153s-9.29627,24.7115-10.473,41.30358c-.47073,6.82507,3.05949,17.06272,12.94413,21.53432l-9.29627,29.30085s5.17768,28.47711,37.77332,9.53156Z"/><path fill="none" stroke="#183d69" stroke-linecap="round" stroke-linejoin="round" stroke-width="2" d="M1117.3781,549.86992l-9.29628,29.30085s5.17769,28.47711,37.77332,9.53156l9.64921-44.48075"/><path fill="#fe835b" d="M1150.32681,573.05163s-12.47341,8.35483-39.53843-5.29532c0,0-34.71382-3.88323-44.59846,38.00868-8.11954,34.59617-20.7106,110.26053-20.7106,110.26053s44.59847,32.94871,113.79068,26.00592c0,0,8.9432-46.24586,19.6515-108.37771C1185.51136,595.1744,1169.27243,581.52418,1150.32681,573.05163Z"/><path fill="none" stroke="#fff" stroke-linecap="round" stroke-linejoin="round" stroke-width="2" d="M1170.44917,680.95869c2.58877-14.12088,5.413-30.12451,8.35483-47.305"/><path fill="#183d69" d="M1107.61124,486.44362s5.766,17.53341,28.59483,22.94642l-1.64746,6.9428s14.474-5.413,12.35577,6.47206-13.7678,1.88276-13.7678,1.88276-7.41352,20.23994,16.94508,23.53479c15.29762,2.11812,23.18172-18.94548,25.5352-38.12639,2.94185-23.77016-19.53385-35.77288-30.12451-38.9501S1098.90334,467.26277,1107.61124,486.44362Z"/><path fill="none" stroke="#183d69" stroke-linecap="round" stroke-linejoin="round" stroke-width="2" d="M1114.907,487.032s-9.29627,24.71153-10.473,41.30353a22.28527,22.28527,0,0,0,7.76645,18.59248s5.29533,3.76558,10.00229,4.47159"/><path fill="#fff" stroke="#153b69" stroke-linecap="round" stroke-linejoin="round" stroke-width="2" d="M987.93679,476.559s-11.532-15.886-14.47388-20.47526c-2.35348-3.6479,1.29438-6.82508,4.58931-3.05953,3.88323,4.35395,9.06091,10.473,9.06091,10.473s-6.82507-11.179-9.64928-16.592c-2.00047-4.0009,2.11812-7.76649,5.413-2.58884,4.707,7.06044,9.53156,14.70925,9.53156,14.70925s-6.23671-14.0032-9.17856-20.12226c-2.58884-5.29533,2.35348-10.826,6.11907-3.53022s9.06091,17.41574,9.06091,17.41574-4.11859-15.65063-4.94233-20.35759c-.94137-6.00138,3.76559-10.35529,6.47207-1.52974,2.00048,6.58975,7.41345,20.59294,10.11994,27.65338.706-1.29442,7.53116-13.29714,11.64975-11.532,2.70656,1.17674,1.29438,4.23627,1.29438,4.23627l-9.88464,21.652,13.7678,74.723,41.89191,16.35672-18.47476,31.53661s-45.53984-7.17809-49.65843-24.24081C997.233,557.048,987.93679,476.559,987.93679,476.559Z"/><path fill="#fe835b" d="M1116.43679,570.69816s-20.82824-12.35577-66.25051-23.06408c-5.8837-1.4121-31.772,43.89238-17.06272,50.83518,24.47624,11.64975,55.89514,15.76834,55.89514,15.76834Z"/><path fill="#fe835b" d="M1191.5127,608.00082s-7.53116-29.88922-41.18589-34.83147l4.35388,49.30543C1154.68083,622.4747,1182.92259,623.41615,1191.5127,608.00082Z"/><line x1="1065.249" x2="1074.074" y1="610.119" y2="612.119" fill="none" stroke="#fff" stroke-linecap="round" stroke-linejoin="round" stroke-width="2"/><path fill="#183d69" d="M1170.91975,505.03609s26.24136,2.70649,15.29762,27.065c-11.53211,25.41755-6.47207,35.30219,1.76511,57.30724,7.06044,18.71019-.35308,44.3631-30.83052,36.12592-35.77292-9.64928-5.76606-54.7184,4.23623-70.722s28.94777-38.1264,9.17863-42.48028Z"/><path fill="#fff" stroke="#2084fb" stroke-linecap="round" stroke-linejoin="round" stroke-width="2" d="M884.266,908.89319H637.15063a11.802,11.802,0,0,1-11.7674-11.7674V797.22056a11.802,11.802,0,0,1,11.7674-11.7674h247.233a11.802,11.802,0,0,1,11.7674,11.7674v99.90523A11.90336,11.90336,0,0,1,884.266,908.89319Z"/><path fill="#d1e5fd" d="M746.70514,877.70959H656.21383a2.66292,2.66292,0,0,1-2.70649-2.70649V814.51865a2.66292,2.66292,0,0,1,2.70649-2.70649h90.49131a2.66292,2.66292,0,0,1,2.70649,2.70649V875.0031A2.81978,2.81978,0,0,1,746.70514,877.70959Z"/><path fill="#2084fb" d="M701.40066,850.0562l-47.89332-35.53755a2.66292,2.66292,0,0,1,2.70649-2.70649h90.49131a2.66292,2.66292,0,0,1,2.70649,2.70649Z"/><path fill="#d1e5fd" d="M824.37,822.63818h-40.1268a5.27331,5.27331,0,0,1-5.29533-5.29533h0a5.27331,5.27331,0,0,1,5.29533-5.29533H824.37a5.27331,5.27331,0,0,1,5.29533,5.29533h0A5.27331,5.27331,0,0,1,824.37,822.63818Z"/><path fill="#d1e5fd" d="M865.79122,850.29157h-81.548a5.27331,5.27331,0,0,1-5.29533-5.29533h0a5.27331,5.27331,0,0,1,5.29533-5.29533h81.548a5.27331,5.27331,0,0,1,5.29533,5.29533h0A5.27331,5.27331,0,0,1,865.79122,850.29157Z"/><path fill="#d1e5fd" d="M865.79122,877.945h-81.548a5.27331,5.27331,0,0,1-5.29533-5.29533h0a5.27331,5.27331,0,0,1,5.29533-5.29533h81.548a5.27331,5.27331,0,0,1,5.29533,5.29533h0A5.27331,5.27331,0,0,1,865.79122,877.945Z"/><line x1="932.159" x2="932.159" y1="650.481" y2="657.542" fill="none" stroke="#2084fb" stroke-linecap="round" stroke-linejoin="round" stroke-width="2"/><path fill="none" stroke="#2084fb" stroke-dasharray="11.583 11.583" stroke-linecap="round" stroke-linejoin="round" stroke-width="2" d="M932.1593,671.19176v18.12182a11.802,11.802,0,0,1-11.7674,11.7674h-90.962a11.802,11.802,0,0,0-11.76739,11.7674v37.891"/><line x1="817.663" x2="817.663" y1="757.564" y2="764.625" fill="none" stroke="#2084fb" stroke-linecap="round" stroke-linejoin="round" stroke-width="2"/><path fill="none" stroke="#2084fb" stroke-dasharray="12" stroke-linecap="round" stroke-linejoin="round" stroke-width="2" d="M428.51468,803.45734V742.26687a11.802,11.802,0,0,1,11.7674-11.7674h62.0142a11.802,11.802,0,0,1,11.7674,11.7674V834.8763a11.802,11.802,0,0,0,11.7674,11.7674h80.37131"/><circle cx="967.108" cy="190.023" r="34.831" fill="#13b85b"/><polyline fill="none" stroke="#fff" stroke-linecap="round" stroke-linejoin="round" stroke-width="6" points="955.341 188.964 964.755 198.378 978.876 181.786"/><line x1="966.638" x2="966.638" y1="310.874" y2="240.27" fill="none" stroke="#2084fb" stroke-dasharray="12" stroke-linecap="round" stroke-linejoin="round" stroke-width="2"/><line x1="916.038" x2="845.434" y1="187.905" y2="187.905" fill="none" stroke="#2084fb" stroke-dasharray="12" stroke-linecap="round" stroke-linejoin="round" stroke-width="2"/></svg>